<?xml version="1.0" standalone="no"?>
<!DOCTYPE svg PUBLIC "-//W3C//DTD SVG 1.1//EN" "http://www.w3.org/Graphics/SVG/1.1/DTD/svg11.dtd" >
<svg xmlns="http://www.w3.org/2000/svg" xmlns:xlink="http://www.w3.org/1999/xlink" version="1.1">
<metadata>
Created by FontForge 20170731 at Wed Apr  8 16:56:41 2015
 By Aleksey,,,
Copyright (c) 2015 Monotype Imaging Inc.  All rights reserved.
</metadata>
<defs>
<font id="NeueHaasUnicaW1G-Medium" horiz-adv-x="588" >
  <font-face 
    font-family="NeueHaasUnicaW1G-Medium"
    font-weight="400"
    font-stretch="normal"
    units-per-em="1000"
    panose-1="2 11 6 4 3 2 6 2 2 3"
    ascent="788"
    descent="-212"
    x-height="508"
    cap-height="712"
    bbox="-500 -275 1136 1104"
    underline-thickness="50"
    underline-position="-175"
    unicode-range="U+0020-FEFF"
  />
<missing-glyph horiz-adv-x="633" 
d="M578.5 741q35.5 -36 35.5 -97v-576q0 -61 -35.5 -97t-96.5 -36h-331q-61 0 -97 36t-36 97v576q0 62 36 97.5t97 35.5h331q61 0 96.5 -36zM95.5 700q-20.5 -21 -20.5 -56v-576q0 -35 20.5 -56t55.5 -21h331q35 0 55.5 21t20.5 56v576q0 35 -20.5 56t-55.5 21h-331
q-35 0 -55.5 -21zM444 606.5q47 -40.5 47 -108.5q0 -42 -15 -71t-61 -70q-28 -26 -41.5 -44.5t-19 -41t-5.5 -60.5h-87q-1 10 -1 29q0 57 14 88t58 74q33 32 42.5 50t9.5 44q0 30 -18 47t-51 17q-76 0 -79 -89h-104q2 86 49.5 131t133.5 45q81 0 128 -40.5zM250 65v102h111
v-102h-111z" />
    <glyph glyph-name="f_f" unicode="ff" horiz-adv-x="615" 
d="M521 612.5q-18 -19.5 -18 -63.5v-41h98v-87h-98v-421h-113v421h-179v-421h-113v421h-86v87h86v54q0 78 39 117.5t115 39.5q25 0 60 -7v-84q-14 4 -28 4q-37 0 -55 -19.5t-18 -63.5v-41h179v54q0 78 39 117.5t115 39.5q26 0 59 -7v-84q-12 4 -27 4q-37 0 -55 -19.5z" />
    <glyph glyph-name="f_f_i" unicode="ffi" horiz-adv-x="875" 
d="M429 679.5q39 39.5 115 39.5q26 0 59 -7v-84q-12 4 -27 4q-37 0 -55 -19.5t-18 -63.5v-41h98v-87h-98v-421h-113v421h-179v-421h-113v421h-86v87h86v54q0 78 39 117.5t115 39.5q25 0 60 -7v-84q-14 4 -28 4q-37 0 -55 -19.5t-18 -63.5v-41h179v54q0 78 39 117.5zM802 603
h-114v109h114v-109zM802 508v-508h-114v508h114z" />
    <glyph glyph-name="f_f_l" unicode="ffl" horiz-adv-x="875" 
d="M521 612.5q-18 -19.5 -18 -63.5v-41h98v-87h-98v-421h-113v421h-179v-421h-113v421h-86v87h86v54q0 78 39 117.5t115 39.5q25 0 60 -7v-84q-14 4 -28 4q-37 0 -55 -19.5t-18 -63.5v-41h179v54q0 78 39 117.5t115 39.5q26 0 59 -7v-84q-12 4 -27 4q-37 0 -55 -19.5zM688 0
v712h114v-712h-114z" />
    <glyph glyph-name="f_i" unicode="fi" horiz-adv-x="583" 
d="M137 679.5q39 39.5 115 39.5q25 0 60 -7v-84q-14 4 -28 4q-37 0 -55 -19.5t-18 -63.5v-41h98v-87h-98v-421h-113v421h-86v87h86v54q0 78 39 117.5zM510 603h-114v109h114v-109zM510 508v-508h-114v508h114z" />
    <glyph glyph-name="f_l" unicode="fl" horiz-adv-x="583" 
d="M229 612.5q-18 -19.5 -18 -63.5v-41h98v-87h-98v-421h-113v421h-86v87h86v54q0 78 39 117.5t115 39.5q25 0 60 -7v-84q-14 4 -28 4q-37 0 -55 -19.5zM396 0v712h114v-712h-114z" />
    <glyph glyph-name=".notdef" horiz-adv-x="633" 
d="M578.5 741q35.5 -36 35.5 -97v-576q0 -61 -35.5 -97t-96.5 -36h-331q-61 0 -97 36t-36 97v576q0 62 36 97.5t97 35.5h331q61 0 96.5 -36zM95.5 700q-20.5 -21 -20.5 -56v-576q0 -35 20.5 -56t55.5 -21h331q35 0 55.5 21t20.5 56v576q0 35 -20.5 56t-55.5 21h-331
q-35 0 -55.5 -21zM444 606.5q47 -40.5 47 -108.5q0 -42 -15 -71t-61 -70q-28 -26 -41.5 -44.5t-19 -41t-5.5 -60.5h-87q-1 10 -1 29q0 57 14 88t58 74q33 32 42.5 50t9.5 44q0 30 -18 47t-51 17q-76 0 -79 -89h-104q2 86 49.5 131t133.5 45q81 0 128 -40.5zM250 65v102h111
v-102h-111z" />
    <glyph glyph-name=".null" horiz-adv-x="0" 
 />
    <glyph glyph-name="nonmarkingreturn" horiz-adv-x="333" 
 />
    <glyph glyph-name="NULL" horiz-adv-x="600" 
 />
    <glyph glyph-name="NULL" horiz-adv-x="600" 
 />
    <glyph glyph-name="space" unicode=" " horiz-adv-x="230" 
 />
    <glyph glyph-name="exclam" unicode="!" horiz-adv-x="300" 
d="M105 187l-26 525h141l-26 -525h-89zM85 0v119h129v-119h-129z" />
    <glyph glyph-name="quotedbl" unicode="&#x22;" horiz-adv-x="404" 
d="M77 444l-13 268h109l-13 -268h-83zM244 444l-13 268h109l-13 -268h-83z" />
    <glyph glyph-name="numbersign" unicode="#" horiz-adv-x="660" 
d="M481 265h108l-13 -83h-108l-29 -182h-98l29 182h-128l-29 -182h-98l29 182h-109l13 83h109l23 146h-109l13 83h109l29 180h98l-29 -180h128l29 180h98l-29 -180h108l-13 -83h-108zM278 411l-23 -146h128l23 146h-128z" />
    <glyph glyph-name="dollar" unicode="$" horiz-adv-x="581" 
d="M484 48q-58 -53 -158 -61v-86h-72v85q-104 9 -159.5 68.5t-55.5 165.5h111q0 -124 104 -143v224q-63 18 -105.5 38t-71 58.5t-28.5 99.5q0 81 55 132t150 59v76h72v-77q97 -9 147.5 -64.5t50.5 -156.5h-110q0 112 -88 131v-205q69 -19 113 -39t73.5 -60.5t29.5 -108.5
q0 -83 -58 -136zM184.5 446.5q21.5 -20.5 69.5 -35.5v188q-44 -6 -67.5 -29.5t-23.5 -63.5q0 -39 21.5 -59.5zM402.5 109.5q26.5 26.5 26.5 69.5q0 41 -24.5 62.5t-78.5 38.5v-204q50 7 76.5 33.5z" />
    <glyph glyph-name="percent" unicode="%" horiz-adv-x="886" 
d="M217 -30l377 734h75l-377 -734h-75zM321.5 638.5q41.5 -50.5 41.5 -143.5t-41.5 -143.5t-117.5 -50.5t-117.5 50.5t-41.5 143.5t41.5 143.5t117.5 50.5t117.5 -50.5zM155 587q-17 -31 -17 -92t17 -92t49 -31t49 31t17 92t-17 92t-49 31t-49 -31zM799.5 322.5
q41.5 -50.5 41.5 -143.5t-41.5 -143.5t-117.5 -50.5t-117.5 50.5t-41.5 143.5t41.5 143.5t117.5 50.5t117.5 -50.5zM633 271q-17 -31 -17 -92t17 -92t49 -31q33 0 50 31t17 92t-17 92t-50 31q-32 0 -49 -31z" />
    <glyph glyph-name="ampersand" unicode="&#x26;" horiz-adv-x="743" 
d="M520 68q-39 -40 -96 -61.5t-122 -21.5q-119 0 -186 56t-67 150q0 70 37 121.5t115 86.5q-44 47 -60.5 81t-16.5 82q0 74 52 119.5t138 45.5q85 0 136 -43.5t51 -116.5q0 -59 -30 -104t-100 -85l150 -153q38 70 38 175h114q-1 -75 -20 -139t-54 -114l144 -147h-156z
M257 612q-21 -20 -21 -56q0 -28 14 -52t54 -65q48 29 68 58t20 61q0 33 -21.5 53.5t-56.5 20.5q-36 0 -57 -20zM452 137l-188 191q-52 -28 -73 -59t-21 -71q0 -50 38.5 -82t103.5 -32q78 0 140 53z" />
    <glyph glyph-name="quotesingle" unicode="'" horiz-adv-x="237" 
d="M77 444l-13 268h109l-13 -268h-83z" />
    <glyph glyph-name="parenleft" unicode="(" horiz-adv-x="310" 
d="M195.5 523.5q-26.5 -105.5 -26.5 -226.5t26.5 -226.5t84.5 -217.5h-96q-71 104 -104.5 210t-33.5 234t33.5 234.5t104.5 209.5h96q-58 -112 -84.5 -217.5z" />
    <glyph glyph-name="parenright" unicode=")" horiz-adv-x="310" 
d="M230.5 531.5q33.5 -106.5 33.5 -234.5t-33.5 -234t-104.5 -210h-96q58 112 84.5 217t26.5 227t-26 227t-85 217h96q71 -103 104.5 -209.5z" />
    <glyph glyph-name="asterisk" unicode="*" horiz-adv-x="417" 
d="M361 633l27 -86l-133 -25l91 -98l-72 -53l-66 118l-66 -118l-72 53l91 98l-132 25l27 86l124 -56l-16 135h89l-16 -135z" />
    <glyph glyph-name="plus" unicode="+" horiz-adv-x="566" 
d="M499 362v-91h-171v-170h-90v170h-171v91h171v171h90v-171h171z" />
    <glyph glyph-name="comma" unicode="," horiz-adv-x="242" 
d="M124 -158h-71l46 158h-44v142h132v-142z" />
    <glyph glyph-name="hyphen" unicode="-" horiz-adv-x="310" 
d="M30 245v94h250v-94h-250z" />
    <glyph glyph-name="period" unicode="." horiz-adv-x="242" 
d="M55 0v142h132v-142h-132z" />
    <glyph glyph-name="slash" unicode="/" horiz-adv-x="473" 
d="M30 -89l298 834h94l-298 -834h-94z" />
    <glyph glyph-name="zero" unicode="0" horiz-adv-x="581" 
d="M481 598q66 -91 66 -261t-66 -261t-190 -91t-190.5 91t-66.5 261t66.5 261t190.5 91t190 -91zM191.5 523.5q-34.5 -64.5 -34.5 -186.5t34.5 -187.5t99.5 -65.5q64 0 98.5 65.5t34.5 187.5t-34.5 186.5t-98.5 64.5q-65 0 -99.5 -64.5z" />
    <glyph glyph-name="one" unicode="1" horiz-adv-x="581" 
d="M257 0v474h-157v86q82 0 121.5 26.5t48.5 87.5h105v-674h-118z" />
    <glyph glyph-name="two" unicode="2" horiz-adv-x="581" 
d="M409 665.5q51 -23.5 79 -66.5t28 -100t-21.5 -98.5t-59 -71.5t-97.5 -65q-64 -38 -97 -64.5t-45.5 -49.5t-13.5 -52h350v-98h-486q-1 8 -1 21q0 69 16 118t58 93t122 90q57 33 88 56.5t47.5 51t16.5 64.5q0 43 -27.5 69t-75.5 26q-112 0 -117 -119h-119q3 105 65.5 162
t170.5 57q68 0 119 -23.5z" />
    <glyph glyph-name="three" unicode="3" horiz-adv-x="581" 
d="M457 638q62 -51 62 -136q0 -58 -28.5 -95t-88.5 -59v-2q66 -22 97 -62t31 -105q0 -58 -30 -102t-84.5 -68t-125.5 -24q-118 0 -182.5 59t-64.5 168h120q0 -63 32 -95.5t95 -32.5q54 0 87 27.5t33 72.5q0 106 -148 106h-24v97h24q64 0 101.5 28.5t37.5 75.5q0 44 -32 71.5
t-84 27.5q-56 0 -86 -30.5t-30 -91.5h-119q0 104 63.5 162.5t175.5 58.5q106 0 168 -51z" />
    <glyph glyph-name="four" unicode="4" horiz-adv-x="581" 
d="M456 162v-162h-118v162h-321v102l281 410h158v-417h103v-95h-103zM341 257v87q0 105 5 237h-2q-49 -80 -145 -222l-71 -102h213z" />
    <glyph glyph-name="five" unicode="5" horiz-adv-x="581" 
d="M190 576l-18 -183h2q24 26 59 39.5t75 13.5q66 0 116.5 -28t78 -78.5t27.5 -116.5q0 -72 -31 -125.5t-87 -83t-130 -29.5q-105 0 -167.5 53t-62.5 144h119q1 -46 32.5 -72t78.5 -26q59 0 92 35t33 99q0 63 -32.5 97.5t-88.5 34.5q-44 0 -73 -22t-39 -61l-117 8l38 399
h402v-98h-307z" />
    <glyph glyph-name="six" unicode="6" horiz-adv-x="581" 
d="M464 637.5q57 -51.5 64 -142.5h-120q-7 47 -32.5 71t-68.5 24q-66 0 -105.5 -56.5t-42.5 -171.5h2q61 78 160 78q64 0 113.5 -28t76.5 -78t27 -115q0 -69 -30.5 -122t-85.5 -82.5t-126 -29.5q-121 0 -185 83t-64 246q0 181 69.5 278t195.5 97q95 0 152 -51.5z
M211.5 310.5q-32.5 -36.5 -32.5 -96.5t31.5 -95t85.5 -35t86.5 35.5t32.5 96.5q0 59 -32 95t-85 36q-54 0 -86.5 -36.5z" />
    <glyph glyph-name="seven" unicode="7" horiz-adv-x="581" 
d="M390 312q-60 -147 -90 -312h-130q39 181 104 329t137 244h-368v101h485v-103q-78 -112 -138 -259z" />
    <glyph glyph-name="eight" unicode="8" horiz-adv-x="581" 
d="M411 666q53 -23 82.5 -65t29.5 -97t-32 -95t-88 -58v-2q63 -18 98.5 -61.5t35.5 -105.5q0 -60 -30.5 -104.5t-86.5 -68.5t-129 -24q-74 0 -129.5 24t-86.5 68.5t-31 104.5q0 62 35.5 105.5t98.5 61.5v2q-56 18 -88 58t-32 95t30 97t82.5 65t120.5 23q67 0 120 -23z
M205.5 565q-32.5 -26 -32.5 -69q0 -47 31.5 -74t86.5 -27q54 0 85.5 27t31.5 74q0 43 -32 69t-85 26t-85.5 -26zM199 269.5q-35 -29.5 -35 -77.5q0 -49 34 -78t93 -29q58 0 92.5 29t34.5 78q0 47 -35 77t-92 30t-92 -29.5z" />
    <glyph glyph-name="nine" unicode="9" horiz-adv-x="581" 
d="M103.5 36.5q-57.5 51.5 -64.5 142.5h120q7 -47 33 -71t69 -24q66 0 105.5 56.5t42.5 171.5h-2q-61 -78 -160 -78q-64 0 -113.5 28t-76.5 78t-27 115q0 69 30.5 122t85.5 82.5t126 29.5q120 0 184 -83t64 -246q0 -181 -69 -278t-196 -97q-94 0 -151.5 51.5zM356 364
q33 37 33 96t-31.5 94.5t-85.5 35.5q-55 0 -87 -35.5t-32 -96.5q0 -60 31.5 -95.5t85.5 -35.5q53 0 86 37z" />
    <glyph glyph-name="colon" unicode=":" horiz-adv-x="242" 
d="M55 0v142h132v-142h-132zM55 366v142h132v-142h-132z" />
    <glyph glyph-name="semicolon" unicode=";" horiz-adv-x="242" 
d="M124 -158h-71l46 158h-44v142h132v-142zM55 366v142h132v-142h-132z" />
    <glyph glyph-name="less" unicode="&#x3c;" horiz-adv-x="566" 
d="M173 318v-2l326 -132v-100l-432 180v106l432 180v-100z" />
    <glyph glyph-name="equal" unicode="=" horiz-adv-x="566" 
d="M67 360v91h432v-91h-432zM67 182v91h432v-91h-432z" />
    <glyph glyph-name="greater" unicode="&#x3e;" horiz-adv-x="566" 
d="M499 264l-432 -180v100l326 132v2l-326 132v100l432 -180v-106z" />
    <glyph glyph-name="question" unicode="?" horiz-adv-x="532" 
d="M433 676.5q61 -49.5 61 -133.5q0 -36 -8.5 -62t-30.5 -52.5t-65 -62.5q-39 -33 -57 -57t-24.5 -53t-6.5 -80h-99q-1 11 -1 31q0 52 8 84.5t28.5 60.5t62.5 65q46 42 59.5 65.5t13.5 57.5q0 39 -28 62.5t-77 23.5q-113 0 -119 -115h-118q4 106 65 160.5t172 54.5
q103 0 164 -49.5zM187 0v119h129v-119h-129z" />
    <glyph glyph-name="at" unicode="@" horiz-adv-x="870" 
d="M646.5 653q86.5 -46 133.5 -130t47 -195q0 -84 -27 -141.5t-71.5 -86t-98.5 -28.5q-48 0 -78 21.5t-39 64.5h-2q-42 -86 -134 -86q-70 0 -109 50.5t-40 144.5q0 74 24.5 131t68 88.5t98.5 31.5q81 0 111 -73h2q9 51 12 63h93q-17 -84 -29 -167t-12 -123q0 -35 12.5 -51
t37.5 -16q45 0 75 45t30 132q0 89 -37.5 156t-106.5 103.5t-161 36.5q-103 0 -176.5 -45.5t-112 -124.5t-38.5 -177q0 -97 38.5 -168t109 -108.5t164.5 -37.5q132 0 219 54l34 -66q-108 -63 -253 -63q-118 0 -205.5 46.5t-135 134.5t-47.5 208q0 117 48.5 213t140 152.5
t214.5 56.5q114 0 200.5 -46zM359 387.5q-30 -43.5 -30 -117.5q0 -54 20 -82t56 -28q44 0 73.5 44t29.5 128q0 47 -19 73t-54 26q-46 0 -76 -43.5z" />
    <glyph glyph-name="A" unicode="A" horiz-adv-x="687" 
d="M196 193l-66 -193h-126l259 712h161l259 -712h-126l-66 193h-295zM436 353q-60 178 -92 283h-2q-53 -173 -91 -283l-19 -56h223z" />
    <glyph glyph-name="B" unicode="B" horiz-adv-x="638" 
d="M519.5 663q62.5 -49 62.5 -133q0 -121 -121 -166v-2q137 -32 137 -167q0 -90 -65 -142.5t-180 -52.5h-265v712h245q124 0 186.5 -49zM208 410h118q73 0 106.5 25.5t33.5 76.5t-32 76t-102 25h-124v-203zM208 100h127q73 0 107 26t34 80t-35.5 81t-113.5 27h-119v-214z
" />
    <glyph glyph-name="C" unicode="C" horiz-adv-x="695" 
d="M508.5 694q64.5 -33 100 -91.5t39.5 -134.5h-121q-8 71 -52.5 111.5t-115.5 40.5q-91 0 -143 -70.5t-52 -193.5t51.5 -193.5t140.5 -70.5q71 0 116.5 41t55.5 114h123q-11 -123 -89 -192.5t-206 -69.5q-97 0 -168.5 45t-109.5 128.5t-38 197.5t38.5 197.5t110.5 128.5
t170 45q85 0 149.5 -33z" />
    <glyph glyph-name="D" unicode="D" horiz-adv-x="729" 
d="M592 619.5q97 -92.5 97 -263.5t-97 -263.5t-276 -92.5h-228v712h228q179 0 276 -92.5zM207 104h107q124 0 187.5 63.5t63.5 188.5t-63.5 188.5t-187.5 63.5h-107v-504z" />
    <glyph glyph-name="E" unicode="E" horiz-adv-x="625" 
d="M208 608v-193h334v-103h-334v-208h366v-104h-486v712h476v-104h-356z" />
    <glyph glyph-name="F" unicode="F" horiz-adv-x="579" 
d="M208 608v-219h317v-103h-317v-286h-120v712h461v-104h-341z" />
    <glyph glyph-name="G" unicode="G" horiz-adv-x="737" 
d="M572.5 664q76.5 -63 87.5 -170h-128q-11 61 -52.5 93.5t-109.5 32.5q-95 0 -150.5 -71.5t-55.5 -195.5q0 -125 54 -197t147 -72q84 0 132 50t49 151h-182v100h294v-385h-103v88h-2q-29 -47 -85.5 -74t-129.5 -27q-91 0 -158 44t-103.5 126.5t-36.5 195.5q0 115 40 199.5
t114.5 129.5t175.5 45q126 0 202.5 -63z" />
    <glyph glyph-name="H" unicode="H" horiz-adv-x="744" 
d="M536 0v318h-328v-318h-120v712h120v-290h328v290h119v-712h-119z" />
    <glyph glyph-name="I" unicode="I" horiz-adv-x="296" 
d="M88 0v712h120v-712h-120z" />
    <glyph glyph-name="J" unicode="J" horiz-adv-x="374" 
d="M237.5 48.5q-53.5 -54.5 -165.5 -54.5q-31 0 -57 7v103q21 -4 45 -4q58 0 84.5 30t26.5 107v475h120v-496q0 -113 -53.5 -167.5z" />
    <glyph glyph-name="K" unicode="K" horiz-adv-x="644" 
d="M640 0h-155l-275 343h-2v-343h-120v712h120v-317h2l260 317h144l-291 -339z" />
    <glyph glyph-name="L" unicode="L" horiz-adv-x="568" 
d="M558 104v-104h-470v712h120v-608h350z" />
    <glyph glyph-name="M" unicode="M" horiz-adv-x="959" 
d="M755 0v358q0 150 4 270h-2q-35 -117 -86 -268l-123 -360h-137l-123 360q-51 151 -86 268h-2q4 -120 4 -270v-358h-116v712h193l115 -339q47 -137 82 -268h2q39 139 83 268l115 339h193v-712h-116z" />
    <glyph glyph-name="N" unicode="N" horiz-adv-x="766" 
d="M505 0l-154 298q-81 158 -151 306h-2q6 -162 6 -324v-280h-116v712h173l153 -298q81 -158 151 -306h2q-5 180 -5 324v280h115v-712h-172z" />
    <glyph glyph-name="O" unicode="O" horiz-adv-x="740" 
d="M545.5 682q74.5 -45 114.5 -128.5t40 -197.5t-40 -197.5t-114.5 -128.5t-175.5 -45t-175.5 45t-114.5 128.5t-40 197.5t40 197.5t114.5 128.5t175.5 45t175.5 -45zM219.5 549q-55.5 -71 -55.5 -193t55.5 -193t150.5 -71t150.5 71t55.5 193t-55.5 193t-150.5 71
t-150.5 -71z" />
    <glyph glyph-name="P" unicode="P" horiz-adv-x="626" 
d="M534 652q66 -60 66 -162q0 -103 -66 -163t-189 -60h-137v-267h-120v712h257q123 0 189 -60zM208 368h123q74 0 110 31.5t36 90.5q0 58 -36 89.5t-110 31.5h-123v-243z" />
    <glyph glyph-name="Q" unicode="Q" horiz-adv-x="740" 
d="M677.5 203.5q-22.5 -68.5 -64.5 -116.5l80 -89l-67 -63l-84 92q-75 -42 -171 -42q-101 0 -176 45t-115 128.5t-40 197.5t40 197.5t115 128.5t176 45t175 -45t114 -128.5t40 -197.5q0 -84 -22.5 -152.5zM467 109l-97 107l69 64l96 -107q45 70 45 180q0 123 -55.5 195
t-151.5 72q-97 0 -153 -72t-56 -195t56 -194.5t153 -71.5q52 0 94 22z" />
    <glyph glyph-name="R" unicode="R" horiz-adv-x="653" 
d="M524 661q63 -51 63 -146q0 -67 -35.5 -114t-96.5 -62v-2q38 -13 60 -41t46 -95l73 -201h-131l-60 179q-21 61 -49.5 84t-82.5 23h-103v-286h-120v712h245q128 0 191 -51zM208 384h119q71 0 105 31t34 85q0 113 -146 113h-112v-229z" />
    <glyph glyph-name="S" unicode="S" horiz-adv-x="620" 
d="M490.5 667.5q66.5 -59.5 66.5 -174.5h-121q0 67 -37 101.5t-106 34.5q-58 0 -91.5 -25.5t-33.5 -69.5q0 -32 16.5 -51.5t50 -33t96.5 -28.5q82 -20 132.5 -41.5t82 -63.5t31.5 -113q0 -65 -33 -114.5t-93.5 -76.5t-139.5 -27q-131 0 -204 64.5t-73 185.5h123
q0 -75 40 -113t115 -38q66 0 103.5 29t37.5 79q0 35 -17 55t-48.5 32t-95.5 28q-84 21 -134 42t-81.5 62.5t-31.5 111.5q0 60 31 106.5t87.5 72t131.5 25.5q129 0 195.5 -59.5z" />
    <glyph glyph-name="T" unicode="T" horiz-adv-x="607" 
d="M363 608v-608h-119v608h-234v104h587v-104h-234z" />
    <glyph glyph-name="U" unicode="U" horiz-adv-x="712" 
d="M558.5 58q-70.5 -73 -202.5 -73t-203 73t-71 211v443h120v-439q0 -89 40 -135t114 -46t114 46t40 135v439h119v-443q0 -138 -70.5 -211z" />
    <glyph glyph-name="V" unicode="V" horiz-adv-x="631" 
d="M240 0l-234 712h123l97 -297q43 -128 89 -298h2q36 137 88 298l97 297h123l-233 -712h-152z" />
    <glyph glyph-name="W" unicode="W" horiz-adv-x="936" 
d="M608 0l-71 296q-40 168 -68 313h-2q-28 -145 -68 -313l-71 -296h-161l-157 712h118l58 -274q39 -180 63 -321h2q37 176 72 322l66 273h158l66 -273q35 -146 72 -322h2q21 122 62 321l59 274h118l-157 -712h-161z" />
    <glyph glyph-name="X" unicode="X" horiz-adv-x="626" 
d="M620 0h-140l-166 272h-2l-166 -272h-141l235 364l-223 348h139l156 -261h2l156 261h138l-222 -348z" />
    <glyph glyph-name="Y" unicode="Y" horiz-adv-x="626" 
d="M373 0h-120v286l-250 426h136l78 -141q50 -90 95 -184h2q48 100 96 184l77 141h135l-249 -426v-286z" />
    <glyph glyph-name="Z" unicode="Z" horiz-adv-x="574" 
d="M161 104v-2h394v-102h-536v109l376 499v2h-362v102h504v-109z" />
    <glyph glyph-name="bracketleft" unicode="[" horiz-adv-x="313" 
d="M181 671v-750h115v-70h-223v890h223v-70h-115z" />
    <glyph glyph-name="backslash" unicode="\" horiz-adv-x="473" 
d="M443 -89h-94l-298 834h94z" />
    <glyph glyph-name="bracketright" unicode="]" horiz-adv-x="313" 
d="M240 -149h-223v70h115v750h-115v70h223v-890z" />
    <glyph glyph-name="asciicircum" unicode="^" horiz-adv-x="473" 
d="M357 371l-120 251h-2l-120 -251h-105l166 341h121l166 -341h-106z" />
    <glyph glyph-name="underscore" unicode="_" horiz-adv-x="500" 
d="M0 -113v63h500v-63h-500z" />
    <glyph glyph-name="grave" unicode="`" horiz-adv-x="325" 
d="M275 568h-93l-132 144h143z" />
    <glyph glyph-name="a" unicode="a" horiz-adv-x="539" 
d="M418.5 473q53.5 -50 53.5 -149v-190q0 -82 13 -134h-103q-7 31 -7 71h-2q-56 -82 -171 -82q-78 0 -125 42.5t-47 108.5q0 65 44.5 104t150.5 56q64 11 137 15v20q0 54 -26.5 79.5t-72.5 25.5t-72 -24t-28 -65h-112q4 76 58.5 124t153.5 48q102 0 155.5 -50zM245 228
q-55 -9 -77.5 -27t-22.5 -53q0 -34 23.5 -54.5t66.5 -20.5q27 0 51 8.5t41 25.5q20 21 27.5 44.5t7.5 64.5v25q-65 -4 -117 -13z" />
    <glyph glyph-name="b" unicode="b" horiz-adv-x="587" 
d="M189 442q22 37 61.5 58t87.5 21q64 0 111.5 -33t73.5 -93.5t26 -140.5t-26 -140.5t-74 -93t-112 -32.5q-48 0 -88.5 21.5t-62.5 60.5h-2v-70h-111v712h114v-270h2zM214.5 384.5q-33.5 -47.5 -33.5 -130.5q0 -82 33.5 -130t89.5 -48q58 0 92 48.5t34 129.5t-34 129.5
t-92 48.5q-56 0 -89.5 -47.5z" />
    <glyph glyph-name="c" unicode="c" horiz-adv-x="548" 
d="M399 497.5q50 -25.5 80 -70.5t35 -103h-119q-4 50 -34 79.5t-76 29.5q-60 0 -93.5 -47.5t-33.5 -131.5t33.5 -131.5t93.5 -47.5q46 0 75.5 33t33.5 85h120q-8 -93 -70 -150.5t-159 -57.5q-74 0 -130 33t-86.5 93.5t-30.5 142.5t30.5 142.5t86.5 93.5t130 33
q64 0 114 -25.5z" />
    <glyph glyph-name="d" unicode="d" horiz-adv-x="587" 
d="M403 0v70h-2q-22 -39 -62.5 -60.5t-88.5 -21.5q-64 0 -112 32.5t-74 93t-26 140.5t26 140.5t73.5 93.5t111.5 33q48 0 87.5 -21t61.5 -58h2v270h114v-712h-111zM191 383.5q-34 -48.5 -34 -129.5t34 -129.5t92 -48.5q56 0 89.5 48t33.5 130q0 83 -33.5 130.5t-89.5 47.5
q-58 0 -92 -48.5z" />
    <glyph glyph-name="e" unicode="e" horiz-adv-x="562" 
d="M362.5 92q30.5 23 38.5 61h117q-15 -72 -77 -120t-157 -48q-76 0 -131.5 34.5t-85 96.5t-29.5 144q0 75 29 135t84.5 94t130.5 34q86 0 146.5 -46.5t81.5 -126.5q14 -45 14 -119h-373q3 -82 39.5 -122t93.5 -40q48 0 78.5 23zM194.5 405q-34.5 -34 -41.5 -99h257
q-6 65 -40.5 99t-87.5 34t-87.5 -34z" />
    <glyph glyph-name="f" unicode="f" horiz-adv-x="323" 
d="M229 612.5q-18 -19.5 -18 -63.5v-41h98v-87h-98v-421h-113v421h-86v87h86v54q0 78 39 117.5t115 39.5q25 0 60 -7v-84q-14 4 -28 4q-37 0 -55 -19.5z" />
    <glyph glyph-name="g" unicode="g" horiz-adv-x="582" 
d="M334 501.5q36 -20.5 65 -64.5h2v71h108v-476q0 -112 -60.5 -168.5t-170.5 -56.5q-101 0 -157.5 42.5t-60.5 118.5h114q2 -37 30 -57t76 -20q59 0 88.5 34t29.5 111v50h-2q-28 -41 -64 -60.5t-83 -19.5q-64 0 -111.5 31.5t-73.5 90t-26 136.5t26 136.5t74.5 90t112.5 31.5
q47 0 83 -20.5zM189.5 383q-32.5 -44 -32.5 -119t32.5 -119.5t87.5 -44.5q58 0 91.5 44.5t33.5 119.5t-33.5 119t-91.5 44q-55 0 -87.5 -44z" />
    <glyph glyph-name="h" unicode="h" 
d="M189 448q26 36 64 54t82 18q88 0 136.5 -53t48.5 -156v-311h-114v301q0 127 -103 127q-51 0 -83.5 -38t-32.5 -108v-282h-114v712h114v-264h2z" />
    <glyph glyph-name="i" unicode="i" horiz-adv-x="260" 
d="M73 0v508h114v-508h-114zM73 603v109h114v-109h-114z" />
    <glyph glyph-name="j" unicode="j" horiz-adv-x="264" 
d="M148.5 -149q-42.5 -41 -117.5 -41q-26 0 -58 7v85q13 -3 28 -3q39 0 57.5 21.5t18.5 74.5v513h114v-528q0 -88 -42.5 -129zM77 603v109h114v-109h-114z" />
    <glyph glyph-name="k" unicode="k" horiz-adv-x="522" 
d="M387 0l-198 246h-2v-246h-114v712h114v-412h2l185 208h133l-210 -232l234 -276h-144z" />
    <glyph glyph-name="l" unicode="l" horiz-adv-x="260" 
d="M73 0v712h114v-712h-114z" />
    <glyph glyph-name="m" unicode="m" horiz-adv-x="880" 
d="M766 467q46 -53 46 -154v-313h-114v302q0 126 -92 126q-50 0 -78.5 -40.5t-28.5 -113.5v-274h-114v314q0 54 -23.5 84t-67.5 30q-51 0 -79 -41t-28 -115v-272h-114v508h109v-61h2q27 37 61.5 55t79.5 18q53 0 92 -23.5t58 -68.5q29 45 68 68.5t95 23.5q82 0 128 -53z" />
    <glyph glyph-name="n" unicode="n" 
d="M471.5 467q48.5 -53 48.5 -156v-311h-114v301q0 127 -103 127q-51 0 -83.5 -38t-32.5 -108v-282h-114v508h108v-66h2q25 36 64 57t88 21q88 0 136.5 -53z" />
    <glyph glyph-name="o" unicode="o" horiz-adv-x="577" 
d="M421.5 490q56.5 -33 87 -93.5t30.5 -142.5t-30.5 -142.5t-87 -93.5t-132.5 -33t-133 33t-87.5 93.5t-30.5 142.5t30.5 142.5t87.5 93.5t133 33t132.5 -33zM193 385q-35 -48 -35 -131t35 -131t96 -48t96 48t35 131t-35 131t-96 48t-96 -48z" />
    <glyph glyph-name="p" unicode="p" horiz-adv-x="587" 
d="M449 488q48 -33 74 -93.5t26 -140.5t-26 -140.5t-73.5 -93t-111.5 -32.5q-48 0 -87.5 20.5t-61.5 57.5h-2v-251h-114v693h111v-70h2q22 39 62.5 61t88.5 22q64 0 112 -33zM214.5 384.5q-33.5 -47.5 -33.5 -130.5q0 -82 33.5 -130t89.5 -48q58 0 92 48.5t34 129.5
t-34 129.5t-92 48.5q-56 0 -89.5 -47.5z" />
    <glyph glyph-name="q" unicode="q" horiz-adv-x="587" 
d="M338.5 499q40.5 -22 62.5 -61h2v70h111v-693h-114v251h-2q-22 -37 -61.5 -57.5t-87.5 -20.5q-64 0 -111.5 32.5t-73.5 93t-26 140.5t26 140.5t74 93.5t112 33q48 0 88.5 -22zM191 383.5q-34 -48.5 -34 -129.5t34 -129.5t92 -48.5q56 0 89.5 48t33.5 130q0 83 -33.5 130.5
t-89.5 47.5q-58 0 -92 -48.5z" />
    <glyph glyph-name="r" unicode="r" horiz-adv-x="377" 
d="M368 510v-101q-19 4 -40 4q-68 0 -104.5 -42.5t-36.5 -121.5v-249h-114v508h106v-75h2q51 82 145 82q20 0 42 -5z" />
    <glyph glyph-name="s" unicode="s" horiz-adv-x="509" 
d="M399.5 478.5q53.5 -44.5 54.5 -128.5h-110q0 45 -25 67.5t-72 22.5q-40 0 -62 -16t-22 -44q0 -21 11.5 -33.5t33.5 -20t70 -19.5q66 -17 102.5 -31.5t63 -47t26.5 -88.5q0 -70 -58 -112.5t-155 -42.5q-104 0 -161.5 46.5t-58.5 135.5h116q0 -47 27.5 -72t78.5 -25
q43 0 67.5 17t24.5 46q0 25 -13 39.5t-37.5 23t-77.5 21.5q-59 15 -92.5 28t-57.5 43t-24 83q0 45 25 79.5t70 53.5t104 19q98 0 151.5 -44.5z" />
    <glyph glyph-name="t" unicode="t" horiz-adv-x="339" 
d="M312 92v-89q-31 -9 -64 -9q-81 0 -117.5 36.5t-36.5 119.5v271h-85v87h85v127h114v-127h99v-87h-99v-254q0 -43 16 -61.5t53 -18.5q22 0 35 5z" />
    <glyph glyph-name="u" unicode="u" 
d="M116.5 41q-48.5 53 -48.5 156v311h114v-301q0 -127 103 -127q51 0 83.5 38t32.5 108v282h114v-508h-108v66h-2q-25 -36 -64 -57t-88 -21q-88 0 -136.5 53z" />
    <glyph glyph-name="v" unicode="v" horiz-adv-x="490" 
d="M171 0l-177 508h119l66 -207q33 -101 65 -222h2q32 121 65 222l66 207h119l-177 -508h-148z" />
    <glyph glyph-name="w" unicode="w" horiz-adv-x="790" 
d="M497 0l-52 210q-24 97 -49 219h-2q-25 -122 -49 -219l-52 -210h-163l-124 508h114l46 -204q28 -120 46 -225h2q19 93 50 221l51 208h160l51 -208q31 -128 50 -221h2q18 105 46 225l46 204h114l-124 -508h-163z" />
    <glyph glyph-name="x" unicode="x" horiz-adv-x="494" 
d="M498 0h-134l-116 188h-2l-116 -188h-134l181 263l-168 245h133l104 -165h2l104 165h133l-168 -245z" />
    <glyph glyph-name="y" unicode="y" horiz-adv-x="488" 
d="M245 -123q-29 -36 -69 -51.5t-100 -15.5q-31 0 -57 7v93q23 -7 48 -7q46 0 70.5 20t42.5 73l-186 512h122l127 -378h2l131 378h118l-196 -530q-24 -65 -53 -101z" />
    <glyph glyph-name="z" unicode="z" horiz-adv-x="476" 
d="M165 93v-2h284v-91h-422v95l274 320v2h-264v91h402v-95z" />
    <glyph glyph-name="braceleft" unicode="{" horiz-adv-x="320" 
d="M230 650q-19 -21 -19 -72v-154q0 -54 -20.5 -84t-68.5 -43v-3q48 -14 68.5 -43.5t20.5 -84.5v-153q0 -52 19 -73t65 -22v-69h-23q-90 0 -128 40t-38 130v145q0 44 -14.5 64t-51.5 30v74q38 11 52 31.5t14 63.5v145q0 90 38 129.5t128 39.5h23v-68q-46 -2 -65 -23z" />
    <glyph glyph-name="bar" unicode="|" horiz-adv-x="283" 
d="M90 -205v937h103v-937h-103z" />
    <glyph glyph-name="braceright" unicode="}" horiz-adv-x="320" 
d="M175.5 701.5q37.5 -39.5 37.5 -129.5v-145q0 -43 14.5 -63.5t52.5 -31.5v-74q-38 -10 -52.5 -30.5t-14.5 -63.5v-145q0 -90 -37.5 -130t-127.5 -40h-24v69q46 1 65 22t19 73v153q0 54 21 84t68 44v3q-47 14 -68 43.5t-21 83.5v154q0 51 -19 72t-65 23v68h24
q90 0 127.5 -39.5z" />
    <glyph glyph-name="asciitilde" unicode="~" horiz-adv-x="589" 
d="M248.5 399q29.5 -15 67.5 -44q31 -23 51 -34t42 -11q35 0 56.5 26t21.5 69h77q0 -55 -20 -97.5t-55.5 -65.5t-80.5 -23q-38 0 -67 15t-69 44q-31 23 -51 34t-42 11q-35 0 -56.5 -25.5t-21.5 -68.5h-76q0 83 43.5 134t112.5 51q38 0 67.5 -15z" />
    <glyph glyph-name="uni00A0" unicode="&#xa0;" horiz-adv-x="230" 
 />
    <glyph glyph-name="exclamdown" unicode="&#xa1;" horiz-adv-x="300" 
d="M214 508v-119h-129v119h129zM194 321l26 -525h-141l26 525h89z" />
    <glyph glyph-name="cent" unicode="&#xa2;" horiz-adv-x="581" 
d="M386 200q20 30 23 72h120q-8 -85 -60 -140.5t-135 -65.5v-91h-72v91q-97 12 -153 83t-56 184q0 112 56 183t153 84v89h72v-89q82 -10 134.5 -64t60.5 -134h-119q-4 40 -24 67t-52 38v-347q32 10 52 40zM195.5 219q23.5 -45 66.5 -59v346q-43 -14 -66.5 -59t-23.5 -114
t23.5 -114z" />
    <glyph glyph-name="sterling" unicode="&#xa3;" horiz-adv-x="581" 
d="M542 96v-96h-518v97q47 0 70 31t23 102v55h-93v97h93v78q0 114 56.5 171.5t164.5 57.5q98 0 154 -56.5t56 -154.5h-115q0 54 -25 82.5t-70 28.5q-50 0 -76 -32.5t-26 -96.5v-78h124v-97h-124v-54q0 -54 -13 -83.5t-44 -49.5v-2h363z" />
    <glyph glyph-name="currency" unicode="&#xa4;" horiz-adv-x="581" 
d="M474 168l74 -78l-73 -68l-73 79q-47 -27 -111 -27q-63 0 -112 26l-73 -78l-72 68l73 78q-33 53 -33 123t33 123l-73 78l72 68l73 -78q49 26 112 26q64 0 111 -27l73 79l73 -68l-74 -78q33 -53 33 -123t-33 -123zM378.5 199q32.5 35 32.5 92t-32.5 92t-87.5 35t-88 -35
t-33 -92t33 -92t88 -35t87.5 35z" />
    <glyph glyph-name="yen" unicode="&#xa5;" horiz-adv-x="581" 
d="M517 354v-65h-166v-48h166v-64h-166v-177h-121v177h-166v64h166v48h-166v65h129l-182 320h134l53 -99q50 -96 92 -185h2q37 83 91 185l53 99h134l-182 -320h129z" />
    <glyph glyph-name="brokenbar" unicode="&#xa6;" horiz-adv-x="283" 
d="M90 382v350h103v-350h-103zM90 -205v350h103v-350h-103z" />
    <glyph glyph-name="section" unicode="&#xa7;" horiz-adv-x="612" 
d="M451.5 682q52.5 -45 56.5 -134h-115q-2 42 -24.5 63.5t-65.5 21.5q-36 0 -57.5 -17t-21.5 -47q0 -24 9.5 -37.5t33 -25.5t81.5 -35q74 -30 114.5 -54t63 -59.5t22.5 -90.5q0 -92 -86 -146v-2q48 -37 48 -108q0 -77 -55.5 -120.5t-149.5 -43.5q-101 0 -158 45.5t-59 135.5
h115q6 -87 100 -87q40 0 64 18.5t24 51.5q0 25 -12.5 41t-40 30.5t-93.5 43.5q-64 28 -101 51.5t-58.5 57t-21.5 84.5q0 45 22 83t64 63v2q-45 37 -45 100q0 72 55.5 116t142.5 44q96 0 148.5 -45zM175 336q0 -38 25.5 -64t98.5 -58q36 -14 92 -43q22 13 34.5 35t12.5 48
q0 36 -24.5 62t-93.5 55q-49 20 -99 44q-46 -30 -46 -79z" />
    <glyph glyph-name="dieresis" unicode="&#xa8;" horiz-adv-x="408" 
d="M50 603v109h102v-109h-102zM256 603v109h102v-109h-102z" />
    <glyph glyph-name="copyright" unicode="&#xa9;" horiz-adv-x="806" 
d="M591.5 679q81.5 -46 126 -130t44.5 -193t-44.5 -193t-126 -130t-188.5 -46q-106 0 -187.5 46t-126.5 130t-45 193t45 193t126.5 130t187.5 46q107 0 188.5 -46zM241 634.5q-70 -39.5 -108.5 -111.5t-38.5 -167t38.5 -167t108.5 -111.5t162 -39.5t162.5 39.5t109 111.5
t38.5 167t-38.5 167t-109 111.5t-162.5 39.5t-162 -39.5zM539.5 546.5q50.5 -46.5 54.5 -122.5h-85q-4 44 -31.5 70.5t-72.5 26.5q-55 0 -87 -44.5t-32 -121.5q0 -76 31.5 -120t85.5 -44q45 0 74 27t34 73h86q-7 -80 -59 -126t-135 -46q-94 0 -148.5 63t-54.5 173
q0 111 55 174.5t150 63.5q84 0 134.5 -46.5z" />
    <glyph glyph-name="ordfeminine" unicode="&#xaa;" horiz-adv-x="402" 
d="M314 660q40 -36 40 -106v-126q0 -58 10 -98h-88q-6 23 -6 48h-1q-41 -56 -122 -56q-58 0 -92 30t-34 78q0 47 33 74t112 39q64 9 93 10v14q0 65 -63 65q-30 0 -46.5 -15t-17.5 -42h-96q3 53 43.5 87t116.5 34q78 0 118 -36zM183 487q-35 -6 -49.5 -18t-14.5 -33
q0 -22 15 -35t42 -13q39 0 60 22q14 13 18.5 28t4.5 42v16q-33 -2 -76 -9z" />
    <glyph glyph-name="guillemotleft" unicode="&#xab;" horiz-adv-x="498" 
d="M452 54h-102l-114 200l114 200h102l-109 -200zM262 54h-102l-114 200l114 200h102l-109 -200z" />
    <glyph glyph-name="logicalnot" unicode="&#xac;" horiz-adv-x="566" 
d="M408 136v230h-341v92h432v-322h-91z" />
    <glyph glyph-name="uni00AD" unicode="&#xad;" horiz-adv-x="310" 
d="M30 245v94h250v-94h-250z" />
    <glyph glyph-name="registered" unicode="&#xae;" horiz-adv-x="589" 
d="M425.5 695q56.5 -32 87.5 -90.5t31 -134.5t-31 -134t-87.5 -90t-130.5 -32t-131 32t-88 90t-31 134t31 134.5t88 90.5t131 32t130.5 -32zM182.5 664.5q-48.5 -27.5 -75.5 -78t-27 -116.5t27 -116.5t75.5 -78t112.5 -27.5t112.5 27.5t75.5 78t27 116.5t-27 116.5t-75.5 78
t-112.5 27.5t-112.5 -27.5zM382.5 609q27.5 -24 27.5 -67q0 -27 -15.5 -48.5t-41.5 -28.5v-2q16 -4 25.5 -15.5t19.5 -37.5l33 -94h-65l-27 79q-7 24 -20.5 34t-37.5 10h-41v-123h-61v317h122q54 0 81.5 -24zM240 489h46q63 0 63 49q0 21 -15 32.5t-45 11.5h-49v-93z" />
    <glyph glyph-name="macron" unicode="&#xaf;" horiz-adv-x="405" 
d="M50 607v78h305v-78h-305z" />
    <glyph glyph-name="degree" unicode="&#xb0;" horiz-adv-x="329" 
d="M228.5 705q29.5 -17 46.5 -46.5t17 -64.5q0 -34 -17 -63.5t-46.5 -46.5t-63.5 -17q-35 0 -64.5 17t-46.5 46.5t-17 63.5q0 53 37.5 90.5t90.5 37.5q34 0 63.5 -17zM118 641q-19 -19 -19 -47q0 -27 19 -46t47 -19q27 0 46.5 19t19.5 46q0 28 -19.5 47t-46.5 19
q-28 0 -47 -19z" />
    <glyph glyph-name="plusminus" unicode="&#xb1;" horiz-adv-x="566" 
d="M499 396v-91h-171v-164h-90v164h-171v91h171v163h90v-163h171zM67 0v91h432v-91h-432z" />
    <glyph glyph-name="twosuperior" unicode="&#xb2;" horiz-adv-x="439" 
d="M346 774.5q47 -38.5 47 -99.5q0 -57 -33 -92.5t-98 -69.5q-65 -33 -86.5 -54t-22.5 -46h252v-83h-367q-2 6 -2 20q0 50 12 85.5t43 66t87 61.5q60 32 85 54.5t25 56.5q0 26 -18 42t-49 16q-73 0 -76 -77h-102q1 75 48.5 116.5t129.5 41.5q78 0 125 -38.5z" />
    <glyph glyph-name="threesuperior" unicode="&#xb3;" horiz-adv-x="433" 
d="M344 777q47 -36 47 -97q0 -39 -20 -64t-64 -42v-2q47 -16 69 -43t22 -71q0 -63 -49.5 -101t-131.5 -38q-90 0 -138.5 42.5t-48.5 119.5h103q0 -81 84 -81q35 0 56.5 17t21.5 45q0 67 -98 67h-15v78h17q42 0 66.5 17t24.5 47q0 28 -20.5 44.5t-55.5 16.5q-77 0 -77 -78
h-101q0 75 47.5 117t132.5 42q81 0 128 -36z" />
    <glyph glyph-name="acute" unicode="&#xb4;" horiz-adv-x="325" 
d="M50 568l81 144h144l-132 -144h-93z" />
    <glyph glyph-name="mu" unicode="&#xb5;" horiz-adv-x="598" 
d="M527.5 99.5q10.5 -15.5 34.5 -15.5q12 0 24 3v-84q-29 -10 -72 -10q-45 0 -69.5 20t-32.5 61h-2q-16 -38 -51 -59.5t-81 -21.5q-30 0 -53.5 8.5t-37.5 23.5v-210h-114v693h114v-300q0 -128 100 -128q51 0 83.5 38.5t32.5 108.5v281h114v-352q0 -41 10.5 -56.5z" />
    <glyph glyph-name="paragraph" unicode="&#xb6;" horiz-adv-x="622" 
d="M519 633v-753h-85v753h-84v-753h-85v419h-28q-91 0 -144 55.5t-53 150.5t53 151t144 56h362v-79h-80z" />
    <glyph glyph-name="periodcentered" unicode="&#xb7;" horiz-adv-x="242" 
d="M55 235v141h132v-141h-132z" />
    <glyph glyph-name="cedilla" unicode="&#xb8;" horiz-adv-x="326" 
d="M193 -58q35 0 59 -20t24 -54q0 -39 -30.5 -65t-86.5 -26q-57 0 -109 29l20 40q39 -21 79 -21q25 0 39 10t14 28t-13.5 29t-37.5 11q-17 0 -32 -6l-19 21l52 82h51l-39 -62q9 4 29 4z" />
    <glyph glyph-name="onesuperior" unicode="&#xb9;" horiz-adv-x="300" 
d="M131 330v317h-120v74q64 0 95 19t38 62h89v-472h-102z" />
    <glyph glyph-name="ordmasculine" unicode="&#xba;" horiz-adv-x="427" 
d="M349.5 645q50.5 -51 50.5 -137q0 -87 -50 -138t-136 -51t-136.5 51t-50.5 138q0 86 50.5 137t136.5 51q85 0 135.5 -51zM152.5 590q-22.5 -30 -22.5 -82t22.5 -82.5t61.5 -30.5t61 30t22 83t-22 82.5t-61 29.5t-61.5 -30z" />
    <glyph glyph-name="guillemotright" unicode="&#xbb;" horiz-adv-x="498" 
d="M262 254l-114 -200h-102l109 200l-109 200h102zM452 254l-114 -200h-102l109 200l-109 200h102z" />
    <glyph glyph-name="onequarter" unicode="&#xbc;" horiz-adv-x="761" 
d="M108 270v265h-99v69q49 0 75.5 17t34.5 53h85v-404h-96zM102 0l377 674h82l-376 -674h-83zM685 88v-88h-93v88h-197v77l167 239h123v-242h67v-74h-67zM596 162v46q0 65 3 128h-1q-40 -65 -78 -118l-40 -56h116z" />
    <glyph glyph-name="onehalf" unicode="&#xbd;" horiz-adv-x="792" 
d="M108 270v265h-99v69q49 0 75.5 17t34.5 53h85v-404h-96zM102 0l377 674h82l-376 -674h-83zM711 380.5q41 -33.5 41 -86.5q0 -49 -29.5 -81t-84.5 -58q-54 -26 -72.5 -42.5t-20.5 -36.5h219v-76h-326q-1 6 -1 19q0 65 26 105.5t98 78.5q53 28 74 45.5t21 46.5
q0 20 -15 32.5t-40 12.5q-60 0 -62 -64h-95q1 65 42.5 101.5t114.5 36.5q69 0 110 -33.5z" />
    <glyph glyph-name="threequarters" unicode="&#xbe;" horiz-adv-x="885" 
d="M304 652.5q42 -31.5 42 -83.5q0 -33 -17 -54.5t-55 -35.5v-1q41 -13 59 -36.5t18 -62.5q0 -55 -43 -87t-116 -32q-79 0 -122.5 36.5t-43.5 103.5h95q0 -65 71 -65q29 0 47 13.5t18 35.5q0 26 -20.5 40t-60.5 14h-14v71h13q35 0 56 14.5t21 39.5q0 21 -16.5 34t-45.5 13
q-66 0 -66 -62h-93q0 64 42.5 100t116.5 36q72 0 114 -31.5zM226 0l377 674h82l-376 -674h-83zM809 88v-88h-93v88h-197v77l167 239h123v-242h67v-74h-67zM720 162v46q0 65 3 128h-1q-40 -65 -78 -118l-40 -56h116z" />
    <glyph glyph-name="questiondown" unicode="&#xbf;" horiz-adv-x="500" 
d="M345 508v-119h-129v119h129zM99 -168.5q-61 49.5 -61 133.5q0 36 8.5 62t30 52.5t64.5 62.5q39 33 57.5 57t25 53t6.5 80h99v-31q0 -52 -8 -84.5t-28 -60.5t-62 -65q-46 -41 -59.5 -64.5t-13.5 -58.5q0 -39 28 -62.5t77 -23.5q112 0 118 115h119q-4 -106 -65 -160.5
t-172 -54.5q-103 0 -164 49.5z" />
    <glyph glyph-name="Agrave" unicode="&#xc0;" horiz-adv-x="687" 
d="M196 193l-66 -193h-126l259 712h161l259 -712h-126l-66 193h-295zM436 353q-60 178 -92 283h-2q-53 -173 -91 -283l-19 -56h223zM420 760h-93l-132 142h143z" />
    <glyph glyph-name="Aacute" unicode="&#xc1;" horiz-adv-x="687" 
d="M196 193l-66 -193h-126l259 712h161l259 -712h-126l-66 193h-295zM436 353q-60 178 -92 283h-2q-53 -173 -91 -283l-19 -56h223zM267 760l81 142h144l-132 -142h-93z" />
    <glyph glyph-name="Acircumflex" unicode="&#xc2;" horiz-adv-x="687" 
d="M196 193l-66 -193h-126l259 712h161l259 -712h-126l-66 193h-295zM436 353q-60 178 -92 283h-2q-53 -173 -91 -283l-19 -56h223zM405 902l114 -142h-108l-68 82l-67 -82h-108l114 142h123z" />
    <glyph glyph-name="Atilde" unicode="&#xc3;" horiz-adv-x="687" 
d="M196 193l-66 -193h-126l259 712h161l259 -712h-126l-66 193h-295zM436 353q-60 178 -92 283h-2q-53 -173 -91 -283l-19 -56h223zM491.5 807q-28.5 -33 -77.5 -33q-22 0 -39.5 7t-42.5 21q-19 11 -30.5 16t-24.5 5q-40 0 -46 -49h-68q3 59 32 92t78 33q23 0 41 -7.5
t41 -20.5q21 -11 31.5 -15.5t22.5 -4.5q42 0 46 48h68q-3 -59 -31.5 -92z" />
    <glyph glyph-name="Adieresis" unicode="&#xc4;" horiz-adv-x="687" 
d="M196 193l-66 -193h-126l259 712h161l259 -712h-126l-66 193h-295zM436 353q-60 178 -92 283h-2q-53 -173 -91 -283l-19 -56h223zM189 772v109h102v-109h-102zM395 772v109h102v-109h-102z" />
    <glyph glyph-name="Aring" unicode="&#xc5;" horiz-adv-x="687" 
d="M196 193l-66 -193h-126l259 712h161l259 -712h-126l-66 193h-295zM436 353q-60 178 -92 283h-2q-53 -173 -91 -283l-19 -56h223zM417 929q30 -30 30 -74q0 -43 -30 -73.5t-74 -30.5q-43 0 -73.5 30.5t-30.5 73.5q0 44 30.5 74t73.5 30q44 0 74 -30zM303.5 894.5
q-16.5 -16.5 -16.5 -39.5t16.5 -39.5t39.5 -16.5t39.5 16.5t16.5 39.5t-16.5 39.5t-39.5 16.5t-39.5 -16.5z" />
    <glyph glyph-name="AE" unicode="&#xc6;" horiz-adv-x="951" 
d="M900 0h-385l-30 202h-264l-92 -202h-135l340 712h556v-104h-348l28 -193h298v-103h-283l31 -208h284v-104zM425 614h-15l-142 -310h202z" />
    <glyph glyph-name="Ccedilla" unicode="&#xc7;" horiz-adv-x="695" 
d="M572 64q-69 -69 -184 -78l-30 -48q9 4 29 4q35 0 59 -20t24 -54q0 -39 -30.5 -65t-86.5 -26q-57 0 -109 29l20 40q39 -21 79 -21q25 0 39 10t14 28t-13.5 29t-37.5 11q-17 0 -32 -6l-19 21l43 67q-92 4 -159 50.5t-102.5 128.5t-35.5 192q0 114 38.5 197.5t110.5 128.5
t170 45q85 0 149.5 -33t100 -91.5t39.5 -134.5h-121q-8 71 -52.5 111.5t-115.5 40.5q-91 0 -143 -70.5t-52 -193.5t51.5 -193.5t140.5 -70.5q71 0 116.5 41t55.5 114h123q-10 -114 -79 -183z" />
    <glyph glyph-name="Egrave" unicode="&#xc8;" horiz-adv-x="625" 
d="M208 608v-193h334v-103h-334v-208h366v-104h-486v712h476v-104h-356zM402 760h-93l-132 142h143z" />
    <glyph glyph-name="Eacute" unicode="&#xc9;" horiz-adv-x="625" 
d="M208 608v-193h334v-103h-334v-208h366v-104h-486v712h476v-104h-356zM250 760l81 142h144l-132 -142h-93z" />
    <glyph glyph-name="Ecircumflex" unicode="&#xca;" horiz-adv-x="625" 
d="M208 608v-193h334v-103h-334v-208h366v-104h-486v712h476v-104h-356zM387 902l114 -142h-108l-68 82l-67 -82h-108l114 142h123z" />
    <glyph glyph-name="Edieresis" unicode="&#xcb;" horiz-adv-x="625" 
d="M208 608v-193h334v-103h-334v-208h366v-104h-486v712h476v-104h-356zM172 772v109h102v-109h-102zM378 772v109h102v-109h-102z" />
    <glyph glyph-name="Igrave" unicode="&#xcc;" horiz-adv-x="296" 
d="M88 0v712h120v-712h-120zM225 760h-93l-132 142h143z" />
    <glyph glyph-name="Iacute" unicode="&#xcd;" horiz-adv-x="296" 
d="M88 0v712h120v-712h-120zM73 760l81 142h144l-132 -142h-93z" />
    <glyph glyph-name="Icircumflex" unicode="&#xce;" horiz-adv-x="296" 
d="M88 0v712h120v-712h-120zM210 902l114 -142h-108l-68 82l-67 -82h-108l114 142h123z" />
    <glyph glyph-name="Idieresis" unicode="&#xcf;" horiz-adv-x="296" 
d="M88 0v712h120v-712h-120zM-6 772v109h102v-109h-102zM200 772v109h102v-109h-102z" />
    <glyph glyph-name="Eth" unicode="&#xd0;" horiz-adv-x="729" 
d="M592 619.5q97 -92.5 97 -263.5t-97 -263.5t-276 -92.5h-228v316h-64v89h64v307h228q179 0 276 -92.5zM501.5 167.5q63.5 63.5 63.5 188.5t-63.5 188.5t-187.5 63.5h-107v-203h184v-89h-184v-212h107q124 0 187.5 63.5z" />
    <glyph glyph-name="Ntilde" unicode="&#xd1;" horiz-adv-x="766" 
d="M505 0l-154 298q-81 158 -151 306h-2q6 -162 6 -324v-280h-116v712h173l153 -298q81 -158 151 -306h2q-5 180 -5 324v280h115v-712h-172zM531.5 807q-28.5 -33 -77.5 -33q-22 0 -39.5 7t-42.5 21q-19 11 -30.5 16t-24.5 5q-40 0 -46 -49h-68q3 59 32 92t78 33
q23 0 41 -7.5t41 -20.5q21 -11 31.5 -15.5t22.5 -4.5q42 0 46 48h68q-3 -59 -31.5 -92z" />
    <glyph glyph-name="Ograve" unicode="&#xd2;" horiz-adv-x="740" 
d="M545.5 682q74.5 -45 114.5 -128.5t40 -197.5t-40 -197.5t-114.5 -128.5t-175.5 -45t-175.5 45t-114.5 128.5t-40 197.5t40 197.5t114.5 128.5t175.5 45t175.5 -45zM219.5 549q-55.5 -71 -55.5 -193t55.5 -193t150.5 -71t150.5 71t55.5 193t-55.5 193t-150.5 71
t-150.5 -71zM446 760h-93l-132 142h143z" />
    <glyph glyph-name="Oacute" unicode="&#xd3;" horiz-adv-x="740" 
d="M545.5 682q74.5 -45 114.5 -128.5t40 -197.5t-40 -197.5t-114.5 -128.5t-175.5 -45t-175.5 45t-114.5 128.5t-40 197.5t40 197.5t114.5 128.5t175.5 45t175.5 -45zM219.5 549q-55.5 -71 -55.5 -193t55.5 -193t150.5 -71t150.5 71t55.5 193t-55.5 193t-150.5 71
t-150.5 -71zM294 760l81 142h144l-132 -142h-93z" />
    <glyph glyph-name="Ocircumflex" unicode="&#xd4;" horiz-adv-x="740" 
d="M545.5 682q74.5 -45 114.5 -128.5t40 -197.5t-40 -197.5t-114.5 -128.5t-175.5 -45t-175.5 45t-114.5 128.5t-40 197.5t40 197.5t114.5 128.5t175.5 45t175.5 -45zM219.5 549q-55.5 -71 -55.5 -193t55.5 -193t150.5 -71t150.5 71t55.5 193t-55.5 193t-150.5 71
t-150.5 -71zM431 902l114 -142h-108l-68 82l-67 -82h-108l114 142h123z" />
    <glyph glyph-name="Otilde" unicode="&#xd5;" horiz-adv-x="740" 
d="M545.5 682q74.5 -45 114.5 -128.5t40 -197.5t-40 -197.5t-114.5 -128.5t-175.5 -45t-175.5 45t-114.5 128.5t-40 197.5t40 197.5t114.5 128.5t175.5 45t175.5 -45zM219.5 549q-55.5 -71 -55.5 -193t55.5 -193t150.5 -71t150.5 71t55.5 193t-55.5 193t-150.5 71
t-150.5 -71zM518.5 807q-28.5 -33 -77.5 -33q-22 0 -39.5 7t-42.5 21q-19 11 -30.5 16t-24.5 5q-40 0 -46 -49h-68q3 59 32 92t78 33q23 0 41 -7.5t41 -20.5q21 -11 31.5 -15.5t22.5 -4.5q42 0 46 48h68q-3 -59 -31.5 -92z" />
    <glyph glyph-name="Odieresis" unicode="&#xd6;" horiz-adv-x="740" 
d="M545.5 682q74.5 -45 114.5 -128.5t40 -197.5t-40 -197.5t-114.5 -128.5t-175.5 -45t-175.5 45t-114.5 128.5t-40 197.5t40 197.5t114.5 128.5t175.5 45t175.5 -45zM219.5 549q-55.5 -71 -55.5 -193t55.5 -193t150.5 -71t150.5 71t55.5 193t-55.5 193t-150.5 71
t-150.5 -71zM216 772v109h102v-109h-102zM422 772v109h102v-109h-102z" />
    <glyph glyph-name="multiply" unicode="&#xd7;" horiz-adv-x="566" 
d="M347 307l189 -189l-64 -64l-189 189l-188 -189l-65 64l189 189l-189 188l65 64l188 -188l189 188l64 -64z" />
    <glyph glyph-name="Oslash" unicode="&#xd8;" horiz-adv-x="740" 
d="M678 508q22 -68 22 -152q0 -114 -40 -197.5t-114.5 -128.5t-175.5 -45q-113 0 -192 56l-59 -79l-56 44l62 83q-42 48 -63.5 116t-21.5 151q0 114 40 197.5t114.5 128.5t175.5 45q112 0 193 -56l59 79l55 -43l-62 -83q41 -48 63 -116zM198 186l298 396q-52 43 -126 43
q-97 0 -153.5 -72t-56.5 -197q0 -103 38 -170zM523.5 159q56.5 72 56.5 197q0 103 -38 170l-297 -396q51 -43 125 -43q97 0 153.5 72z" />
    <glyph glyph-name="Ugrave" unicode="&#xd9;" horiz-adv-x="712" 
d="M558.5 58q-70.5 -73 -202.5 -73t-203 73t-71 211v443h120v-439q0 -89 40 -135t114 -46t114 46t40 135v439h119v-443q0 -138 -70.5 -211zM432 760h-93l-132 142h143z" />
    <glyph glyph-name="Uacute" unicode="&#xda;" horiz-adv-x="712" 
d="M558.5 58q-70.5 -73 -202.5 -73t-203 73t-71 211v443h120v-439q0 -89 40 -135t114 -46t114 46t40 135v439h119v-443q0 -138 -70.5 -211zM280 760l81 142h144l-132 -142h-93z" />
    <glyph glyph-name="Ucircumflex" unicode="&#xdb;" horiz-adv-x="712" 
d="M558.5 58q-70.5 -73 -202.5 -73t-203 73t-71 211v443h120v-439q0 -89 40 -135t114 -46t114 46t40 135v439h119v-443q0 -138 -70.5 -211zM417 902l114 -142h-108l-68 82l-67 -82h-108l114 142h123z" />
    <glyph glyph-name="Udieresis" unicode="&#xdc;" horiz-adv-x="712" 
d="M558.5 58q-70.5 -73 -202.5 -73t-203 73t-71 211v443h120v-439q0 -89 40 -135t114 -46t114 46t40 135v439h119v-443q0 -138 -70.5 -211zM202 772v109h102v-109h-102zM408 772v109h102v-109h-102z" />
    <glyph glyph-name="Yacute" unicode="&#xdd;" horiz-adv-x="626" 
d="M373 0h-120v286l-250 426h136l78 -141q50 -90 95 -184h2q48 100 96 184l77 141h135l-249 -426v-286zM237 760l81 142h144l-132 -142h-93z" />
    <glyph glyph-name="Thorn" unicode="&#xde;" horiz-adv-x="626" 
d="M345 589q123 0 189 -60t66 -163t-66 -162.5t-189 -59.5h-137v-144h-120v712h120v-123h137zM208 245h123q74 0 110 31.5t36 89.5q0 59 -36 90.5t-110 31.5h-123v-243z" />
    <glyph glyph-name="germandbls" unicode="&#xdf;" horiz-adv-x="566" 
d="M439.5 679.5q56.5 -47.5 56.5 -126.5q0 -117 -118 -155v-2q73 -14 112.5 -62.5t39.5 -127.5q0 -99 -62.5 -155t-165.5 -56q-26 0 -51 5v94q10 -3 31 -3q63 0 96.5 32t33.5 94q0 60 -35 94t-99 34h-13v96q62 0 91.5 25t29.5 76q0 44 -25.5 68.5t-70.5 24.5
q-52 0 -77.5 -32.5t-25.5 -100.5v-502h-114v510q0 103 56.5 160t158.5 57q95 0 151.5 -47.5z" />
    <glyph glyph-name="agrave" unicode="&#xe0;" horiz-adv-x="539" 
d="M418.5 473q53.5 -50 53.5 -149v-190q0 -82 13 -134h-103q-7 31 -7 71h-2q-56 -82 -171 -82q-78 0 -125 42.5t-47 108.5q0 65 44.5 104t150.5 56q64 11 137 15v20q0 54 -26.5 79.5t-72.5 25.5t-72 -24t-28 -65h-112q4 76 58.5 124t153.5 48q102 0 155.5 -50zM245 228
q-55 -9 -77.5 -27t-22.5 -53q0 -34 23.5 -54.5t66.5 -20.5q27 0 51 8.5t41 25.5q20 21 27.5 44.5t7.5 64.5v25q-65 -4 -117 -13zM333 568h-93l-132 144h143z" />
    <glyph glyph-name="aacute" unicode="&#xe1;" horiz-adv-x="539" 
d="M418.5 473q53.5 -50 53.5 -149v-190q0 -82 13 -134h-103q-7 31 -7 71h-2q-56 -82 -171 -82q-78 0 -125 42.5t-47 108.5q0 65 44.5 104t150.5 56q64 11 137 15v20q0 54 -26.5 79.5t-72.5 25.5t-72 -24t-28 -65h-112q4 76 58.5 124t153.5 48q102 0 155.5 -50zM245 228
q-55 -9 -77.5 -27t-22.5 -53q0 -34 23.5 -54.5t66.5 -20.5q27 0 51 8.5t41 25.5q20 21 27.5 44.5t7.5 64.5v25q-65 -4 -117 -13zM181 568l81 144h144l-132 -144h-93z" />
    <glyph glyph-name="acircumflex" unicode="&#xe2;" horiz-adv-x="539" 
d="M418.5 473q53.5 -50 53.5 -149v-190q0 -82 13 -134h-103q-7 31 -7 71h-2q-56 -82 -171 -82q-78 0 -125 42.5t-47 108.5q0 65 44.5 104t150.5 56q64 11 137 15v20q0 54 -26.5 79.5t-72.5 25.5t-72 -24t-28 -65h-112q4 76 58.5 124t153.5 48q102 0 155.5 -50zM245 228
q-55 -9 -77.5 -27t-22.5 -53q0 -34 23.5 -54.5t66.5 -20.5q27 0 51 8.5t41 25.5q20 21 27.5 44.5t7.5 64.5v25q-65 -4 -117 -13zM257 652l-68 -84h-108l114 144h123l114 -144h-108z" />
    <glyph glyph-name="atilde" unicode="&#xe3;" horiz-adv-x="539" 
d="M418.5 473q53.5 -50 53.5 -149v-190q0 -82 13 -134h-103q-7 31 -7 71h-2q-56 -82 -171 -82q-78 0 -125 42.5t-47 108.5q0 65 44.5 104t150.5 56q64 11 137 15v20q0 54 -26.5 79.5t-72.5 25.5t-72 -24t-28 -65h-112q4 76 58.5 124t153.5 48q102 0 155.5 -50zM245 228
q-55 -9 -77.5 -27t-22.5 -53q0 -34 23.5 -54.5t66.5 -20.5q27 0 51 8.5t41 25.5q20 21 27.5 44.5t7.5 64.5v25q-65 -4 -117 -13zM405.5 617q-28.5 -33 -77.5 -33q-23 0 -41 7t-41 20q-19 11 -30.5 16t-24.5 5q-40 0 -46 -48h-68q3 59 32 92t78 33q23 0 41 -7.5t41 -20.5
q19 -11 30.5 -16t23.5 -5q41 0 46 49h68q-3 -59 -31.5 -92z" />
    <glyph glyph-name="adieresis" unicode="&#xe4;" horiz-adv-x="539" 
d="M418.5 473q53.5 -50 53.5 -149v-190q0 -82 13 -134h-103q-7 31 -7 71h-2q-56 -82 -171 -82q-78 0 -125 42.5t-47 108.5q0 65 44.5 104t150.5 56q64 11 137 15v20q0 54 -26.5 79.5t-72.5 25.5t-72 -24t-28 -65h-112q4 76 58.5 124t153.5 48q102 0 155.5 -50zM245 228
q-55 -9 -77.5 -27t-22.5 -53q0 -34 23.5 -54.5t66.5 -20.5q27 0 51 8.5t41 25.5q20 21 27.5 44.5t7.5 64.5v25q-65 -4 -117 -13zM103 603v109h102v-109h-102zM309 603v109h102v-109h-102z" />
    <glyph glyph-name="aring" unicode="&#xe5;" horiz-adv-x="539" 
d="M418.5 473q53.5 -50 53.5 -149v-190q0 -82 13 -134h-103q-7 31 -7 71h-2q-56 -82 -171 -82q-78 0 -125 42.5t-47 108.5q0 65 44.5 104t150.5 56q64 11 137 15v20q0 54 -26.5 79.5t-72.5 25.5t-72 -24t-28 -65h-112q4 76 58.5 124t153.5 48q102 0 155.5 -50zM245 228
q-55 -9 -77.5 -27t-22.5 -53q0 -34 23.5 -54.5t66.5 -20.5q27 0 51 8.5t41 25.5q20 21 27.5 44.5t7.5 64.5v25q-65 -4 -117 -13zM331 739q30 -30 30 -74q0 -43 -30 -73.5t-74 -30.5q-43 0 -73.5 30.5t-30.5 73.5q0 44 30.5 74t73.5 30q44 0 74 -30zM217.5 704.5
q-16.5 -16.5 -16.5 -39.5t16.5 -39.5t39.5 -16.5t39.5 16.5t16.5 39.5t-16.5 39.5t-39.5 16.5t-39.5 -16.5z" />
    <glyph glyph-name="ae" unicode="&#xe6;" horiz-adv-x="871" 
d="M674 92q29 23 36 61h117q-9 -47 -38.5 -85t-78 -60.5t-110.5 -22.5q-61 0 -108 25.5t-77 72.5q-30 -48 -80.5 -73t-115.5 -25q-57 0 -100 20t-66 55t-23 80q0 78 57.5 120.5t187.5 42.5h94v32q0 105 -102 105q-48 0 -74.5 -24t-28.5 -65h-113q5 76 60.5 124t155.5 48
q117 0 168 -69q63 69 163 69q83 0 142.5 -46.5t80.5 -126.5q12 -48 12 -119h-359q2 -82 36.5 -122t89.5 -40q45 0 74 23zM514.5 404q-32.5 -35 -39.5 -101h244q-4 66 -37 101t-84 35t-83.5 -35zM288 231q-79 0 -111 -20.5t-32 -62.5q0 -36 24.5 -57.5t67.5 -21.5q28 0 53 9
t42 27q21 21 29 45t8 66v15h-81z" />
    <glyph glyph-name="ccedilla" unicode="&#xe7;" horiz-adv-x="548" 
d="M360.5 108q29.5 33 33.5 85h120q-7 -85 -60 -141t-137 -65l-31 -49q9 4 29 4q35 0 59 -20t24 -54q0 -39 -30.5 -65t-86.5 -26q-57 0 -109 29l20 40q39 -21 79 -21q25 0 39 10t14 28t-13.5 29t-37.5 11q-17 0 -32 -6l-19 21l43 68q-105 7 -166 78.5t-61 189.5
q0 82 30.5 142.5t86.5 93.5t130 33q64 0 114 -25.5t80 -70.5t35 -103h-119q-4 50 -34 79.5t-76 29.5q-60 0 -93.5 -47.5t-33.5 -131.5t33.5 -131.5t93.5 -47.5q46 0 75.5 33z" />
    <glyph glyph-name="egrave" unicode="&#xe8;" horiz-adv-x="562" 
d="M362.5 92q30.5 23 38.5 61h117q-15 -72 -77 -120t-157 -48q-76 0 -131.5 34.5t-85 96.5t-29.5 144q0 75 29 135t84.5 94t130.5 34q86 0 146.5 -46.5t81.5 -126.5q14 -45 14 -119h-373q3 -82 39.5 -122t93.5 -40q48 0 78.5 23zM194.5 405q-34.5 -34 -41.5 -99h257
q-6 65 -40.5 99t-87.5 34t-87.5 -34zM357 568h-93l-132 144h143z" />
    <glyph glyph-name="eacute" unicode="&#xe9;" horiz-adv-x="562" 
d="M362.5 92q30.5 23 38.5 61h117q-15 -72 -77 -120t-157 -48q-76 0 -131.5 34.5t-85 96.5t-29.5 144q0 75 29 135t84.5 94t130.5 34q86 0 146.5 -46.5t81.5 -126.5q14 -45 14 -119h-373q3 -82 39.5 -122t93.5 -40q48 0 78.5 23zM194.5 405q-34.5 -34 -41.5 -99h257
q-6 65 -40.5 99t-87.5 34t-87.5 -34zM204 568l81 144h144l-132 -144h-93z" />
    <glyph glyph-name="ecircumflex" unicode="&#xea;" horiz-adv-x="562" 
d="M362.5 92q30.5 23 38.5 61h117q-15 -72 -77 -120t-157 -48q-76 0 -131.5 34.5t-85 96.5t-29.5 144q0 75 29 135t84.5 94t130.5 34q86 0 146.5 -46.5t81.5 -126.5q14 -45 14 -119h-373q3 -82 39.5 -122t93.5 -40q48 0 78.5 23zM194.5 405q-34.5 -34 -41.5 -99h257
q-6 65 -40.5 99t-87.5 34t-87.5 -34zM281 652l-68 -84h-108l114 144h123l114 -144h-108z" />
    <glyph glyph-name="edieresis" unicode="&#xeb;" horiz-adv-x="562" 
d="M362.5 92q30.5 23 38.5 61h117q-15 -72 -77 -120t-157 -48q-76 0 -131.5 34.5t-85 96.5t-29.5 144q0 75 29 135t84.5 94t130.5 34q86 0 146.5 -46.5t81.5 -126.5q14 -45 14 -119h-373q3 -82 39.5 -122t93.5 -40q48 0 78.5 23zM194.5 405q-34.5 -34 -41.5 -99h257
q-6 65 -40.5 99t-87.5 34t-87.5 -34zM126 603v109h102v-109h-102zM332 603v109h102v-109h-102z" />
    <glyph glyph-name="igrave" unicode="&#xec;" horiz-adv-x="260" 
d="M73 0v508h114v-508h-114zM206 568h-93l-132 144h143z" />
    <glyph glyph-name="iacute" unicode="&#xed;" horiz-adv-x="260" 
d="M73 0v508h114v-508h-114zM54 568l81 144h144l-132 -144h-93z" />
    <glyph glyph-name="icircumflex" unicode="&#xee;" horiz-adv-x="260" 
d="M73 0v508h114v-508h-114zM188 569l-58 85l-58 -85h-103l101 143h119l101 -143h-102z" />
    <glyph glyph-name="idieresis" unicode="&#xef;" horiz-adv-x="260" 
d="M73 0v508h114v-508h-114zM-3 603v109h102v-109h-102zM160 603v109h103v-109h-103z" />
    <glyph glyph-name="eth" unicode="&#xf0;" horiz-adv-x="578" 
d="M516.5 399q23.5 -65 23.5 -141q0 -83 -30.5 -144.5t-87 -95t-132.5 -33.5q-77 0 -134 32t-87.5 91t-30.5 139t27.5 139.5t78.5 91.5t119 32q48 0 89 -26v2q-40 50 -96 100l-130 -55l-23 54l103 44q-36 28 -67 49l87 49q36 -23 78 -57l125 53l23 -54l-99 -42
q52 -47 91 -98q49 -65 72.5 -130zM385 123q35 48 35 130q0 83 -35 131t-96 48t-96 -48t-35 -131q0 -82 35 -130t96 -48t96 48z" />
    <glyph glyph-name="ntilde" unicode="&#xf1;" 
d="M471.5 467q48.5 -53 48.5 -156v-311h-114v301q0 127 -103 127q-51 0 -83.5 -38t-32.5 -108v-282h-114v508h108v-66h2q25 36 64 57t88 21q88 0 136.5 -53zM445.5 617q-28.5 -33 -77.5 -33q-23 0 -41 7t-41 20q-19 11 -30.5 16t-24.5 5q-40 0 -46 -48h-68q3 59 32 92t78 33
q23 0 41 -7.5t41 -20.5q19 -11 30.5 -16t23.5 -5q41 0 46 49h68q-3 -59 -31.5 -92z" />
    <glyph glyph-name="ograve" unicode="&#xf2;" horiz-adv-x="577" 
d="M421.5 490q56.5 -33 87 -93.5t30.5 -142.5t-30.5 -142.5t-87 -93.5t-132.5 -33t-133 33t-87.5 93.5t-30.5 142.5t30.5 142.5t87.5 93.5t133 33t132.5 -33zM193 385q-35 -48 -35 -131t35 -131t96 -48t96 48t35 131t-35 131t-96 48t-96 -48zM365 568h-93l-132 144h143z" />
    <glyph glyph-name="oacute" unicode="&#xf3;" horiz-adv-x="577" 
d="M421.5 490q56.5 -33 87 -93.5t30.5 -142.5t-30.5 -142.5t-87 -93.5t-132.5 -33t-133 33t-87.5 93.5t-30.5 142.5t30.5 142.5t87.5 93.5t133 33t132.5 -33zM193 385q-35 -48 -35 -131t35 -131t96 -48t96 48t35 131t-35 131t-96 48t-96 -48zM213 568l81 144h144l-132 -144
h-93z" />
    <glyph glyph-name="ocircumflex" unicode="&#xf4;" horiz-adv-x="577" 
d="M421.5 490q56.5 -33 87 -93.5t30.5 -142.5t-30.5 -142.5t-87 -93.5t-132.5 -33t-133 33t-87.5 93.5t-30.5 142.5t30.5 142.5t87.5 93.5t133 33t132.5 -33zM193 385q-35 -48 -35 -131t35 -131t96 -48t96 48t35 131t-35 131t-96 48t-96 -48zM289 652l-68 -84h-108l114 144
h123l114 -144h-108z" />
    <glyph glyph-name="otilde" unicode="&#xf5;" horiz-adv-x="577" 
d="M421.5 490q56.5 -33 87 -93.5t30.5 -142.5t-30.5 -142.5t-87 -93.5t-132.5 -33t-133 33t-87.5 93.5t-30.5 142.5t30.5 142.5t87.5 93.5t133 33t132.5 -33zM193 385q-35 -48 -35 -131t35 -131t96 -48t96 48t35 131t-35 131t-96 48t-96 -48zM437.5 617q-28.5 -33 -77.5 -33
q-23 0 -41 7t-41 20q-19 11 -30.5 16t-24.5 5q-40 0 -46 -48h-68q3 59 32 92t78 33q23 0 41 -7.5t41 -20.5q19 -11 30.5 -16t23.5 -5q41 0 46 49h68q-3 -59 -31.5 -92z" />
    <glyph glyph-name="odieresis" unicode="&#xf6;" horiz-adv-x="577" 
d="M421.5 490q56.5 -33 87 -93.5t30.5 -142.5t-30.5 -142.5t-87 -93.5t-132.5 -33t-133 33t-87.5 93.5t-30.5 142.5t30.5 142.5t87.5 93.5t133 33t132.5 -33zM193 385q-35 -48 -35 -131t35 -131t96 -48t96 48t35 131t-35 131t-96 48t-96 -48zM134 603v109h102v-109h-102z
M340 603v109h102v-109h-102z" />
    <glyph glyph-name="divide" unicode="&#xf7;" horiz-adv-x="566" 
d="M233 441v97h100v-97h-100zM67 271v91h432v-91h-432zM233 95v97h100v-97h-100z" />
    <glyph glyph-name="oslash" unicode="&#xf8;" horiz-adv-x="578" 
d="M523 363.5q17 -49.5 17 -109.5q0 -82 -30.5 -142.5t-87.5 -93.5t-133 -33q-81 0 -138 36l-51 -68l-48 36l53 70q-33 35 -50 84.5t-17 110.5q0 82 30.5 142.5t87.5 93.5t133 33q80 0 139 -36l51 68l48 -37l-53 -70q32 -35 49 -84.5zM189 387.5q-37 -49.5 -37 -133.5
q0 -62 20 -105l197 260q-34 28 -80 28q-63 0 -100 -49.5zM389 120q37 49 37 134q0 57 -20 105l-197 -261q33 -27 80 -27q63 0 100 49z" />
    <glyph glyph-name="ugrave" unicode="&#xf9;" 
d="M116.5 41q-48.5 53 -48.5 156v311h114v-301q0 -127 103 -127q51 0 83.5 38t32.5 108v282h114v-508h-108v66h-2q-25 -36 -64 -57t-88 -21q-88 0 -136.5 53zM370 568h-93l-132 144h143z" />
    <glyph glyph-name="uacute" unicode="&#xfa;" 
d="M116.5 41q-48.5 53 -48.5 156v311h114v-301q0 -127 103 -127q51 0 83.5 38t32.5 108v282h114v-508h-108v66h-2q-25 -36 -64 -57t-88 -21q-88 0 -136.5 53zM218 568l81 144h144l-132 -144h-93z" />
    <glyph glyph-name="ucircumflex" unicode="&#xfb;" 
d="M116.5 41q-48.5 53 -48.5 156v311h114v-301q0 -127 103 -127q51 0 83.5 38t32.5 108v282h114v-508h-108v66h-2q-25 -36 -64 -57t-88 -21q-88 0 -136.5 53zM294 652l-68 -84h-108l114 144h123l114 -144h-108z" />
    <glyph glyph-name="udieresis" unicode="&#xfc;" 
d="M116.5 41q-48.5 53 -48.5 156v311h114v-301q0 -127 103 -127q51 0 83.5 38t32.5 108v282h114v-508h-108v66h-2q-25 -36 -64 -57t-88 -21q-88 0 -136.5 53zM140 603v109h102v-109h-102zM346 603v109h102v-109h-102z" />
    <glyph glyph-name="yacute" unicode="&#xfd;" horiz-adv-x="488" 
d="M245 -123q-29 -36 -69 -51.5t-100 -15.5q-31 0 -57 7v93q23 -7 48 -7q46 0 70.5 20t42.5 73l-186 512h122l127 -378h2l131 378h118l-196 -530q-24 -65 -53 -101zM168 568l81 144h144l-132 -144h-93z" />
    <glyph glyph-name="thorn" unicode="&#xfe;" horiz-adv-x="587" 
d="M189 442q22 37 61.5 58t86.5 21q64 0 112 -33t74 -93.5t26 -140.5t-26 -140.5t-73.5 -93t-111.5 -32.5q-48 0 -87.5 20.5t-61.5 57.5h-2v-251h-114v897h114v-270h2zM214.5 384.5q-33.5 -47.5 -33.5 -130.5q0 -82 33.5 -130t89.5 -48q58 0 92 48.5t34 129.5t-34 129.5
t-92 48.5q-56 0 -89.5 -47.5z" />
    <glyph glyph-name="ydieresis" unicode="&#xff;" horiz-adv-x="488" 
d="M245 -123q-29 -36 -69 -51.5t-100 -15.5q-31 0 -57 7v93q23 -7 48 -7q46 0 70.5 20t42.5 73l-186 512h122l127 -378h2l131 378h118l-196 -530q-24 -65 -53 -101zM90 603v109h102v-109h-102zM296 603v109h102v-109h-102z" />
    <glyph glyph-name="Amacron" unicode="&#x100;" horiz-adv-x="687" 
d="M196 193l-66 -193h-126l259 712h161l259 -712h-126l-66 193h-295zM436 353q-60 178 -92 283h-2q-53 -173 -91 -283l-19 -56h223zM191 783v78h305v-78h-305z" />
    <glyph glyph-name="amacron" unicode="&#x101;" horiz-adv-x="539" 
d="M418.5 473q53.5 -50 53.5 -149v-190q0 -82 13 -134h-103q-7 31 -7 71h-2q-56 -82 -171 -82q-78 0 -125 42.5t-47 108.5q0 65 44.5 104t150.5 56q64 11 137 15v20q0 54 -26.5 79.5t-72.5 25.5t-72 -24t-28 -65h-112q4 76 58.5 124t153.5 48q102 0 155.5 -50zM245 228
q-55 -9 -77.5 -27t-22.5 -53q0 -34 23.5 -54.5t66.5 -20.5q27 0 51 8.5t41 25.5q20 21 27.5 44.5t7.5 64.5v25q-65 -4 -117 -13zM104 607v78h305v-78h-305z" />
    <glyph glyph-name="Abreve" unicode="&#x102;" horiz-adv-x="687" 
d="M196 193l-66 -193h-126l259 712h161l259 -712h-126l-66 193h-295zM436 353q-60 178 -92 283h-2q-53 -173 -91 -283l-19 -56h223zM460.5 793.5q-43.5 -38.5 -117.5 -38.5q-73 0 -116.5 38.5t-48.5 108.5h80q4 -34 26 -53t59 -19t59 19t26 53h81q-5 -70 -48.5 -108.5z" />
    <glyph glyph-name="abreve" unicode="&#x103;" horiz-adv-x="539" 
d="M418.5 473q53.5 -50 53.5 -149v-190q0 -82 13 -134h-103q-7 31 -7 71h-2q-56 -82 -171 -82q-78 0 -125 42.5t-47 108.5q0 65 44.5 104t150.5 56q64 11 137 15v20q0 54 -26.5 79.5t-72.5 25.5t-72 -24t-28 -65h-112q4 76 58.5 124t153.5 48q102 0 155.5 -50zM245 228
q-55 -9 -77.5 -27t-22.5 -53q0 -34 23.5 -54.5t66.5 -20.5q27 0 51 8.5t41 25.5q20 21 27.5 44.5t7.5 64.5v25q-65 -4 -117 -13zM374.5 603.5q-43.5 -38.5 -117.5 -38.5q-73 0 -116.5 38.5t-48.5 108.5h80q4 -34 26 -53t59 -19t59 19t26 53h81q-5 -70 -48.5 -108.5z" />
    <glyph glyph-name="Aogonek" unicode="&#x104;" horiz-adv-x="687" 
d="M685 -122v-62q-27 -11 -68 -11q-53 0 -79.5 21.5t-26.5 61.5q0 32 18.5 57t59.5 55h-32l-66 193h-295l-66 -193h-126l259 712h161l259 -712h-1q-40 -28 -56 -50t-16 -45q0 -33 38 -33q21 0 37 6zM436 353q-60 178 -92 283h-2q-53 -174 -91 -283l-19 -56h223z" />
    <glyph glyph-name="aogonek" unicode="&#x105;" horiz-adv-x="539" 
d="M488 -122v-62q-27 -11 -68 -11q-53 0 -79.5 21.5t-26.5 61.5q0 32 18.5 57t59.5 55h-10q-7 31 -7 71h-2q-56 -82 -171 -82q-78 0 -125 42.5t-47 108.5q0 65 44.5 104t150.5 56q64 11 137 15v20q0 54 -26.5 79.5t-72.5 25.5t-72 -24t-28 -65h-112q4 76 58.5 124t153.5 48
q102 0 155.5 -50t53.5 -149v-190q0 -82 13 -134q-40 -28 -56 -50t-16 -45q0 -33 38 -33q21 0 37 6zM245 228q-55 -9 -77.5 -27t-22.5 -53q0 -34 23.5 -54.5t66.5 -20.5q27 0 51 8.5t41 25.5q20 21 27.5 44.5t7.5 64.5v25q-65 -4 -117 -13z" />
    <glyph glyph-name="Cacute" unicode="&#x106;" horiz-adv-x="695" 
d="M508.5 694q64.5 -33 100 -91.5t39.5 -134.5h-121q-8 71 -52.5 111.5t-115.5 40.5q-91 0 -143 -70.5t-52 -193.5t51.5 -193.5t140.5 -70.5q71 0 116.5 41t55.5 114h123q-11 -123 -89 -192.5t-206 -69.5q-97 0 -168.5 45t-109.5 128.5t-38 197.5t38.5 197.5t110.5 128.5
t170 45q85 0 149.5 -33zM283 760l81 142h144l-132 -142h-93z" />
    <glyph glyph-name="cacute" unicode="&#x107;" horiz-adv-x="548" 
d="M399 497.5q50 -25.5 80 -70.5t35 -103h-119q-4 50 -34 79.5t-76 29.5q-60 0 -93.5 -47.5t-33.5 -131.5t33.5 -131.5t93.5 -47.5q46 0 75.5 33t33.5 85h120q-8 -93 -70 -150.5t-159 -57.5q-74 0 -130 33t-86.5 93.5t-30.5 142.5t30.5 142.5t86.5 93.5t130 33
q64 0 114 -25.5zM209 568l81 144h144l-132 -144h-93z" />
    <glyph glyph-name="Ccircumflex" unicode="&#x108;" horiz-adv-x="695" 
d="M508.5 694q64.5 -33 100 -91.5t39.5 -134.5h-121q-8 71 -52.5 111.5t-115.5 40.5q-91 0 -143 -70.5t-52 -193.5t51.5 -193.5t140.5 -70.5q71 0 116.5 41t55.5 114h123q-11 -123 -89 -192.5t-206 -69.5q-97 0 -168.5 45t-109.5 128.5t-38 197.5t38.5 197.5t110.5 128.5
t170 45q85 0 149.5 -33zM420 902l114 -142h-108l-68 82l-67 -82h-108l114 142h123z" />
    <glyph glyph-name="ccircumflex" unicode="&#x109;" horiz-adv-x="548" 
d="M399 497.5q50 -25.5 80 -70.5t35 -103h-119q-4 50 -34 79.5t-76 29.5q-60 0 -93.5 -47.5t-33.5 -131.5t33.5 -131.5t93.5 -47.5q46 0 75.5 33t33.5 85h120q-8 -93 -70 -150.5t-159 -57.5q-74 0 -130 33t-86.5 93.5t-30.5 142.5t30.5 142.5t86.5 93.5t130 33
q64 0 114 -25.5zM286 652l-68 -84h-108l114 144h123l114 -144h-108z" />
    <glyph glyph-name="Cdotaccent" unicode="&#x10a;" horiz-adv-x="695" 
d="M508.5 694q64.5 -33 100 -91.5t39.5 -134.5h-121q-8 71 -52.5 111.5t-115.5 40.5q-91 0 -143 -70.5t-52 -193.5t51.5 -193.5t140.5 -70.5q71 0 116.5 41t55.5 114h123q-11 -123 -89 -192.5t-206 -69.5q-97 0 -168.5 45t-109.5 128.5t-38 197.5t38.5 197.5t110.5 128.5
t170 45q85 0 149.5 -33zM302 769v109h114v-109h-114z" />
    <glyph glyph-name="cdotaccent" unicode="&#x10b;" horiz-adv-x="548" 
d="M399 497.5q50 -25.5 80 -70.5t35 -103h-119q-4 50 -34 79.5t-76 29.5q-60 0 -93.5 -47.5t-33.5 -131.5t33.5 -131.5t93.5 -47.5q46 0 75.5 33t33.5 85h120q-8 -93 -70 -150.5t-159 -57.5q-74 0 -130 33t-86.5 93.5t-30.5 142.5t30.5 142.5t86.5 93.5t130 33
q64 0 114 -25.5zM228 603v109h114v-109h-114z" />
    <glyph glyph-name="Ccaron" unicode="&#x10c;" horiz-adv-x="695" 
d="M508.5 694q64.5 -33 100 -91.5t39.5 -134.5h-121q-8 71 -52.5 111.5t-115.5 40.5q-91 0 -143 -70.5t-52 -193.5t51.5 -193.5t140.5 -70.5q71 0 116.5 41t55.5 114h123q-11 -123 -89 -192.5t-206 -69.5q-97 0 -168.5 45t-109.5 128.5t-38 197.5t38.5 197.5t110.5 128.5
t170 45q85 0 149.5 -33zM297 760l-114 142h108l68 -82l67 82h108l-114 -142h-123z" />
    <glyph glyph-name="ccaron" unicode="&#x10d;" horiz-adv-x="548" 
d="M399 497.5q50 -25.5 80 -70.5t35 -103h-119q-4 50 -34 79.5t-76 29.5q-60 0 -93.5 -47.5t-33.5 -131.5t33.5 -131.5t93.5 -47.5q46 0 75.5 33t33.5 85h120q-8 -93 -70 -150.5t-159 -57.5q-74 0 -130 33t-86.5 93.5t-30.5 142.5t30.5 142.5t86.5 93.5t130 33
q64 0 114 -25.5zM224 568l-114 144h108l68 -84l67 84h108l-114 -144h-123z" />
    <glyph glyph-name="Dcaron" unicode="&#x10e;" horiz-adv-x="729" 
d="M592 619.5q97 -92.5 97 -263.5t-97 -263.5t-276 -92.5h-228v712h228q179 0 276 -92.5zM207 104h107q124 0 187.5 63.5t63.5 188.5t-63.5 188.5t-187.5 63.5h-107v-504zM270 760l-114 142h108l68 -82l67 82h108l-114 -142h-123z" />
    <glyph glyph-name="dcaron" unicode="&#x10f;" horiz-adv-x="587" 
d="M403 0v70h-2q-22 -39 -62.5 -60.5t-88.5 -21.5q-64 0 -112 32.5t-74 93t-26 140.5t26 140.5t73.5 93.5t111.5 33q48 0 87.5 -21t61.5 -58h2v270h114v-712h-111zM191 383.5q-34 -48.5 -34 -129.5t34 -129.5t92 -48.5q56 0 89.5 48t33.5 130q0 83 -33.5 130.5t-89.5 47.5
q-58 0 -92 -48.5zM545 535l28 177h95l-57 -177h-66z" />
    <glyph glyph-name="Dcroat" unicode="&#x110;" horiz-adv-x="729" 
d="M592 619.5q97 -92.5 97 -263.5t-97 -263.5t-276 -92.5h-228v316h-64v89h64v307h228q179 0 276 -92.5zM501.5 167.5q63.5 63.5 63.5 188.5t-63.5 188.5t-187.5 63.5h-107v-203h184v-89h-184v-212h107q124 0 187.5 63.5z" />
    <glyph glyph-name="dcroat" unicode="&#x111;" horiz-adv-x="580" 
d="M514 578v-578h-111v70h-2q-22 -39 -62.5 -60.5t-88.5 -21.5q-64 0 -112 32.5t-74 93t-26 140.5t26 140.5t73.5 93.5t111.5 33q48 0 87.5 -21t61.5 -58h2v136h-126v64h126v70h114v-70h65v-64h-65zM372.5 124q33.5 48 33.5 130q0 83 -33.5 130.5t-89.5 47.5
q-58 0 -92 -48.5t-34 -129.5t34 -129.5t92 -48.5q56 0 89.5 48z" />
    <glyph glyph-name="Emacron" unicode="&#x112;" horiz-adv-x="625" 
d="M208 608v-193h334v-103h-334v-208h366v-104h-486v712h476v-104h-356zM173 783v78h305v-78h-305z" />
    <glyph glyph-name="emacron" unicode="&#x113;" horiz-adv-x="562" 
d="M362.5 92q30.5 23 38.5 61h117q-15 -72 -77 -120t-157 -48q-76 0 -131.5 34.5t-85 96.5t-29.5 144q0 75 29 135t84.5 94t130.5 34q86 0 146.5 -46.5t81.5 -126.5q14 -45 14 -119h-373q3 -82 39.5 -122t93.5 -40q48 0 78.5 23zM194.5 405q-34.5 -34 -41.5 -99h257
q-6 65 -40.5 99t-87.5 34t-87.5 -34zM128 607v78h305v-78h-305z" />
    <glyph glyph-name="Ebreve" unicode="&#x114;" horiz-adv-x="625" 
d="M208 608v-193h334v-103h-334v-208h366v-104h-486v712h476v-104h-356zM443.5 793.5q-43.5 -38.5 -117.5 -38.5q-73 0 -116.5 38.5t-48.5 108.5h80q4 -34 26 -53t59 -19t59 19t26 53h81q-5 -70 -48.5 -108.5z" />
    <glyph glyph-name="ebreve" unicode="&#x115;" horiz-adv-x="562" 
d="M362.5 92q30.5 23 38.5 61h117q-15 -72 -77 -120t-157 -48q-76 0 -131.5 34.5t-85 96.5t-29.5 144q0 75 29 135t84.5 94t130.5 34q86 0 146.5 -46.5t81.5 -126.5q14 -45 14 -119h-373q3 -82 39.5 -122t93.5 -40q48 0 78.5 23zM194.5 405q-34.5 -34 -41.5 -99h257
q-6 65 -40.5 99t-87.5 34t-87.5 -34zM397.5 603.5q-43.5 -38.5 -117.5 -38.5q-73 0 -116.5 38.5t-48.5 108.5h80q4 -34 26 -53t59 -19t59 19t26 53h81q-5 -70 -48.5 -108.5z" />
    <glyph glyph-name="Edotaccent" unicode="&#x116;" horiz-adv-x="625" 
d="M208 608v-193h334v-103h-334v-208h366v-104h-486v712h476v-104h-356zM269 769v109h114v-109h-114z" />
    <glyph glyph-name="edotaccent" unicode="&#x117;" horiz-adv-x="562" 
d="M362.5 92q30.5 23 38.5 61h117q-15 -72 -77 -120t-157 -48q-76 0 -131.5 34.5t-85 96.5t-29.5 144q0 75 29 135t84.5 94t130.5 34q86 0 146.5 -46.5t81.5 -126.5q14 -45 14 -119h-373q3 -82 39.5 -122t93.5 -40q48 0 78.5 23zM194.5 405q-34.5 -34 -41.5 -99h257
q-6 65 -40.5 99t-87.5 34t-87.5 -34zM223 603v109h114v-109h-114z" />
    <glyph glyph-name="Eogonek" unicode="&#x118;" horiz-adv-x="625" 
d="M577 -122v-62q-27 -11 -68 -11q-53 0 -79.5 21.5t-26.5 61.5q0 32 18.5 57t59.5 55h-393v712h476v-104h-356v-193h334v-103h-334v-208h366v-104q-40 -28 -56 -50t-16 -45q0 -33 38 -33q21 0 37 6z" />
    <glyph glyph-name="eogonek" unicode="&#x119;" horiz-adv-x="562" 
d="M362.5 92q30.5 23 38.5 61h117q-7 -35 -26 -66t-53 -63q-41 -37 -57 -62.5t-16 -52.5q0 -37 38 -37q21 0 37 6v-62q-27 -11 -68 -11q-53 0 -79.5 21.5t-26.5 61.5q0 28 13 51.5t41 46.5v2q-16 -3 -37 -3q-76 0 -131.5 34.5t-85 96.5t-29.5 144q0 75 29 135t84.5 94
t130.5 34q86 0 146.5 -46.5t81.5 -126.5q14 -45 14 -119h-373q3 -82 39.5 -122t93.5 -40q48 0 78.5 23zM194.5 405q-34.5 -34 -41.5 -99h257q-6 65 -40.5 99t-87.5 34t-87.5 -34z" />
    <glyph glyph-name="Ecaron" unicode="&#x11a;" horiz-adv-x="625" 
d="M208 608v-193h334v-103h-334v-208h366v-104h-486v712h476v-104h-356zM264 760l-114 142h108l68 -82l67 82h108l-114 -142h-123z" />
    <glyph glyph-name="ecaron" unicode="&#x11b;" horiz-adv-x="562" 
d="M362.5 92q30.5 23 38.5 61h117q-15 -72 -77 -120t-157 -48q-76 0 -131.5 34.5t-85 96.5t-29.5 144q0 75 29 135t84.5 94t130.5 34q86 0 146.5 -46.5t81.5 -126.5q14 -45 14 -119h-373q3 -82 39.5 -122t93.5 -40q48 0 78.5 23zM194.5 405q-34.5 -34 -41.5 -99h257
q-6 65 -40.5 99t-87.5 34t-87.5 -34zM219 568l-114 144h108l68 -84l67 84h108l-114 -144h-123z" />
    <glyph glyph-name="Gcircumflex" unicode="&#x11c;" horiz-adv-x="737" 
d="M572.5 664q76.5 -63 87.5 -170h-128q-11 61 -52.5 93.5t-109.5 32.5q-95 0 -150.5 -71.5t-55.5 -195.5q0 -125 54 -197t147 -72q84 0 132 50t49 151h-182v100h294v-385h-103v88h-2q-29 -47 -85.5 -74t-129.5 -27q-91 0 -158 44t-103.5 126.5t-36.5 195.5q0 115 40 199.5
t114.5 129.5t175.5 45q126 0 202.5 -63zM424 902l114 -142h-108l-68 82l-67 -82h-108l114 142h123z" />
    <glyph glyph-name="gcircumflex" unicode="&#x11d;" horiz-adv-x="582" 
d="M334 501.5q36 -20.5 65 -64.5h2v71h108v-476q0 -112 -60.5 -168.5t-170.5 -56.5q-101 0 -157.5 42.5t-60.5 118.5h114q2 -37 30 -57t76 -20q59 0 88.5 34t29.5 111v50h-2q-28 -41 -64 -60.5t-83 -19.5q-64 0 -111.5 31.5t-73.5 90t-26 136.5t26 136.5t74.5 90t112.5 31.5
q47 0 83 -20.5zM189.5 383q-32.5 -44 -32.5 -119t32.5 -119.5t87.5 -44.5q58 0 91.5 44.5t33.5 119.5t-33.5 119t-91.5 44q-55 0 -87.5 -44zM276 652l-68 -84h-108l114 144h123l114 -144h-108z" />
    <glyph glyph-name="Gbreve" unicode="&#x11e;" horiz-adv-x="737" 
d="M572.5 664q76.5 -63 87.5 -170h-128q-11 61 -52.5 93.5t-109.5 32.5q-95 0 -150.5 -71.5t-55.5 -195.5q0 -125 54 -197t147 -72q84 0 132 50t49 151h-182v100h294v-385h-103v88h-2q-29 -47 -85.5 -74t-129.5 -27q-91 0 -158 44t-103.5 126.5t-36.5 195.5q0 115 40 199.5
t114.5 129.5t175.5 45q126 0 202.5 -63zM480.5 793.5q-43.5 -38.5 -117.5 -38.5q-73 0 -116.5 38.5t-48.5 108.5h80q4 -34 26 -53t59 -19t59 19t26 53h81q-5 -70 -48.5 -108.5z" />
    <glyph glyph-name="gbreve" unicode="&#x11f;" horiz-adv-x="582" 
d="M334 501.5q36 -20.5 65 -64.5h2v71h108v-476q0 -112 -60.5 -168.5t-170.5 -56.5q-101 0 -157.5 42.5t-60.5 118.5h114q2 -37 30 -57t76 -20q59 0 88.5 34t29.5 111v50h-2q-28 -41 -64 -60.5t-83 -19.5q-64 0 -111.5 31.5t-73.5 90t-26 136.5t26 136.5t74.5 90t112.5 31.5
q47 0 83 -20.5zM189.5 383q-32.5 -44 -32.5 -119t32.5 -119.5t87.5 -44.5q58 0 91.5 44.5t33.5 119.5t-33.5 119t-91.5 44q-55 0 -87.5 -44zM392.5 603.5q-43.5 -38.5 -117.5 -38.5q-73 0 -116.5 38.5t-48.5 108.5h80q4 -34 26 -53t59 -19t59 19t26 53h81
q-5 -70 -48.5 -108.5z" />
    <glyph glyph-name="Gdotaccent" unicode="&#x120;" horiz-adv-x="737" 
d="M572.5 664q76.5 -63 87.5 -170h-128q-11 61 -52.5 93.5t-109.5 32.5q-95 0 -150.5 -71.5t-55.5 -195.5q0 -125 54 -197t147 -72q84 0 132 50t49 151h-182v100h294v-385h-103v88h-2q-29 -47 -85.5 -74t-129.5 -27q-91 0 -158 44t-103.5 126.5t-36.5 195.5q0 115 40 199.5
t114.5 129.5t175.5 45q126 0 202.5 -63zM306 769v109h114v-109h-114z" />
    <glyph glyph-name="gdotaccent" unicode="&#x121;" horiz-adv-x="582" 
d="M334 501.5q36 -20.5 65 -64.5h2v71h108v-476q0 -112 -60.5 -168.5t-170.5 -56.5q-101 0 -157.5 42.5t-60.5 118.5h114q2 -37 30 -57t76 -20q59 0 88.5 34t29.5 111v50h-2q-28 -41 -64 -60.5t-83 -19.5q-64 0 -111.5 31.5t-73.5 90t-26 136.5t26 136.5t74.5 90t112.5 31.5
q47 0 83 -20.5zM189.5 383q-32.5 -44 -32.5 -119t32.5 -119.5t87.5 -44.5q58 0 91.5 44.5t33.5 119.5t-33.5 119t-91.5 44q-55 0 -87.5 -44zM219 603v109h114v-109h-114z" />
    <glyph glyph-name="Gcommaaccent" unicode="&#x122;" horiz-adv-x="737" 
d="M572.5 664q76.5 -63 87.5 -170h-128q-11 61 -52.5 93.5t-109.5 32.5q-95 0 -150.5 -71.5t-55.5 -195.5q0 -125 54 -197t147 -72q84 0 132 50t49 151h-182v100h294v-385h-103v88h-2q-29 -47 -85.5 -74t-129.5 -27q-91 0 -158 44t-103.5 126.5t-36.5 195.5q0 115 40 199.5
t114.5 129.5t175.5 45q126 0 202.5 -63zM354 -264h-47l42 106h-40v96h107v-96z" />
    <glyph glyph-name="gcommaaccent" unicode="&#x123;" horiz-adv-x="582" 
d="M334 501.5q36 -20.5 65 -64.5h2v71h108v-476q0 -112 -60.5 -168.5t-170.5 -56.5q-101 0 -157.5 42.5t-60.5 118.5h114q2 -37 30 -57t76 -20q59 0 88.5 34t29.5 111v50h-2q-28 -41 -64 -60.5t-83 -19.5q-64 0 -111.5 31.5t-73.5 90t-26 136.5t26 136.5t74.5 90t112.5 31.5
q47 0 83 -20.5zM189.5 383q-32.5 -44 -32.5 -119t32.5 -119.5t87.5 -44.5q58 0 91.5 44.5t33.5 119.5t-33.5 119t-91.5 44q-55 0 -87.5 -44zM327 676v-96h-106v96l62 106h47l-42 -106h39z" />
    <glyph glyph-name="Hcircumflex" unicode="&#x124;" horiz-adv-x="744" 
d="M536 0v318h-328v-318h-120v712h120v-290h328v290h119v-712h-119zM433 902l114 -142h-108l-68 82l-67 -82h-108l114 142h123z" />
    <glyph glyph-name="hcircumflex" unicode="&#x125;" 
d="M189 448q26 36 64 54t82 18q88 0 136.5 -53t48.5 -156v-311h-114v301q0 127 -103 127q-51 0 -83.5 -38t-32.5 -108v-282h-114v712h114v-264h2zM355 902l114 -142h-108l-68 82l-67 -82h-108l114 142h123z" />
    <glyph glyph-name="Hbar" unicode="&#x126;" horiz-adv-x="744" 
d="M655 571v-571h-119v318h-328v-318h-120v571h-56v65h56v76h120v-76h328v76h119v-76h57v-65h-57zM208 571v-149h328v149h-328z" />
    <glyph glyph-name="hbar" unicode="&#x127;" 
d="M471.5 467q48.5 -53 48.5 -156v-311h-114v301q0 127 -103 127q-51 0 -83.5 -38t-32.5 -108v-282h-114v578h-72v58h72v76h114v-76h119v-58h-119v-130h2q26 36 64 54t82 18q88 0 136.5 -53z" />
    <glyph glyph-name="Itilde" unicode="&#x128;" horiz-adv-x="296" 
d="M88 0v712h120v-712h-120zM296.5 807q-28.5 -33 -77.5 -33q-22 0 -39.5 7t-42.5 21q-19 11 -30.5 16t-24.5 5q-40 0 -46 -49h-68q3 59 32 92t78 33q23 0 41 -7.5t41 -20.5q21 -11 31.5 -15.5t22.5 -4.5q42 0 46 48h68q-3 -59 -31.5 -92z" />
    <glyph glyph-name="itilde" unicode="&#x129;" horiz-adv-x="260" 
d="M73 0v508h114v-508h-114zM259.5 617q-26.5 -33 -71.5 -33q-21 0 -36.5 7.5t-33.5 21.5q-17 12 -26 16.5t-20 4.5q-36 0 -41 -50h-59q3 59 28.5 92t71.5 33q21 0 36.5 -7.5t33.5 -21.5q17 -12 26 -16.5t20 -4.5q19 0 29 12.5t12 37.5h60q-3 -59 -29.5 -92z" />
    <glyph glyph-name="Imacron" unicode="&#x12a;" horiz-adv-x="296" 
d="M88 0v712h120v-712h-120zM-4 783v78h305v-78h-305z" />
    <glyph glyph-name="imacron" unicode="&#x12b;" horiz-adv-x="260" 
d="M73 0v508h114v-508h-114zM-6 610v78h271v-78h-271z" />
    <glyph glyph-name="Ibreve" unicode="&#x12c;" horiz-adv-x="296" 
d="M88 0v712h120v-712h-120zM265.5 793.5q-43.5 -38.5 -117.5 -38.5q-73 0 -116.5 38.5t-48.5 108.5h80q4 -34 26 -53t59 -19t59 19t26 53h81q-5 -70 -48.5 -108.5z" />
    <glyph glyph-name="ibreve" unicode="&#x12d;" horiz-adv-x="260" 
d="M73 0v508h114v-508h-114zM237 604q-39 -39 -107 -39t-107 38.5t-42 108.5h75q3 -36 22 -55.5t52 -19.5t52 19.5t21 55.5h76q-3 -69 -42 -108z" />
    <glyph glyph-name="Iogonek" unicode="&#x12e;" horiz-adv-x="296" 
d="M211 -122v-62q-27 -11 -68 -11q-53 0 -79.5 21.5t-26.5 61.5q0 32 18.5 57t59.5 55h-27v712h120v-712q-40 -28 -56 -50t-16 -45q0 -33 38 -33q21 0 37 6z" />
    <glyph glyph-name="iogonek" unicode="&#x12f;" horiz-adv-x="260" 
d="M73 603v109h114v-109h-114zM190 -122v-62q-27 -11 -68 -11q-53 0 -79.5 21.5t-26.5 61.5q0 32 18.5 57t59.5 55h-21v508h114v-508q-40 -28 -56 -50t-16 -45q0 -33 38 -33q21 0 37 6z" />
    <glyph glyph-name="Idotaccent" unicode="&#x130;" horiz-adv-x="296" 
d="M88 0v712h120v-712h-120zM91 769v109h114v-109h-114z" />
    <glyph glyph-name="dotlessi" unicode="&#x131;" horiz-adv-x="260" 
d="M73 0v508h114v-508h-114z" />
    <glyph glyph-name="IJ" unicode="&#x132;" horiz-adv-x="670" 
d="M88 0v712h120v-712h-120zM533.5 48.5q-53.5 -54.5 -165.5 -54.5q-31 0 -57 7v103q21 -4 45 -4q58 0 84.5 30t26.5 107v475h120v-496q0 -113 -53.5 -167.5z" />
    <glyph glyph-name="ij" unicode="&#x133;" horiz-adv-x="524" 
d="M73 603v109h114v-109h-114zM337 603v109h114v-109h-114zM73 0v508h114v-508h-114zM408.5 -149q-42.5 -41 -117.5 -41q-26 0 -58 7v85q13 -3 28 -3q39 0 57.5 21.5t18.5 74.5v513h114v-528q0 -88 -42.5 -129z" />
    <glyph glyph-name="Jcircumflex" unicode="&#x134;" horiz-adv-x="374" 
d="M237.5 48.5q-53.5 -54.5 -165.5 -54.5q-31 0 -57 7v103q21 -4 45 -4q58 0 84.5 30t26.5 107v475h120v-496q0 -113 -53.5 -167.5zM292 902l114 -142h-108l-68 82l-67 -82h-108l114 142h123z" />
    <glyph glyph-name="jcircumflex" unicode="&#x135;" horiz-adv-x="264" 
d="M148.5 -149q-42.5 -41 -117.5 -41q-26 0 -58 7v85q13 -3 28 -3q39 0 57.5 21.5t18.5 74.5v513h114v-528q0 -88 -42.5 -129zM192 569l-58 85l-58 -85h-103l101 143h119l101 -143h-102z" />
    <glyph glyph-name="Kcommaaccent" unicode="&#x136;" horiz-adv-x="644" 
d="M640 0h-155l-275 343h-2v-343h-120v712h120v-317h2l260 317h144l-291 -339zM321 -264h-47l42 106h-40v96h107v-96z" />
    <glyph glyph-name="kcommaaccent" unicode="&#x137;" horiz-adv-x="522" 
d="M387 0l-198 246h-2v-246h-114v712h114v-412h2l185 208h133l-210 -232l234 -276h-144zM274 -264h-47l42 106h-40v96h107v-96z" />
    <glyph glyph-name="kgreenlandic" unicode="&#x138;" horiz-adv-x="539" 
d="M387 0l-198 246h-2v-246h-114v508h114v-208h2l185 208h133l-210 -232l234 -276h-144z" />
    <glyph glyph-name="Lacute" unicode="&#x139;" horiz-adv-x="568" 
d="M558 104v-104h-470v712h120v-608h350zM103 760l81 142h144l-132 -142h-93z" />
    <glyph glyph-name="lacute" unicode="&#x13a;" horiz-adv-x="260" 
d="M73 0v712h114v-712h-114zM71 772l81 144h144l-132 -144h-93z" />
    <glyph glyph-name="Lcommaaccent" unicode="&#x13b;" horiz-adv-x="568" 
d="M558 104v-104h-470v712h120v-608h350zM315 -264h-47l42 106h-40v96h107v-96z" />
    <glyph glyph-name="lcommaaccent" unicode="&#x13c;" horiz-adv-x="260" 
d="M73 0v712h114v-712h-114zM122 -264h-47l42 106h-40v96h107v-96z" />
    <glyph glyph-name="Lcaron" unicode="&#x13d;" horiz-adv-x="568" 
d="M558 104v-104h-470v712h120v-608h350zM257 491l28 221h95l-57 -221h-66z" />
    <glyph glyph-name="lcaron" unicode="&#x13e;" horiz-adv-x="260" 
d="M73 0v712h114v-712h-114zM219 535l28 177h95l-57 -177h-66z" />
    <glyph glyph-name="Ldot" unicode="&#x13f;" horiz-adv-x="648" 
d="M558 104v-104h-470v712h120v-608h350zM401 352v141h132v-141h-132z" />
    <glyph glyph-name="ldot" unicode="&#x140;" horiz-adv-x="441" 
d="M73 0v712h114v-712h-114zM285 285v141h132v-141h-132z" />
    <glyph glyph-name="Lslash" unicode="&#x141;" horiz-adv-x="568" 
d="M558 0h-470v292l-74 -44v102l74 44v318h120v-255l143 86v-103l-143 -86v-250h350v-104z" />
    <glyph glyph-name="lslash" unicode="&#x142;" horiz-adv-x="309" 
d="M211 361v-361h-114v307l-87 -52v97l87 52v308h114v-254l88 52v-97z" />
    <glyph glyph-name="Nacute" unicode="&#x143;" horiz-adv-x="766" 
d="M505 0l-154 298q-81 158 -151 306h-2q6 -162 6 -324v-280h-116v712h173l153 -298q81 -158 151 -306h2q-5 180 -5 324v280h115v-712h-172zM307 760l81 142h144l-132 -142h-93z" />
    <glyph glyph-name="nacute" unicode="&#x144;" 
d="M471.5 467q48.5 -53 48.5 -156v-311h-114v301q0 127 -103 127q-51 0 -83.5 -38t-32.5 -108v-282h-114v508h108v-66h2q25 36 64 57t88 21q88 0 136.5 -53zM221 568l81 144h144l-132 -144h-93z" />
    <glyph glyph-name="Ncommaaccent" unicode="&#x145;" horiz-adv-x="766" 
d="M505 0l-154 298q-81 158 -151 306h-2q6 -162 6 -324v-280h-116v712h173l153 -298q81 -158 151 -306h2q-5 180 -5 324v280h115v-712h-172zM375 -264h-47l42 106h-40v96h107v-96z" />
    <glyph glyph-name="ncommaaccent" unicode="&#x146;" 
d="M471.5 467q48.5 -53 48.5 -156v-311h-114v301q0 127 -103 127q-51 0 -83.5 -38t-32.5 -108v-282h-114v508h108v-66h2q25 36 64 57t88 21q88 0 136.5 -53zM288 -264h-47l42 106h-40v96h107v-96z" />
    <glyph glyph-name="Ncaron" unicode="&#x147;" horiz-adv-x="766" 
d="M505 0l-154 298q-81 158 -151 306h-2q6 -162 6 -324v-280h-116v712h173l153 -298q81 -158 151 -306h2q-5 180 -5 324v280h115v-712h-172zM321 760l-114 142h108l68 -82l67 82h108l-114 -142h-123z" />
    <glyph glyph-name="ncaron" unicode="&#x148;" 
d="M471.5 467q48.5 -53 48.5 -156v-311h-114v301q0 127 -103 127q-51 0 -83.5 -38t-32.5 -108v-282h-114v508h108v-66h2q25 36 64 57t88 21q88 0 136.5 -53zM235 568l-114 144h108l68 -84l67 84h108l-114 -144h-123z" />
    <glyph glyph-name="napostrophe" unicode="&#x149;" horiz-adv-x="722" 
d="M125 447h-62l41 140h-39v125h115v-125zM605.5 467q48.5 -53 48.5 -156v-311h-114v301q0 127 -103 127q-51 0 -83.5 -38t-32.5 -108v-282h-114v508h108v-66h2q25 36 64 57t88 21q88 0 136.5 -53z" />
    <glyph glyph-name="Eng" unicode="&#x14a;" horiz-adv-x="745" 
d="M657 -25q0 -86 -43 -126.5t-118 -40.5q-26 0 -58 7v85q15 -3 30 -3q38 0 56 20t18 68v15l-194 324q-75 124 -149 261h-2q7 -133 7 -285v-300h-116v712h155l154 -258q91 -154 149 -262h2q-7 133 -7 285v235h116v-737z" />
    <glyph glyph-name="eng" unicode="&#x14b;" 
d="M468 471q28 -28 40 -67.5t12 -105.5v-320q0 -86 -42.5 -126.5t-117.5 -40.5q-33 0 -58 7v85q14 -3 28 -3q39 0 57.5 20.5t18.5 71.5v296q0 46 -6.5 70.5t-22.5 42.5q-25 28 -73 28q-51 0 -84 -38t-33 -109v-282h-114v508h109v-66h2q27 40 67 59t87 19q84 0 130 -49z" />
    <glyph glyph-name="Omacron" unicode="&#x14c;" horiz-adv-x="740" 
d="M545.5 682q74.5 -45 114.5 -128.5t40 -197.5t-40 -197.5t-114.5 -128.5t-175.5 -45t-175.5 45t-114.5 128.5t-40 197.5t40 197.5t114.5 128.5t175.5 45t175.5 -45zM219.5 549q-55.5 -71 -55.5 -193t55.5 -193t150.5 -71t150.5 71t55.5 193t-55.5 193t-150.5 71
t-150.5 -71zM217 783v78h305v-78h-305z" />
    <glyph glyph-name="omacron" unicode="&#x14d;" horiz-adv-x="577" 
d="M421.5 490q56.5 -33 87 -93.5t30.5 -142.5t-30.5 -142.5t-87 -93.5t-132.5 -33t-133 33t-87.5 93.5t-30.5 142.5t30.5 142.5t87.5 93.5t133 33t132.5 -33zM193 385q-35 -48 -35 -131t35 -131t96 -48t96 48t35 131t-35 131t-96 48t-96 -48zM136 607v78h305v-78h-305z" />
    <glyph glyph-name="Obreve" unicode="&#x14e;" horiz-adv-x="740" 
d="M545.5 682q74.5 -45 114.5 -128.5t40 -197.5t-40 -197.5t-114.5 -128.5t-175.5 -45t-175.5 45t-114.5 128.5t-40 197.5t40 197.5t114.5 128.5t175.5 45t175.5 -45zM219.5 549q-55.5 -71 -55.5 -193t55.5 -193t150.5 -71t150.5 71t55.5 193t-55.5 193t-150.5 71
t-150.5 -71zM487.5 793.5q-43.5 -38.5 -117.5 -38.5q-73 0 -116.5 38.5t-48.5 108.5h80q4 -34 26 -53t59 -19t59 19t26 53h81q-5 -70 -48.5 -108.5z" />
    <glyph glyph-name="obreve" unicode="&#x14f;" horiz-adv-x="577" 
d="M421.5 490q56.5 -33 87 -93.5t30.5 -142.5t-30.5 -142.5t-87 -93.5t-132.5 -33t-133 33t-87.5 93.5t-30.5 142.5t30.5 142.5t87.5 93.5t133 33t132.5 -33zM193 385q-35 -48 -35 -131t35 -131t96 -48t96 48t35 131t-35 131t-96 48t-96 -48zM405.5 603.5
q-43.5 -38.5 -117.5 -38.5q-73 0 -116.5 38.5t-48.5 108.5h80q4 -34 26 -53t59 -19t59 19t26 53h81q-5 -70 -48.5 -108.5z" />
    <glyph glyph-name="Ohungarumlaut" unicode="&#x150;" horiz-adv-x="740" 
d="M545.5 682q74.5 -45 114.5 -128.5t40 -197.5t-40 -197.5t-114.5 -128.5t-175.5 -45t-175.5 45t-114.5 128.5t-40 197.5t40 197.5t114.5 128.5t175.5 45t175.5 -45zM219.5 549q-55.5 -71 -55.5 -193t55.5 -193t150.5 -71t150.5 71t55.5 193t-55.5 193t-150.5 71
t-150.5 -71zM200 758l101 144h129l-138 -144h-92zM375 758l101 144h129l-138 -144h-92z" />
    <glyph glyph-name="ohungarumlaut" unicode="&#x151;" horiz-adv-x="577" 
d="M421.5 490q56.5 -33 87 -93.5t30.5 -142.5t-30.5 -142.5t-87 -93.5t-132.5 -33t-133 33t-87.5 93.5t-30.5 142.5t30.5 142.5t87.5 93.5t133 33t132.5 -33zM193 385q-35 -48 -35 -131t35 -131t96 -48t96 48t35 131t-35 131t-96 48t-96 -48zM133 568l101 144h129l-138 -144
h-92zM308 568l101 144h129l-138 -144h-92z" />
    <glyph glyph-name="OE" unicode="&#x152;" horiz-adv-x="1010" 
d="M592 608v-193h334v-103h-334v-208h366v-104h-544q-179 0 -276.5 92.5t-97.5 263.5t97.5 263.5t276.5 92.5h534v-104h-356zM227 544.5q-63 -63.5 -63 -188.5t63 -188.5t187 -63.5h58v504h-58q-124 0 -187 -63.5z" />
    <glyph glyph-name="oe" unicode="&#x153;" horiz-adv-x="913" 
d="M715.5 92q29.5 23 36.5 61h116q-9 -47 -38.5 -85t-78 -60.5t-110.5 -22.5q-58 0 -103 22.5t-75 65.5q-30 -42 -76 -65t-103 -23q-75 0 -130.5 33t-85.5 93.5t-30 142.5t30 142.5t85.5 93.5t130.5 33q57 0 103 -22.5t75 -64.5q30 42 75 64.5t102 22.5q83 0 142.5 -46.5
t80.5 -126.5q13 -52 13 -119h-360q2 -82 36.5 -122t89.5 -40q45 0 74.5 23zM556.5 405q-32.5 -34 -39.5 -99h244q-5 65 -38 99t-84 34q-50 0 -82.5 -34zM376 123.5q34 48.5 34 130.5t-34 130.5t-92 48.5t-92 -48t-34 -131t34 -131t92 -48t92 48.5z" />
    <glyph glyph-name="Racute" unicode="&#x154;" horiz-adv-x="653" 
d="M524 661q63 -51 63 -146q0 -67 -35.5 -114t-96.5 -62v-2q38 -13 60 -41t46 -95l73 -201h-131l-60 179q-21 61 -49.5 84t-82.5 23h-103v-286h-120v712h245q128 0 191 -51zM208 384h119q71 0 105 31t34 85q0 113 -146 113h-112v-229zM244 760l81 142h144l-132 -142h-93z
" />
    <glyph glyph-name="racute" unicode="&#x155;" horiz-adv-x="377" 
d="M368 510v-101q-19 4 -40 4q-68 0 -104.5 -42.5t-36.5 -121.5v-249h-114v508h106v-75h2q51 82 145 82q20 0 42 -5zM132 568l81 144h144l-132 -144h-93z" />
    <glyph glyph-name="Rcommaaccent" unicode="&#x156;" horiz-adv-x="653" 
d="M524 661q63 -51 63 -146q0 -67 -35.5 -114t-96.5 -62v-2q38 -13 60 -41t46 -95l73 -201h-131l-60 179q-21 61 -49.5 84t-82.5 23h-103v-286h-120v712h245q128 0 191 -51zM208 384h119q71 0 105 31t34 85q0 113 -146 113h-112v-229zM335 -264h-47l42 106h-40v96h107v-96z
" />
    <glyph glyph-name="rcommaaccent" unicode="&#x157;" horiz-adv-x="377" 
d="M368 510v-101q-19 4 -40 4q-68 0 -104.5 -42.5t-36.5 -121.5v-249h-114v508h106v-75h2q51 82 145 82q20 0 42 -5zM122 -264h-47l42 106h-40v96h107v-96z" />
    <glyph glyph-name="Rcaron" unicode="&#x158;" horiz-adv-x="653" 
d="M524 661q63 -51 63 -146q0 -67 -35.5 -114t-96.5 -62v-2q38 -13 60 -41t46 -95l73 -201h-131l-60 179q-21 61 -49.5 84t-82.5 23h-103v-286h-120v712h245q128 0 191 -51zM208 384h119q71 0 105 31t34 85q0 113 -146 113h-112v-229zM258 760l-114 142h108l68 -82l67 82
h108l-114 -142h-123z" />
    <glyph glyph-name="rcaron" unicode="&#x159;" horiz-adv-x="377" 
d="M368 510v-101q-19 4 -40 4q-68 0 -104.5 -42.5t-36.5 -121.5v-249h-114v508h106v-75h2q51 82 145 82q20 0 42 -5zM146 568l-114 144h108l68 -84l67 84h108l-114 -144h-123z" />
    <glyph glyph-name="Sacute" unicode="&#x15a;" horiz-adv-x="620" 
d="M490.5 667.5q66.5 -59.5 66.5 -174.5h-121q0 67 -37 101.5t-106 34.5q-58 0 -91.5 -25.5t-33.5 -69.5q0 -32 16.5 -51.5t50 -33t96.5 -28.5q82 -20 132.5 -41.5t82 -63.5t31.5 -113q0 -65 -33 -114.5t-93.5 -76.5t-139.5 -27q-131 0 -204 64.5t-73 185.5h123
q0 -75 40 -113t115 -38q66 0 103.5 29t37.5 79q0 35 -17 55t-48.5 32t-95.5 28q-84 21 -134 42t-81.5 62.5t-31.5 111.5q0 60 31 106.5t87.5 72t131.5 25.5q129 0 195.5 -59.5zM219 760l81 142h144l-132 -142h-93z" />
    <glyph glyph-name="sacute" unicode="&#x15b;" horiz-adv-x="509" 
d="M399.5 478.5q53.5 -44.5 54.5 -128.5h-110q0 45 -25 67.5t-72 22.5q-40 0 -62 -16t-22 -44q0 -21 11.5 -33.5t33.5 -20t70 -19.5q66 -17 102.5 -31.5t63 -47t26.5 -88.5q0 -70 -58 -112.5t-155 -42.5q-104 0 -161.5 46.5t-58.5 135.5h116q0 -47 27.5 -72t78.5 -25
q43 0 67.5 17t24.5 46q0 25 -13 39.5t-37.5 23t-77.5 21.5q-59 15 -92.5 28t-57.5 43t-24 83q0 45 25 79.5t70 53.5t104 19q98 0 151.5 -44.5zM172 568l81 144h144l-132 -144h-93z" />
    <glyph glyph-name="Scircumflex" unicode="&#x15c;" horiz-adv-x="620" 
d="M490.5 667.5q66.5 -59.5 66.5 -174.5h-121q0 67 -37 101.5t-106 34.5q-58 0 -91.5 -25.5t-33.5 -69.5q0 -32 16.5 -51.5t50 -33t96.5 -28.5q82 -20 132.5 -41.5t82 -63.5t31.5 -113q0 -65 -33 -114.5t-93.5 -76.5t-139.5 -27q-131 0 -204 64.5t-73 185.5h123
q0 -75 40 -113t115 -38q66 0 103.5 29t37.5 79q0 35 -17 55t-48.5 32t-95.5 28q-84 21 -134 42t-81.5 62.5t-31.5 111.5q0 60 31 106.5t87.5 72t131.5 25.5q129 0 195.5 -59.5zM356 902l114 -142h-108l-68 82l-67 -82h-108l114 142h123z" />
    <glyph glyph-name="scircumflex" unicode="&#x15d;" horiz-adv-x="509" 
d="M399.5 478.5q53.5 -44.5 54.5 -128.5h-110q0 45 -25 67.5t-72 22.5q-40 0 -62 -16t-22 -44q0 -21 11.5 -33.5t33.5 -20t70 -19.5q66 -17 102.5 -31.5t63 -47t26.5 -88.5q0 -70 -58 -112.5t-155 -42.5q-104 0 -161.5 46.5t-58.5 135.5h116q0 -47 27.5 -72t78.5 -25
q43 0 67.5 17t24.5 46q0 25 -13 39.5t-37.5 23t-77.5 21.5q-59 15 -92.5 28t-57.5 43t-24 83q0 45 25 79.5t70 53.5t104 19q98 0 151.5 -44.5zM248 652l-68 -84h-108l114 144h123l114 -144h-108z" />
    <glyph glyph-name="Scedilla" unicode="&#x15e;" horiz-adv-x="620" 
d="M511.5 51q-65.5 -59 -175.5 -65l-30 -48q9 4 29 4q35 0 59 -20t24 -54q0 -39 -30.5 -65t-86.5 -26q-57 0 -109 29l20 40q39 -21 79 -21q25 0 39 10t14 28t-13.5 29t-37.5 11q-17 0 -32 -6l-19 21l43 68q-119 6 -185 70t-66 179h123q0 -75 40 -113t115 -38q66 0 103.5 29
t37.5 79q0 35 -17 55t-48.5 32t-95.5 28q-84 21 -134 42t-81.5 62.5t-31.5 111.5q0 60 31 106.5t87.5 72t131.5 25.5q129 0 195.5 -59.5t66.5 -174.5h-121q0 67 -37 101.5t-106 34.5q-58 0 -91.5 -25.5t-33.5 -69.5q0 -32 16.5 -51.5t50 -33t96.5 -28.5q82 -20 132.5 -41.5
t82 -63.5t31.5 -113q0 -93 -65.5 -152z" />
    <glyph glyph-name="scedilla" unicode="&#x15f;" horiz-adv-x="509" 
d="M421 34.5q-49 -41.5 -134 -48.5l-30 -48q9 4 29 4q35 0 59 -20t24 -54q0 -39 -30.5 -65t-86.5 -26q-57 0 -109 29l20 40q39 -21 79 -21q25 0 39 10t14 28t-13.5 29t-37.5 11q-17 0 -32 -6l-19 21l43 68q-95 5 -146.5 50.5t-52.5 130.5h116q0 -47 27.5 -72t78.5 -25
q43 0 67.5 17t24.5 46q0 25 -13 39.5t-37.5 23t-77.5 21.5q-59 15 -92.5 28t-57.5 43t-24 83q0 45 25 79.5t70 53.5t104 19q98 0 151.5 -44.5t54.5 -128.5h-110q0 45 -25 67.5t-72 22.5q-40 0 -62 -16t-22 -44q0 -21 11.5 -33.5t33.5 -20t70 -19.5q66 -17 102.5 -31.5
t63 -47t26.5 -88.5q0 -64 -49 -105.5z" />
    <glyph glyph-name="Scaron" unicode="&#x160;" horiz-adv-x="620" 
d="M490.5 667.5q66.5 -59.5 66.5 -174.5h-121q0 67 -37 101.5t-106 34.5q-58 0 -91.5 -25.5t-33.5 -69.5q0 -32 16.5 -51.5t50 -33t96.5 -28.5q82 -20 132.5 -41.5t82 -63.5t31.5 -113q0 -65 -33 -114.5t-93.5 -76.5t-139.5 -27q-131 0 -204 64.5t-73 185.5h123
q0 -75 40 -113t115 -38q66 0 103.5 29t37.5 79q0 35 -17 55t-48.5 32t-95.5 28q-84 21 -134 42t-81.5 62.5t-31.5 111.5q0 60 31 106.5t87.5 72t131.5 25.5q129 0 195.5 -59.5zM233 760l-114 142h108l68 -82l67 82h108l-114 -142h-123z" />
    <glyph glyph-name="scaron" unicode="&#x161;" horiz-adv-x="509" 
d="M399.5 478.5q53.5 -44.5 54.5 -128.5h-110q0 45 -25 67.5t-72 22.5q-40 0 -62 -16t-22 -44q0 -21 11.5 -33.5t33.5 -20t70 -19.5q66 -17 102.5 -31.5t63 -47t26.5 -88.5q0 -70 -58 -112.5t-155 -42.5q-104 0 -161.5 46.5t-58.5 135.5h116q0 -47 27.5 -72t78.5 -25
q43 0 67.5 17t24.5 46q0 25 -13 39.5t-37.5 23t-77.5 21.5q-59 15 -92.5 28t-57.5 43t-24 83q0 45 25 79.5t70 53.5t104 19q98 0 151.5 -44.5zM186 568l-114 144h108l68 -84l67 84h108l-114 -144h-123z" />
    <glyph glyph-name="uni0162" unicode="&#x162;" horiz-adv-x="607" 
d="M363 608v-608h-119v608h-234v104h587v-104h-234zM296 -264h-47l42 106h-40v96h107v-96z" />
    <glyph glyph-name="uni0163" unicode="&#x163;" horiz-adv-x="339" 
d="M312 92v-89q-31 -9 -64 -9q-81 0 -117.5 36.5t-36.5 119.5v271h-85v87h85v127h114v-127h99v-87h-99v-254q0 -43 16 -61.5t53 -18.5q22 0 35 5zM243 -62v-96l-62 -106h-47l42 106h-40v96h107z" />
    <glyph glyph-name="Tcaron" unicode="&#x164;" horiz-adv-x="607" 
d="M363 608v-608h-119v608h-234v104h587v-104h-234zM242 760l-114 142h108l68 -82l67 82h108l-114 -142h-123z" />
    <glyph glyph-name="tcaron" unicode="&#x165;" horiz-adv-x="339" 
d="M312 92v-89q-31 -9 -64 -9q-81 0 -117.5 36.5t-36.5 119.5v271h-85v87h85v127h114v-127h99v-87h-99v-254q0 -43 16 -61.5t53 -18.5q22 0 35 5zM240 535l28 177h95l-57 -177h-66z" />
    <glyph glyph-name="Tbar" unicode="&#x166;" horiz-adv-x="607" 
d="M363 404h139v-88h-139v-316h-119v316h-138v88h138v204h-234v104h587v-104h-234v-204z" />
    <glyph glyph-name="tbar" unicode="&#x167;" horiz-adv-x="337" 
d="M312 92v-89q-31 -9 -64 -9q-81 0 -117 36.5t-36 119.5v84h-83v71h83v116h-86v87h86v127h113v-127h99v-87h-99v-116h96v-71h-96v-67q0 -43 16 -61.5t53 -18.5q22 0 35 5z" />
    <glyph glyph-name="Utilde" unicode="&#x168;" horiz-adv-x="712" 
d="M558.5 58q-70.5 -73 -202.5 -73t-203 73t-71 211v443h120v-439q0 -89 40 -135t114 -46t114 46t40 135v439h119v-443q0 -138 -70.5 -211zM504.5 807q-28.5 -33 -77.5 -33q-22 0 -39.5 7t-42.5 21q-19 11 -30.5 16t-24.5 5q-40 0 -46 -49h-68q3 59 32 92t78 33
q23 0 41 -7.5t41 -20.5q21 -11 31.5 -15.5t22.5 -4.5q42 0 46 48h68q-3 -59 -31.5 -92z" />
    <glyph glyph-name="utilde" unicode="&#x169;" 
d="M116.5 41q-48.5 53 -48.5 156v311h114v-301q0 -127 103 -127q51 0 83.5 38t32.5 108v282h114v-508h-108v66h-2q-25 -36 -64 -57t-88 -21q-88 0 -136.5 53zM442.5 617q-28.5 -33 -77.5 -33q-23 0 -41 7t-41 20q-19 11 -30.5 16t-24.5 5q-40 0 -46 -48h-68q3 59 32 92
t78 33q23 0 41 -7.5t41 -20.5q19 -11 30.5 -16t23.5 -5q41 0 46 49h68q-3 -59 -31.5 -92z" />
    <glyph glyph-name="Umacron" unicode="&#x16a;" horiz-adv-x="712" 
d="M558.5 58q-70.5 -73 -202.5 -73t-203 73t-71 211v443h120v-439q0 -89 40 -135t114 -46t114 46t40 135v439h119v-443q0 -138 -70.5 -211zM203 783v78h305v-78h-305z" />
    <glyph glyph-name="umacron" unicode="&#x16b;" 
d="M116.5 41q-48.5 53 -48.5 156v311h114v-301q0 -127 103 -127q51 0 83.5 38t32.5 108v282h114v-508h-108v66h-2q-25 -36 -64 -57t-88 -21q-88 0 -136.5 53zM141 607v78h305v-78h-305z" />
    <glyph glyph-name="Ubreve" unicode="&#x16c;" horiz-adv-x="712" 
d="M558.5 58q-70.5 -73 -202.5 -73t-203 73t-71 211v443h120v-439q0 -89 40 -135t114 -46t114 46t40 135v439h119v-443q0 -138 -70.5 -211zM473.5 793.5q-43.5 -38.5 -117.5 -38.5q-73 0 -116.5 38.5t-48.5 108.5h80q4 -34 26 -53t59 -19t59 19t26 53h81
q-5 -70 -48.5 -108.5z" />
    <glyph glyph-name="ubreve" unicode="&#x16d;" 
d="M116.5 41q-48.5 53 -48.5 156v311h114v-301q0 -127 103 -127q51 0 83.5 38t32.5 108v282h114v-508h-108v66h-2q-25 -36 -64 -57t-88 -21q-88 0 -136.5 53zM411.5 603.5q-43.5 -38.5 -117.5 -38.5q-73 0 -116.5 38.5t-48.5 108.5h80q4 -34 26 -53t59 -19t59 19t26 53h81
q-5 -70 -48.5 -108.5z" />
    <glyph glyph-name="Uring" unicode="&#x16e;" horiz-adv-x="712" 
d="M558.5 58q-70.5 -73 -202.5 -73t-203 73t-71 211v443h120v-439q0 -89 40 -135t114 -46t114 46t40 135v439h119v-443q0 -138 -70.5 -211zM430 929q30 -30 30 -74q0 -43 -30 -73.5t-74 -30.5q-43 0 -73.5 30.5t-30.5 73.5q0 44 30.5 74t73.5 30q44 0 74 -30zM316.5 894.5
q-16.5 -16.5 -16.5 -39.5t16.5 -39.5t39.5 -16.5t39.5 16.5t16.5 39.5t-16.5 39.5t-39.5 16.5t-39.5 -16.5z" />
    <glyph glyph-name="uring" unicode="&#x16f;" 
d="M116.5 41q-48.5 53 -48.5 156v311h114v-301q0 -127 103 -127q51 0 83.5 38t32.5 108v282h114v-508h-108v66h-2q-25 -36 -64 -57t-88 -21q-88 0 -136.5 53zM368 739q30 -30 30 -74q0 -43 -30 -73.5t-74 -30.5q-43 0 -73.5 30.5t-30.5 73.5q0 44 30.5 74t73.5 30
q44 0 74 -30zM254.5 704.5q-16.5 -16.5 -16.5 -39.5t16.5 -39.5t39.5 -16.5t39.5 16.5t16.5 39.5t-16.5 39.5t-39.5 16.5t-39.5 -16.5z" />
    <glyph glyph-name="Uhungarumlaut" unicode="&#x170;" horiz-adv-x="712" 
d="M558.5 58q-70.5 -73 -202.5 -73t-203 73t-71 211v443h120v-439q0 -89 40 -135t114 -46t114 46t40 135v439h119v-443q0 -138 -70.5 -211zM186 758l101 144h129l-138 -144h-92zM361 758l101 144h129l-138 -144h-92z" />
    <glyph glyph-name="uhungarumlaut" unicode="&#x171;" 
d="M116.5 41q-48.5 53 -48.5 156v311h114v-301q0 -127 103 -127q51 0 83.5 38t32.5 108v282h114v-508h-108v66h-2q-25 -36 -64 -57t-88 -21q-88 0 -136.5 53zM138 568l101 144h129l-138 -144h-92zM313 568l101 144h129l-138 -144h-92z" />
    <glyph glyph-name="Uogonek" unicode="&#x172;" horiz-adv-x="712" 
d="M600.5 119.5q-28.5 -61.5 -85.5 -106.5q-40 -30 -55.5 -53.5t-15.5 -47.5q0 -40 38 -40q21 0 37 6v-62q-27 -11 -68 -11q-53 0 -79.5 23t-26.5 64q0 28 13.5 50t43.5 46v2q-23 -5 -46 -5q-132 0 -203 73t-71 211v443h120v-439q0 -89 40 -135t114 -46t114 46t40 135v439
h119v-443q0 -88 -28.5 -149.5z" />
    <glyph glyph-name="uogonek" unicode="&#x173;" 
d="M517 -122v-62q-27 -11 -68 -11q-53 0 -79.5 21.5t-26.5 61.5q0 32 18.5 57t59.5 55h-14v66h-2q-25 -36 -64 -57t-88 -21q-88 0 -136.5 53t-48.5 156v311h114v-301q0 -127 103 -127q51 0 83.5 38t32.5 108v282h114v-508h-1q-40 -28 -56 -50t-16 -45q0 -33 38 -33
q21 0 37 6z" />
    <glyph glyph-name="Wcircumflex" unicode="&#x174;" horiz-adv-x="936" 
d="M608 0l-71 296q-40 168 -68 313h-2q-28 -145 -68 -313l-71 -296h-161l-157 712h118l58 -274q39 -180 63 -321h2q37 176 72 322l66 273h158l66 -273q35 -146 72 -322h2q21 122 62 321l59 274h118l-157 -712h-161zM528 902l114 -142h-108l-68 82l-67 -82h-108l114 142h123z
" />
    <glyph glyph-name="wcircumflex" unicode="&#x175;" horiz-adv-x="790" 
d="M497 0l-52 210q-24 97 -49 219h-2q-25 -122 -49 -219l-52 -210h-163l-124 508h114l46 -204q28 -120 46 -225h2q19 93 50 221l51 208h160l51 -208q31 -128 50 -221h2q18 105 46 225l46 204h114l-124 -508h-163zM395 652l-68 -84h-108l114 144h123l114 -144h-108z" />
    <glyph glyph-name="Ycircumflex" unicode="&#x176;" horiz-adv-x="626" 
d="M373 0h-120v286l-250 426h136l78 -141q50 -90 95 -184h2q48 100 96 184l77 141h135l-249 -426v-286zM374 902l114 -142h-108l-68 82l-67 -82h-108l114 142h123z" />
    <glyph glyph-name="ycircumflex" unicode="&#x177;" horiz-adv-x="488" 
d="M245 -123q-29 -36 -69 -51.5t-100 -15.5q-31 0 -57 7v93q23 -7 48 -7q46 0 70.5 20t42.5 73l-186 512h122l127 -378h2l131 378h118l-196 -530q-24 -65 -53 -101zM244 652l-68 -84h-108l114 144h123l114 -144h-108z" />
    <glyph glyph-name="Ydieresis" unicode="&#x178;" horiz-adv-x="626" 
d="M373 0h-120v286l-250 426h136l78 -141q50 -90 95 -184h2q48 100 96 184l77 141h135l-249 -426v-286zM159 772v109h102v-109h-102zM365 772v109h102v-109h-102z" />
    <glyph glyph-name="Zacute" unicode="&#x179;" horiz-adv-x="574" 
d="M161 104v-2h394v-102h-536v109l376 499v2h-362v102h504v-109zM209 760l81 142h144l-132 -142h-93z" />
    <glyph glyph-name="zacute" unicode="&#x17a;" horiz-adv-x="476" 
d="M165 93v-2h284v-91h-422v95l274 320v2h-264v91h402v-95zM154 568l81 144h144l-132 -144h-93z" />
    <glyph glyph-name="Zdotaccent" unicode="&#x17b;" horiz-adv-x="574" 
d="M161 104v-2h394v-102h-536v109l376 499v2h-362v102h504v-109zM228 769v109h114v-109h-114z" />
    <glyph glyph-name="zdotaccent" unicode="&#x17c;" horiz-adv-x="476" 
d="M165 93v-2h284v-91h-422v95l274 320v2h-264v91h402v-95zM173 603v109h114v-109h-114z" />
    <glyph glyph-name="Zcaron" unicode="&#x17d;" horiz-adv-x="574" 
d="M161 104v-2h394v-102h-536v109l376 499v2h-362v102h504v-109zM223 760l-114 142h108l68 -82l67 82h108l-114 -142h-123z" />
    <glyph glyph-name="zcaron" unicode="&#x17e;" horiz-adv-x="476" 
d="M165 93v-2h284v-91h-422v95l274 320v2h-264v91h402v-95zM168 568l-114 144h108l68 -84l67 84h108l-114 -144h-123z" />
    <glyph glyph-name="longs" unicode="&#x17f;" horiz-adv-x="323" 
d="M312 712v-84q-14 4 -28 4q-37 0 -55 -19.5t-18 -63.5v-549h-113v421h-86v87h86v54q0 78 39 117.5t115 39.5q25 0 60 -7z" />
    <glyph glyph-name="Schwa" unicode="&#x18f;" horiz-adv-x="752" 
d="M550.5 681.5q78.5 -45.5 120.5 -129t42 -195.5q0 -107 -41.5 -191.5t-118.5 -132.5t-181 -48q-101 0 -176 45t-115.5 128.5t-40.5 196.5q0 22 2 42h546q-6 112 -67.5 168.5t-156.5 56.5q-73 0 -119 -34.5t-59 -90.5h-128q13 64 52.5 116t104 83t150.5 31
q107 0 185.5 -45.5zM517 145.5q57 53.5 68 150.5h-420q10 -99 66.5 -151.5t140.5 -52.5q88 0 145 53.5z" />
    <glyph glyph-name="florin" unicode="&#x192;" horiz-adv-x="581" 
d="M560 713v-91q-19 6 -47 6q-43 0 -66.5 -22t-36.5 -76l-16 -62h110v-86h-130l-97 -382q-18 -71 -42.5 -112t-62 -59.5t-93.5 -18.5q-35 0 -57 7v91q18 -6 44 -6q40 0 61.5 22t38.5 86l94 372h-101v86h121l19 72q24 96 69 138.5t124 42.5q38 0 68 -8z" />
    <glyph glyph-name="Aringacute" unicode="&#x1fa;" horiz-adv-x="687" 
d="M196 193l-66 -193h-126l259 712h161l259 -712h-126l-66 193h-295zM436 353q-60 178 -92 283h-2q-53 -173 -91 -283l-19 -56h223zM417 911q30 -30 30 -74q0 -43 -30 -73.5t-74 -30.5q-43 0 -73.5 30.5t-30.5 73.5q0 44 30.5 74t73.5 30q44 0 74 -30zM303.5 876.5
q-16.5 -16.5 -16.5 -39.5t16.5 -39.5t39.5 -16.5t39.5 16.5t16.5 39.5t-16.5 39.5t-39.5 16.5t-39.5 -16.5zM267 962l81 142h144l-132 -142h-93z" />
    <glyph glyph-name="aringacute" unicode="&#x1fb;" horiz-adv-x="539" 
d="M418.5 473q53.5 -50 53.5 -149v-190q0 -82 13 -134h-103q-7 31 -7 71h-2q-56 -82 -171 -82q-78 0 -125 42.5t-47 108.5q0 65 44.5 104t150.5 56q64 11 137 15v20q0 54 -26.5 79.5t-72.5 25.5t-72 -24t-28 -65h-112q4 76 58.5 124t153.5 48q102 0 155.5 -50zM245 228
q-55 -9 -77.5 -27t-22.5 -53q0 -34 23.5 -54.5t66.5 -20.5q27 0 51 8.5t41 25.5q20 21 27.5 44.5t7.5 64.5v25q-65 -4 -117 -13zM331 724q30 -30 30 -74q0 -43 -30 -73.5t-74 -30.5q-43 0 -73.5 30.5t-30.5 73.5q0 44 30.5 74t73.5 30q44 0 74 -30zM217.5 689.5
q-16.5 -16.5 -16.5 -39.5t16.5 -39.5t39.5 -16.5t39.5 16.5t16.5 39.5t-16.5 39.5t-39.5 16.5t-39.5 -16.5zM181 778l81 144h144l-132 -144h-93z" />
    <glyph glyph-name="AEacute" unicode="&#x1fc;" horiz-adv-x="951" 
d="M900 0h-385l-30 202h-264l-92 -202h-135l340 712h556v-104h-348l28 -193h298v-103h-283l31 -208h284v-104zM425 614h-15l-142 -310h202zM437 760l81 142h144l-132 -142h-93z" />
    <glyph glyph-name="aeacute" unicode="&#x1fd;" horiz-adv-x="871" 
d="M674 92q29 23 36 61h117q-9 -47 -38.5 -85t-78 -60.5t-110.5 -22.5q-61 0 -108 25.5t-77 72.5q-30 -48 -80.5 -73t-115.5 -25q-57 0 -100 20t-66 55t-23 80q0 78 57.5 120.5t187.5 42.5h94v32q0 105 -102 105q-48 0 -74.5 -24t-28.5 -65h-113q5 76 60.5 124t155.5 48
q117 0 168 -69q63 69 163 69q83 0 142.5 -46.5t80.5 -126.5q12 -48 12 -119h-359q2 -82 36.5 -122t89.5 -40q45 0 74 23zM514.5 404q-32.5 -35 -39.5 -101h244q-4 66 -37 101t-84 35t-83.5 -35zM288 231q-79 0 -111 -20.5t-32 -62.5q0 -36 24.5 -57.5t67.5 -21.5q28 0 53 9
t42 27q21 21 29 45t8 66v15h-81zM356 568l81 144h144l-132 -144h-93z" />
    <glyph glyph-name="Oslashacute" unicode="&#x1fe;" horiz-adv-x="740" 
d="M678 508q22 -68 22 -152q0 -114 -40 -197.5t-114.5 -128.5t-175.5 -45q-113 0 -192 56l-59 -79l-56 44l62 83q-42 48 -63.5 116t-21.5 151q0 114 40 197.5t114.5 128.5t175.5 45q112 0 193 -56l59 79l55 -43l-62 -83q41 -48 63 -116zM198 186l298 396q-52 43 -126 43
q-97 0 -153.5 -72t-56.5 -197q0 -103 38 -170zM523.5 159q56.5 72 56.5 197q0 103 -38 170l-297 -396q51 -43 125 -43q97 0 153.5 72zM294 760l81 142h144l-132 -142h-93z" />
    <glyph glyph-name="oslashacute" unicode="&#x1ff;" horiz-adv-x="578" 
d="M523 363.5q17 -49.5 17 -109.5q0 -82 -30.5 -142.5t-87.5 -93.5t-133 -33q-81 0 -138 36l-51 -68l-48 36l53 70q-33 35 -50 84.5t-17 110.5q0 82 30.5 142.5t87.5 93.5t133 33q80 0 139 -36l51 68l48 -37l-53 -70q32 -35 49 -84.5zM189 387.5q-37 -49.5 -37 -133.5
q0 -62 20 -105l197 260q-34 28 -80 28q-63 0 -100 -49.5zM389 120q37 49 37 134q0 57 -20 105l-197 -261q33 -27 80 -27q63 0 100 49zM213 568l81 144h144l-132 -144h-93z" />
    <glyph glyph-name="Scommaaccent" unicode="&#x218;" horiz-adv-x="620" 
d="M490.5 667.5q66.5 -59.5 66.5 -174.5h-121q0 67 -37 101.5t-106 34.5q-58 0 -91.5 -25.5t-33.5 -69.5q0 -32 16.5 -51.5t50 -33t96.5 -28.5q82 -20 132.5 -41.5t82 -63.5t31.5 -113q0 -65 -33 -114.5t-93.5 -76.5t-139.5 -27q-131 0 -204 64.5t-73 185.5h123
q0 -75 40 -113t115 -38q66 0 103.5 29t37.5 79q0 35 -17 55t-48.5 32t-95.5 28q-84 21 -134 42t-81.5 62.5t-31.5 111.5q0 60 31 106.5t87.5 72t131.5 25.5q129 0 195.5 -59.5zM297 -264h-47l42 106h-40v96h107v-96z" />
    <glyph glyph-name="scommaaccent" unicode="&#x219;" horiz-adv-x="509" 
d="M399.5 478.5q53.5 -44.5 54.5 -128.5h-110q0 45 -25 67.5t-72 22.5q-40 0 -62 -16t-22 -44q0 -21 11.5 -33.5t33.5 -20t70 -19.5q66 -17 102.5 -31.5t63 -47t26.5 -88.5q0 -70 -58 -112.5t-155 -42.5q-104 0 -161.5 46.5t-58.5 135.5h116q0 -47 27.5 -72t78.5 -25
q43 0 67.5 17t24.5 46q0 25 -13 39.5t-37.5 23t-77.5 21.5q-59 15 -92.5 28t-57.5 43t-24 83q0 45 25 79.5t70 53.5t104 19q98 0 151.5 -44.5zM248 -264h-47l42 106h-40v96h107v-96z" />
    <glyph glyph-name="uni021A" unicode="&#x21a;" horiz-adv-x="607" 
d="M363 608v-608h-119v608h-234v104h587v-104h-234zM296 -264h-47l42 106h-40v96h107v-96z" />
    <glyph glyph-name="uni021B" unicode="&#x21b;" horiz-adv-x="339" 
d="M312 92v-89q-31 -9 -64 -9q-81 0 -117.5 36.5t-36.5 119.5v271h-85v87h85v127h114v-127h99v-87h-99v-254q0 -43 16 -61.5t53 -18.5q22 0 35 5zM181 -264h-47l42 106h-40v96h107v-96z" />
    <glyph glyph-name="dotlessj" unicode="&#x237;" horiz-adv-x="264" 
d="M148.5 -149q-42.5 -41 -117.5 -41q-26 0 -58 7v85q13 -3 28 -3q39 0 57.5 21.5t18.5 74.5v513h114v-528q0 -88 -42.5 -129z" />
    <glyph glyph-name="schwa" unicode="&#x259;" horiz-adv-x="562" 
d="M408.5 489.5q56.5 -33.5 86 -94t29.5 -141.5q0 -77 -29.5 -138t-85 -96t-130.5 -35q-73 0 -127.5 33t-84 93.5t-29.5 142.5q0 15 2 29h371q-3 79 -40.5 117.5t-96.5 38.5q-44 0 -72 -22.5t-35 -58.5h-117q15 71 73.5 118t150.5 47q78 0 134.5 -33.5zM367.5 105
q34.5 36 41.5 103h-257q6 -68 40.5 -103.5t86.5 -35.5q54 0 88.5 36z" />
    <glyph glyph-name="uni02BC" unicode="&#x2bc;" horiz-adv-x="246" 
d="M125 447h-62l41 140h-39v125h115v-125z" />
    <glyph glyph-name="circumflex" unicode="&#x2c6;" horiz-adv-x="451" 
d="M226 652l-68 -84h-108l114 144h123l114 -144h-108z" />
    <glyph glyph-name="caron" unicode="&#x2c7;" horiz-adv-x="451" 
d="M164 568l-114 144h108l68 -84l67 84h108l-114 -144h-123z" />
    <glyph glyph-name="uni02C9" unicode="&#x2c9;" horiz-adv-x="405" 
d="M50 607v78h305v-78h-305z" />
    <glyph glyph-name="breve" unicode="&#x2d8;" horiz-adv-x="431" 
d="M332.5 603.5q-43.5 -38.5 -117.5 -38.5q-73 0 -116.5 38.5t-48.5 108.5h80q4 -34 26 -53t59 -19t59 19t26 53h81q-5 -70 -48.5 -108.5z" />
    <glyph glyph-name="dotaccent" unicode="&#x2d9;" horiz-adv-x="214" 
d="M50 603v109h114v-109h-114z" />
    <glyph glyph-name="ring" unicode="&#x2da;" horiz-adv-x="308" 
d="M228 739q30 -30 30 -74q0 -43 -30 -73.5t-74 -30.5q-43 0 -73.5 30.5t-30.5 73.5q0 44 30.5 74t73.5 30q44 0 74 -30zM114.5 704.5q-16.5 -16.5 -16.5 -39.5t16.5 -39.5t39.5 -16.5t39.5 16.5t16.5 39.5t-16.5 39.5t-39.5 16.5t-39.5 -16.5z" />
    <glyph glyph-name="ogonek" unicode="&#x2db;" horiz-adv-x="274" 
d="M165 -50q-16 -22 -16 -45q0 -33 38 -33q20 0 37 6v-62q-27 -11 -68 -11q-53 0 -79.5 21.5t-26.5 61.5q0 32 19 58t60 55l92 -1q-40 -28 -56 -50z" />
    <glyph glyph-name="tilde" unicode="&#x2dc;" horiz-adv-x="460" 
d="M378.5 617q-28.5 -33 -77.5 -33q-23 0 -41 7t-41 20q-19 11 -30.5 16t-24.5 5q-40 0 -46 -48h-68q3 59 32 92t78 33q23 0 41 -7.5t41 -20.5q19 -11 30.5 -16t23.5 -5q41 0 46 49h68q-3 -59 -31.5 -92z" />
    <glyph glyph-name="hungarumlaut" unicode="&#x2dd;" horiz-adv-x="505" 
d="M50 568l101 144h129l-138 -144h-92zM225 568l101 144h129l-138 -144h-92z" />
    <glyph glyph-name="uni0312" unicode="&#x312;" horiz-adv-x="0" 
d="M156 676v-96h-106v96l62 106h47l-42 -106h39z" />
    <glyph glyph-name="commaaccent" unicode="&#x326;" horiz-adv-x="0" 
d="M97 -264h-47l42 106h-40v96h107v-96z" />
    <glyph glyph-name="uni0333" unicode="&#x333;" horiz-adv-x="0" 
d="M-500 -110v60h500v-60h-500zM-500 -247v60h500v-60h-500z" />
    <glyph glyph-name="numeralsigngreek" unicode="&#x374;" horiz-adv-x="197" 
d="M30 508l33 204h104l-64 -204h-73z" />
    <glyph glyph-name="numeralsignlowergreek" unicode="&#x375;" horiz-adv-x="197" 
d="M30 -92l33 204h104l-64 -204h-73z" />
    <glyph glyph-name="questiongreek" unicode="&#x37e;" horiz-adv-x="242" 
d="M55 366v142h132v-142h-132zM124 -158h-71l46 158h-44v142h132v-142z" />
    <glyph glyph-name="tonos" unicode="&#x384;" horiz-adv-x="250" 
d="M49 570l39 162h112l-64 -162h-87z" />
    <glyph glyph-name="dieresistonos" unicode="&#x385;" horiz-adv-x="499" 
d="M188 570l35 151h96l-52 -151h-79zM50 583v109h95v-109h-95zM354 583v109h95v-109h-95z" />
    <glyph glyph-name="Alphatonos" unicode="&#x386;" horiz-adv-x="687" 
d="M196 193l-66 -193h-126l259 712h161l259 -712h-126l-66 193h-295zM436 353q-60 178 -92 283h-2q-53 -173 -91 -283l-19 -56h223zM24 510l39 202h112l-64 -202h-87z" />
    <glyph glyph-name="anoteleia" unicode="&#x387;" horiz-adv-x="242" 
d="M55 367v141h132v-141h-132z" />
    <glyph glyph-name="Epsilontonos" unicode="&#x388;" horiz-adv-x="625" 
d="M208 608v-193h334v-103h-334v-208h366v-104h-486v712h476v-104h-356zM-115 510l39 202h112l-64 -202h-87z" />
    <glyph glyph-name="Etatonos" unicode="&#x389;" horiz-adv-x="744" 
d="M536 0v318h-328v-318h-120v712h120v-290h328v290h119v-712h-119zM-115 510l39 202h112l-64 -202h-87z" />
    <glyph glyph-name="Iotatonos" unicode="&#x38a;" horiz-adv-x="296" 
d="M88 0v712h120v-712h-120zM-115 510l39 202h112l-64 -202h-87z" />
    <glyph glyph-name="Omicrontonos" unicode="&#x38c;" horiz-adv-x="740" 
d="M545.5 682q74.5 -45 114.5 -128.5t40 -197.5t-40 -197.5t-114.5 -128.5t-175.5 -45t-175.5 45t-114.5 128.5t-40 197.5t40 197.5t114.5 128.5t175.5 45t175.5 -45zM219.5 549q-55.5 -71 -55.5 -193t55.5 -193t150.5 -71t150.5 71t55.5 193t-55.5 193t-150.5 71
t-150.5 -71zM-76 510l39 202h112l-64 -202h-87z" />
    <glyph glyph-name="Upsilontonos" unicode="&#x38e;" horiz-adv-x="626" 
d="M373 0h-120v286l-250 426h136l78 -141q50 -90 95 -184h2q48 100 96 184l77 141h135l-249 -426v-286zM-173 510l39 202h112l-64 -202h-87z" />
    <glyph glyph-name="Omegatonos" unicode="&#x38f;" horiz-adv-x="731" 
d="M599 647q87 -80 87 -235q0 -91 -39 -164t-110 -144v-2h160v-102h-275v107q68 69 104 136t36 153q0 110 -53.5 167t-142.5 57t-142.5 -57t-53.5 -167q0 -86 36 -153t103 -136v-107h-275v102h160v2q-71 72 -110 144.5t-39 163.5q0 104 40.5 174.5t113 105.5t167.5 35
q146 0 233 -80zM-83 510l39 202h112l-64 -202h-87z" />
    <glyph glyph-name="iotadieresistonos" unicode="&#x390;" horiz-adv-x="297" 
d="M197.5 109.5q15.5 -22.5 52.5 -22.5q21 0 36 5v-90q-27 -8 -65 -8q-81 0 -117 40t-36 132v342h114v-324q0 -52 15.5 -74.5zM64 570l35 151h96l-52 -151h-79zM-74 583v109h95v-109h-95zM230 583v109h95v-109h-95z" />
    <glyph glyph-name="Alpha" unicode="&#x391;" horiz-adv-x="687" 
d="M196 193l-66 -193h-126l259 712h161l259 -712h-126l-66 193h-295zM436 353q-60 178 -92 283h-2q-53 -173 -91 -283l-19 -56h223z" />
    <glyph glyph-name="Beta" unicode="&#x392;" horiz-adv-x="638" 
d="M519.5 663q62.5 -49 62.5 -133q0 -121 -121 -166v-2q137 -32 137 -167q0 -90 -65 -142.5t-180 -52.5h-265v712h245q124 0 186.5 -49zM208 410h118q73 0 106.5 25.5t33.5 76.5t-32 76t-102 25h-124v-203zM208 100h127q73 0 107 26t34 80t-35.5 81t-113.5 27h-119v-214z
" />
    <glyph glyph-name="Gamma" unicode="&#x393;" horiz-adv-x="498" 
d="M88 712h400v-104h-280v-608h-120v712z" />
    <glyph glyph-name="uni0394" unicode="&#x394;" horiz-adv-x="687" 
d="M4 0l260 712h162l257 -712h-679zM435 353q-49 146 -91 283h-2q-32 -105 -92 -283l-85 -249h355z" />
    <glyph glyph-name="Epsilon" unicode="&#x395;" horiz-adv-x="625" 
d="M208 608v-193h334v-103h-334v-208h366v-104h-486v712h476v-104h-356z" />
    <glyph glyph-name="Zeta" unicode="&#x396;" horiz-adv-x="574" 
d="M161 104v-2h394v-102h-536v109l376 499v2h-362v102h504v-109z" />
    <glyph glyph-name="Eta" unicode="&#x397;" horiz-adv-x="744" 
d="M536 0v318h-328v-318h-120v712h120v-290h328v290h119v-712h-119z" />
    <glyph glyph-name="Theta" unicode="&#x398;" horiz-adv-x="740" 
d="M545.5 682q74.5 -45 114.5 -128.5t40 -196.5q0 -114 -40 -198t-114.5 -129t-175.5 -45t-175.5 45t-114.5 129t-40 198q0 113 40 196.5t114.5 128.5t175.5 45t175.5 -45zM216.5 552q-56.5 -72 -56.5 -195q0 -124 56.5 -196t153.5 -72t153.5 72t56.5 196q0 123 -56.5 195
t-153.5 72t-153.5 -72zM232 308v97h276v-97h-276z" />
    <glyph glyph-name="Iota" unicode="&#x399;" horiz-adv-x="296" 
d="M88 0v712h120v-712h-120z" />
    <glyph glyph-name="Kappa" unicode="&#x39a;" horiz-adv-x="644" 
d="M640 0h-155l-275 343h-2v-343h-120v712h120v-317h2l260 317h144l-291 -339z" />
    <glyph glyph-name="Lambda" unicode="&#x39b;" horiz-adv-x="672" 
d="M538 0l-115 349q-41 124 -86 281h-2q-45 -157 -86 -281l-115 -349h-130l250 712h164l250 -712h-130z" />
    <glyph glyph-name="Mu" unicode="&#x39c;" horiz-adv-x="959" 
d="M755 0v358q0 150 4 270h-2q-35 -117 -86 -268l-123 -360h-137l-123 360q-51 151 -86 268h-2q4 -120 4 -270v-358h-116v712h193l115 -339q47 -137 82 -268h2q39 139 83 268l115 339h193v-712h-116z" />
    <glyph glyph-name="Nu" unicode="&#x39d;" horiz-adv-x="766" 
d="M505 0l-154 298q-81 158 -151 306h-2q6 -162 6 -324v-280h-116v712h173l153 -298q81 -158 151 -306h2q-5 180 -5 324v280h115v-712h-172z" />
    <glyph glyph-name="Xi" unicode="&#x39e;" horiz-adv-x="668" 
d="M67 592v120h534v-120h-534zM84 298v120h500v-120h-500zM53 0v120h562v-120h-562z" />
    <glyph glyph-name="Omicron" unicode="&#x39f;" horiz-adv-x="740" 
d="M545.5 682q74.5 -45 114.5 -128.5t40 -197.5t-40 -197.5t-114.5 -128.5t-175.5 -45t-175.5 45t-114.5 128.5t-40 197.5t40 197.5t114.5 128.5t175.5 45t175.5 -45zM219.5 549q-55.5 -71 -55.5 -193t55.5 -193t150.5 -71t150.5 71t55.5 193t-55.5 193t-150.5 71
t-150.5 -71z" />
    <glyph glyph-name="Pi" unicode="&#x3a0;" horiz-adv-x="733" 
d="M526 0v608h-318v-608h-120v712h557v-712h-119z" />
    <glyph glyph-name="Rho" unicode="&#x3a1;" horiz-adv-x="626" 
d="M534 652q66 -60 66 -162q0 -103 -66 -163t-189 -60h-137v-267h-120v712h257q123 0 189 -60zM208 368h123q74 0 110 31.5t36 90.5q0 58 -36 89.5t-110 31.5h-123v-243z" />
    <glyph glyph-name="Sigma" unicode="&#x3a3;" horiz-adv-x="573" 
d="M179 610v-2l182 -246l-195 -257v-3h388v-102h-532v106l195 256l-184 248v102h507v-102h-361z" />
    <glyph glyph-name="Tau" unicode="&#x3a4;" horiz-adv-x="607" 
d="M363 608v-608h-119v608h-234v104h587v-104h-234z" />
    <glyph glyph-name="Upsilon" unicode="&#x3a5;" horiz-adv-x="626" 
d="M373 0h-120v286l-250 426h136l78 -141q50 -90 95 -184h2q48 100 96 184l77 141h135l-249 -426v-286z" />
    <glyph glyph-name="Phi" unicode="&#x3a6;" horiz-adv-x="812" 
d="M691 583q81 -79 81 -224q0 -144 -81.5 -223.5t-226.5 -87.5v-76h-116v76q-146 8 -227 88t-81 226q0 144 81 222t227 86v70h116v-70q146 -8 227 -87zM211 512.5q-48 -52.5 -48 -150.5q0 -100 48 -154.5t137 -59.5v422q-89 -5 -137 -57.5zM600.5 207q48.5 54 48.5 152
q0 99 -48 152.5t-137 58.5v-422q88 5 136.5 59z" />
    <glyph glyph-name="Chi" unicode="&#x3a7;" horiz-adv-x="626" 
d="M620 0h-140l-166 272h-2l-166 -272h-141l235 364l-223 348h139l156 -261h2l156 261h138l-222 -348z" />
    <glyph glyph-name="Psi" unicode="&#x3a8;" horiz-adv-x="811" 
d="M694.5 255.5q-73.5 -75.5 -229.5 -83.5v-172h-119v172q-156 8 -229.5 83.5t-73.5 231.5v225h120v-222q0 -109 42 -158t141 -54v434h119v-434q100 5 141.5 54t41.5 158v222h120v-225q0 -156 -73.5 -231.5z" />
    <glyph glyph-name="uni03A9" unicode="&#x3a9;" horiz-adv-x="731" 
d="M599 647q87 -80 87 -235q0 -91 -39 -164t-110 -144v-2h160v-102h-275v107q68 69 104 136t36 153q0 110 -53.5 167t-142.5 57t-142.5 -57t-53.5 -167q0 -86 36 -153t103 -136v-107h-275v102h160v2q-71 72 -110 144.5t-39 163.5q0 104 40.5 174.5t113 105.5t167.5 35
q146 0 233 -80z" />
    <glyph glyph-name="Iotadieresis" unicode="&#x3aa;" horiz-adv-x="296" 
d="M88 0v712h120v-712h-120zM-6 807v109h102v-109h-102zM200 807v109h102v-109h-102z" />
    <glyph glyph-name="Upsilondieresis" unicode="&#x3ab;" horiz-adv-x="626" 
d="M373 0h-120v286l-250 426h136l78 -141q50 -90 95 -184h2q48 100 96 184l77 141h135l-249 -426v-286zM159 772v109h102v-109h-102zM365 772v109h102v-109h-102z" />
    <glyph glyph-name="alphatonos" unicode="&#x3ac;" horiz-adv-x="600" 
d="M340 498q41 -23 63 -64h2q2 40 8 74h111q-10 -72 -10 -180v-172q0 -41 10.5 -57t34.5 -16q12 0 24 3v-83q-30 -10 -72 -10q-46 0 -72 20t-33 62h-2q-22 -41 -63.5 -64t-91.5 -23q-64 0 -111.5 32.5t-73.5 93t-26 140.5t26 140.5t74 93.5t112 33q49 0 90 -23zM191 383.5
q-34 -48.5 -34 -129.5t34 -129.5t92 -48.5q56 0 89.5 48t33.5 130q0 83 -33.5 130.5t-89.5 47.5q-58 0 -92 -48.5zM239 570l39 162h112l-64 -162h-87z" />
    <glyph glyph-name="epsilontonos" unicode="&#x3ad;" horiz-adv-x="505" 
d="M404.5 477q56.5 -46 56.5 -127h-114q0 42 -24.5 64t-70.5 22q-40 0 -63 -18t-23 -50t27 -51t73 -19h50v-85h-50q-112 0 -112 -73q0 -31 26.5 -49.5t70.5 -18.5q105 0 105 89h115q0 -86 -57 -131t-163 -45q-97 0 -154 40t-57 111q0 49 25.5 79t77.5 46v2q-46 17 -68 44.5
t-22 70.5q0 67 53 106t143 39q99 0 155.5 -46zM203 570l39 162h112l-64 -162h-87z" />
    <glyph glyph-name="etatonos" unicode="&#x3ae;" horiz-adv-x="601" 
d="M486 467q47 -53 47 -157v-495h-114v483q0 132 -102 132q-51 0 -83.5 -39t-32.5 -108v-283h-114v348q0 44 -11 61.5t-35 17.5q-14 0 -24 -3v80q33 11 67 11q44 0 69.5 -21t33.5 -68h2q26 45 68.5 69.5t95.5 24.5q86 0 133 -53zM222 570l39 162h112l-64 -162h-87z" />
    <glyph glyph-name="iotatonos" unicode="&#x3af;" horiz-adv-x="297" 
d="M197.5 109.5q15.5 -22.5 52.5 -22.5q21 0 36 5v-90q-27 -8 -65 -8q-81 0 -117 40t-36 132v342h114v-324q0 -52 15.5 -74.5zM80 570l39 162h112l-64 -162h-87z" />
    <glyph glyph-name="upsilondieresistonos" unicode="&#x3b0;" horiz-adv-x="589" 
d="M172 482.5q28 -32.5 28 -113.5v-181q0 -59 25.5 -85.5t76.5 -26.5q121 0 121 181q0 140 -36 251h111q38 -116 38 -259q0 -128 -57.5 -196t-174.5 -68q-108 0 -163.5 46.5t-55.5 147.5v164q0 47 -10.5 64t-34.5 17q-13 0 -25 -3v83q35 11 68 11q61 0 89 -32.5zM220 570
l35 151h96l-52 -151h-79zM82 583v109h95v-109h-95zM386 583v109h95v-109h-95z" />
    <glyph glyph-name="alpha" unicode="&#x3b1;" horiz-adv-x="600" 
d="M340 498q41 -23 63 -64h2q2 40 8 74h111q-10 -72 -10 -180v-172q0 -41 10.5 -57t34.5 -16q12 0 24 3v-83q-30 -10 -72 -10q-46 0 -72 20t-33 62h-2q-22 -41 -63.5 -64t-91.5 -23q-64 0 -111.5 32.5t-73.5 93t-26 140.5t26 140.5t74 93.5t112 33q49 0 90 -23zM191 383.5
q-34 -48.5 -34 -129.5t34 -129.5t92 -48.5q56 0 89.5 48t33.5 130q0 83 -33.5 130.5t-89.5 47.5q-58 0 -92 -48.5z" />
    <glyph glyph-name="beta" unicode="&#x3b2;" horiz-adv-x="595" 
d="M462.5 679q58.5 -48 58.5 -130q0 -64 -32 -105t-93 -58v-2q76 -14 119.5 -60.5t43.5 -129.5q0 -94 -61 -149t-166 -55q-52 0 -88.5 15.5t-54.5 44.5h-2v-235h-114l1 664q0 120 59 184t169 64q102 0 160.5 -48zM215.5 601q-28.5 -38 -28.5 -119v-290q0 -54 30.5 -84
t92.5 -30t97 34t35 94q0 67 -42.5 98t-128.5 31h-15v92h15q70 0 105.5 29t35.5 82q0 48 -28 74.5t-79 26.5q-61 0 -89.5 -38z" />
    <glyph glyph-name="gamma" unicode="&#x3b3;" horiz-adv-x="539" 
d="M465 251q-47 -114 -140 -245v-12q0 -37 -3 -89.5t-8 -89.5h-114q5 37 8 89.5t3 89.5q0 71 -24 171t-67 183q-23 46 -43.5 62.5t-45.5 16.5q-9 0 -23 -2v81q32 10 63 10q45 0 76 -23.5t61 -86.5q31 -64 52 -137t29 -137h2q52 95 80 182.5t38 193.5h118q-15 -143 -62 -257z
" />
    <glyph glyph-name="delta" unicode="&#x3b4;" horiz-adv-x="578" 
d="M486 694v-97q-47 19 -98 29t-97 10q-38 0 -52.5 -8.5t-14.5 -24.5q0 -20 27 -39t94 -54q97 -51 145.5 -117.5t48.5 -164.5q0 -74 -31 -129t-87.5 -84.5t-131.5 -29.5t-132 29.5t-88 84.5t-31 129q0 89 47.5 151t134.5 92v2q-63 39 -89.5 68.5t-26.5 70.5q0 110 173 110
q112 0 209 -28zM192.5 349.5q-34.5 -48.5 -34.5 -121.5q0 -71 35.5 -112.5t95.5 -41.5t95.5 42t35.5 114q0 66 -32.5 112.5t-97.5 77.5q-63 -22 -97.5 -70.5z" />
    <glyph glyph-name="epsilon" unicode="&#x3b5;" horiz-adv-x="505" 
d="M404.5 477q56.5 -46 56.5 -127h-114q0 42 -24.5 64t-70.5 22q-40 0 -63 -18t-23 -50t27 -51t73 -19h50v-85h-50q-112 0 -112 -73q0 -31 26.5 -49.5t70.5 -18.5q105 0 105 89h115q0 -86 -57 -131t-163 -45q-97 0 -154 40t-57 111q0 49 25.5 79t77.5 46v2q-46 17 -68 44.5
t-22 70.5q0 67 53 106t143 39q99 0 155.5 -46z" />
    <glyph glyph-name="zeta" unicode="&#x3b6;" horiz-adv-x="468" 
d="M231.5 450.5q-74.5 -97.5 -74.5 -212.5q0 -64 35.5 -97t121.5 -45q78 -11 109 -45t31 -93q0 -57 -27 -103h-93q18 37 18 74q0 35 -21 53.5t-80 24.5q-114 13 -163.5 63.5t-49.5 145.5q0 120 72 225t197 184v2h-243v85h380v-85q-138 -79 -212.5 -176.5z" />
    <glyph glyph-name="eta" unicode="&#x3b7;" horiz-adv-x="601" 
d="M486 467q47 -53 47 -157v-495h-114v483q0 132 -102 132q-51 0 -83.5 -39t-32.5 -108v-283h-114v348q0 44 -11 61.5t-35 17.5q-14 0 -24 -3v80q33 11 67 11q44 0 69.5 -21t33.5 -68h2q26 45 68.5 69.5t95.5 24.5q86 0 133 -53z" />
    <glyph glyph-name="theta" unicode="&#x3b8;" horiz-adv-x="608" 
d="M499.5 629q69.5 -97 69.5 -273t-69.5 -273t-196.5 -97q-125 0 -194.5 97t-69.5 273t69.5 273t194.5 97q127 0 196.5 -97zM200 577q-38 -63 -44 -180h295q-6 117 -44 180t-104 63q-65 0 -103 -63zM407 135q38 63 44 180h-295q6 -117 44 -180t103 -63q66 0 104 63z" />
    <glyph glyph-name="iota" unicode="&#x3b9;" horiz-adv-x="297" 
d="M197.5 109.5q15.5 -22.5 52.5 -22.5q21 0 36 5v-90q-27 -8 -65 -8q-81 0 -117 40t-36 132v342h114v-324q0 -52 15.5 -74.5z" />
    <glyph glyph-name="kappa" unicode="&#x3ba;" horiz-adv-x="541" 
d="M230 200l-46 -51v-149h-114v508h114v-228h2l99 113q60 70 103.5 95.5t98.5 25.5q18 0 42 -6v-95q-11 4 -30 4q-43 0 -84.5 -27.5t-101.5 -96.5l-13 -15l250 -278h-140z" />
    <glyph glyph-name="lambda" unicode="&#x3bb;" horiz-adv-x="580" 
d="M219.5 702q35.5 -18 65.5 -62t61 -126l125 -333q23 -59 42 -79.5t44 -20.5q7 0 15 2v-83q-23 -7 -48 -7q-38 0 -63.5 11.5t-46.5 41.5t-41 86q-46 122 -92 252h-1l-93 -220l-71 -164h-122l230 506q-25 70 -51 96.5t-66 26.5q-27 0 -48 -8v87q29 12 73 12q52 0 87.5 -18z
" />
    <glyph glyph-name="uni03BC" unicode="&#x3bc;" horiz-adv-x="598" 
d="M527.5 99.5q10.5 -15.5 34.5 -15.5q12 0 24 3v-84q-29 -10 -72 -10q-45 0 -69.5 20t-32.5 61h-2q-16 -38 -51 -59.5t-81 -21.5q-30 0 -53.5 8.5t-37.5 23.5v-210h-114v693h114v-300q0 -128 100 -128q51 0 83.5 38.5t32.5 108.5v281h114v-352q0 -41 10.5 -56.5z" />
    <glyph glyph-name="nu" unicode="&#x3bd;" horiz-adv-x="526" 
d="M149.5 481.5q32.5 -33.5 52.5 -111.5l74 -278h2q68 142 93 224t25 153q0 21 -3 39h112q5 -19 5 -45q0 -57 -13.5 -113.5t-48 -136.5t-102.5 -213h-149l-102 337q-16 52 -30.5 71t-38.5 19q-11 0 -19 -3v80q24 11 58 11q52 0 84.5 -33.5z" />
    <glyph glyph-name="xi" unicode="&#x3be;" horiz-adv-x="474" 
d="M370 627q-90 0 -137 -31t-47 -89q0 -46 37.5 -70.5t98.5 -24.5h96v-84h-84q-90 0 -133.5 -33t-43.5 -89q0 -50 36.5 -75.5t127.5 -35.5q78 -9 109 -43t31 -94q0 -57 -27 -103h-93q19 40 19 74q0 35 -24.5 55t-90.5 26q-106 10 -156.5 54.5t-50.5 123.5q0 145 150 180v2
q-50 14 -78 47.5t-28 82.5q0 46 21.5 78t62.5 47v2h-107v85h398v-85h-87z" />
    <glyph glyph-name="omicron" unicode="&#x3bf;" horiz-adv-x="577" 
d="M421.5 490q56.5 -33 87 -93.5t30.5 -142.5t-30.5 -142.5t-87 -93.5t-132.5 -33t-133 33t-87.5 93.5t-30.5 142.5t30.5 142.5t87.5 93.5t133 33t132.5 -33zM193 385q-35 -48 -35 -131t35 -131t96 -48t96 48t35 131t-35 131t-96 48t-96 -48z" />
    <glyph glyph-name="pi" unicode="&#x3c0;" horiz-adv-x="662" 
d="M535 421v-256q0 -47 15.5 -65.5t47.5 -18.5q18 0 29 4v-83q-32 -9 -70 -9q-69 0 -102.5 36t-33.5 122v270h-198v-421h-114v421h-99v87h634v-87h-109z" />
    <glyph glyph-name="rho" unicode="&#x3c1;" horiz-adv-x="590" 
d="M436 490q56 -33 86 -94.5t30 -145.5q0 -80 -28.5 -139t-81.5 -91t-124 -32q-47 0 -81.5 16t-52.5 45h-2v-234h-114v439q0 82 29 142.5t83 93.5t125 33q75 0 131 -33zM210 384q-33 -48 -33 -130q0 -81 33 -128.5t90 -47.5q62 0 97 46.5t35 129.5t-35 130.5t-97 47.5
q-57 0 -90 -48z" />
    <glyph glyph-name="sigma1" unicode="&#x3c2;" horiz-adv-x="534" 
d="M446 467q60 -56 67 -152h-118q-5 55 -35 87t-82 32q-58 0 -91 -41.5t-33 -116.5t39 -115t124 -52q83 -11 115.5 -48.5t32.5 -102.5q0 -56 -26 -103h-94q18 37 18 74q0 40 -23.5 61t-90.5 29q-107 11 -161 73.5t-54 172.5q0 121 65 189.5t179 68.5q108 0 168 -56z" />
    <glyph glyph-name="sigma" unicode="&#x3c3;" horiz-adv-x="607" 
d="M459 423v-2q37 -26 57.5 -72t20.5 -107q0 -119 -66.5 -188t-181.5 -69q-76 0 -133 32t-87.5 91t-30.5 139t30.5 139t87.5 90.5t133 31.5h307v-85h-137zM192.5 379q-34.5 -46 -34.5 -129t34 -129t96 -46q63 0 97.5 46t34.5 129t-34.5 129t-97.5 46q-61 0 -95.5 -46z" />
    <glyph glyph-name="tau" unicode="&#x3c4;" horiz-adv-x="467" 
d="M284 423v-258q0 -47 15.5 -65.5t47.5 -18.5q18 0 29 4v-83q-32 -9 -70 -9q-69 0 -102.5 36t-33.5 122v272h-160v85h447v-85h-173z" />
    <glyph glyph-name="upsilon" unicode="&#x3c5;" horiz-adv-x="589" 
d="M172 482.5q28 -32.5 28 -113.5v-181q0 -59 25.5 -85.5t76.5 -26.5q121 0 121 181q0 140 -36 251h111q38 -116 38 -259q0 -128 -57.5 -196t-174.5 -68q-108 0 -163.5 46.5t-55.5 147.5v164q0 47 -10.5 64t-34.5 17q-13 0 -25 -3v83q35 11 68 11q61 0 89 -32.5z" />
    <glyph glyph-name="phi" unicode="&#x3c6;" horiz-adv-x="775" 
d="M658 61q-79 -71 -216 -76v-170h-109v170q-137 5 -216 76t-79 193t79 193t216 76v139h109v-139q137 -5 216 -76t79 -193t-79 -193zM200.5 121q46.5 -48 132.5 -51v368q-86 -3 -132.5 -51t-46.5 -133t46.5 -133zM574 121q46 48 46 133t-46 133t-132 51v-368q86 3 132 51z
" />
    <glyph glyph-name="chi" unicode="&#x3c7;" horiz-adv-x="587" 
d="M173.5 493.5q34.5 -26.5 63.5 -94.5l61 -141h2l152 250h127l-219 -348l81 -177q24 -53 45.5 -70t53.5 -17q20 0 35 4v-81q-30 -11 -70 -11q-58 0 -92.5 26.5t-64.5 95.5l-57 131h-2l-158 -246h-127l228 341l-86 187q-24 53 -45 71t-56 18q-20 0 -37 -6v80q30 14 71 14
q60 0 94.5 -26.5z" />
    <glyph glyph-name="psi" unicode="&#x3c8;" horiz-adv-x="796" 
d="M672 64.5q-70 -67.5 -213 -73.5v-176h-114v175q-137 5 -207 62t-70 172v284h114v-272q0 -77 40.5 -114.5t122.5 -42.5v583h114v-583q169 12 169 185q0 133 -40 244h113q41 -112 41 -252q0 -124 -70 -191.5z" />
    <glyph glyph-name="omega" unicode="&#x3c9;" horiz-adv-x="807" 
d="M736.5 372.5q16.5 -72.5 16.5 -148.5q0 -115 -47.5 -176.5t-144.5 -61.5q-127 0 -157 101h-2q-30 -101 -156 -101q-97 0 -144.5 61.5t-47.5 176.5q0 76 16.5 148.5t48.5 135.5h119q-32 -60 -49 -129.5t-17 -141.5q0 -163 95 -163q79 0 79 106v204h114v-204
q0 -106 80 -106q95 0 95 163q0 72 -17 141.5t-49 129.5h119q32 -63 48.5 -135.5z" />
    <glyph glyph-name="iotadieresis" unicode="&#x3ca;" horiz-adv-x="297" 
d="M197.5 109.5q15.5 -22.5 52.5 -22.5q21 0 36 5v-90q-27 -8 -65 -8q-81 0 -117 40t-36 132v342h114v-324q0 -52 15.5 -74.5zM-29 603v109h102v-109h-102zM177 603v109h102v-109h-102z" />
    <glyph glyph-name="upsilondieresis" unicode="&#x3cb;" horiz-adv-x="589" 
d="M172 482.5q28 -32.5 28 -113.5v-181q0 -59 25.5 -85.5t76.5 -26.5q121 0 121 181q0 140 -36 251h111q38 -116 38 -259q0 -128 -57.5 -196t-174.5 -68q-108 0 -163.5 46.5t-55.5 147.5v164q0 47 -10.5 64t-34.5 17q-13 0 -25 -3v83q35 11 68 11q61 0 89 -32.5zM127 603
v109h102v-109h-102zM333 603v109h102v-109h-102z" />
    <glyph glyph-name="omicrontonos" unicode="&#x3cc;" horiz-adv-x="577" 
d="M421.5 490q56.5 -33 87 -93.5t30.5 -142.5t-30.5 -142.5t-87 -93.5t-132.5 -33t-133 33t-87.5 93.5t-30.5 142.5t30.5 142.5t87.5 93.5t133 33t132.5 -33zM193 385q-35 -48 -35 -131t35 -131t96 -48t96 48t35 131t-35 131t-96 48t-96 -48zM244 570l39 162h112l-64 -162
h-87z" />
    <glyph glyph-name="upsilontonos" unicode="&#x3cd;" horiz-adv-x="589" 
d="M172 482.5q28 -32.5 28 -113.5v-181q0 -59 25.5 -85.5t76.5 -26.5q121 0 121 181q0 140 -36 251h111q38 -116 38 -259q0 -128 -57.5 -196t-174.5 -68q-108 0 -163.5 46.5t-55.5 147.5v164q0 47 -10.5 64t-34.5 17q-13 0 -25 -3v83q35 11 68 11q61 0 89 -32.5zM237 570
l39 162h112l-64 -162h-87z" />
    <glyph glyph-name="omegatonos" unicode="&#x3ce;" horiz-adv-x="807" 
d="M736.5 372.5q16.5 -72.5 16.5 -148.5q0 -115 -47.5 -176.5t-144.5 -61.5q-127 0 -157 101h-2q-30 -101 -156 -101q-97 0 -144.5 61.5t-47.5 176.5q0 76 16.5 148.5t48.5 135.5h119q-32 -60 -49 -129.5t-17 -141.5q0 -163 95 -163q79 0 79 106v204h114v-204
q0 -106 80 -106q95 0 95 163q0 72 -17 141.5t-49 129.5h119q32 -63 48.5 -135.5zM359 570l39 162h112l-64 -162h-87z" />
    <glyph glyph-name="uni0400" unicode="&#x400;" horiz-adv-x="625" 
d="M208 608v-193h334v-103h-334v-208h366v-104h-486v712h476v-104h-356zM402 760h-93l-132 142h143z" />
    <glyph glyph-name="uni0401" unicode="&#x401;" horiz-adv-x="625" 
d="M208 608v-193h334v-103h-334v-208h366v-104h-486v712h476v-104h-356zM172 772v109h102v-109h-102zM378 772v109h102v-109h-102z" />
    <glyph glyph-name="uni0402" unicode="&#x402;" horiz-adv-x="788" 
d="M363 608v-185q70 35 156 35q116 0 179.5 -62.5t63.5 -173.5q0 -107 -64 -170.5t-176 -63.5q-56 0 -90 12v101q32 -9 75 -9q66 0 100.5 33.5t34.5 95.5q0 133 -142 133q-75 0 -137 -33v-321h-119v608h-234v104h587v-104h-234z" />
    <glyph glyph-name="uni0403" unicode="&#x403;" horiz-adv-x="498" 
d="M88 712h400v-104h-280v-608h-120v712zM212 760l81 142h144l-132 -142h-93z" />
    <glyph glyph-name="uni0404" unicode="&#x404;" horiz-adv-x="702" 
d="M568 54.5q-79 -69.5 -208 -69.5q-98 0 -170.5 45t-111 128.5t-38.5 197.5t39 197.5t112 128.5t172 45q86 0 151 -33t101 -91.5t40 -134.5h-122q-8 71 -53 111.5t-117 40.5q-82 0 -133.5 -56t-62.5 -156h282v-104h-282q11 -100 61.5 -156t131.5 -56q72 0 118 41t57 114
h123q-11 -123 -90 -192.5z" />
    <glyph glyph-name="uni0405" unicode="&#x405;" horiz-adv-x="620" 
d="M490.5 667.5q66.5 -59.5 66.5 -174.5h-121q0 67 -37 101.5t-106 34.5q-58 0 -91.5 -25.5t-33.5 -69.5q0 -32 16.5 -51.5t50 -33t96.5 -28.5q82 -20 132.5 -41.5t82 -63.5t31.5 -113q0 -65 -33 -114.5t-93.5 -76.5t-139.5 -27q-131 0 -204 64.5t-73 185.5h123
q0 -75 40 -113t115 -38q66 0 103.5 29t37.5 79q0 35 -17 55t-48.5 32t-95.5 28q-84 21 -134 42t-81.5 62.5t-31.5 111.5q0 60 31 106.5t87.5 72t131.5 25.5q129 0 195.5 -59.5z" />
    <glyph glyph-name="uni0406" unicode="&#x406;" horiz-adv-x="296" 
d="M88 0v712h120v-712h-120z" />
    <glyph glyph-name="uni0407" unicode="&#x407;" horiz-adv-x="296" 
d="M88 0v712h120v-712h-120zM-6 772v109h102v-109h-102zM200 772v109h102v-109h-102z" />
    <glyph glyph-name="uni0408" unicode="&#x408;" horiz-adv-x="374" 
d="M237.5 48.5q-53.5 -54.5 -165.5 -54.5q-31 0 -57 7v103q21 -4 45 -4q58 0 84.5 30t26.5 107v475h120v-496q0 -113 -53.5 -167.5z" />
    <glyph glyph-name="uni0409" unicode="&#x409;" horiz-adv-x="1051" 
d="M770 445q123 0 189 -60t66 -163q0 -102 -66 -162t-189 -60h-257v608h-228q-8 -259 -32 -389.5t-70 -177t-129 -46.5q-28 0 -43 5v99q10 -2 18 -2q52 0 79 45.5t41 174t21 395.5h463v-267h137zM633 101h123q74 0 110 31.5t36 89.5q0 59 -36 90.5t-110 31.5h-123v-243z" />
    <glyph glyph-name="uni040A" unicode="&#x40a;" horiz-adv-x="1073" 
d="M982 385q66 -60 66 -163q0 -102 -66 -162t-189 -60h-257v323h-328v-323h-120v712h120v-286h328v286h119v-267h138q123 0 189 -60zM889 132.5q36 31.5 36 89.5q0 59 -36 90.5t-110 31.5h-124v-243h124q74 0 110 31.5z" />
    <glyph glyph-name="uni040B" unicode="&#x40b;" horiz-adv-x="787" 
d="M695 379.5q57 -56.5 57 -160.5v-219h-120v198q0 65 -32.5 99.5t-96.5 34.5q-77 0 -140 -20v-312h-119v608h-234v104h587v-104h-234v-196q74 24 169 24q106 0 163 -56.5z" />
    <glyph glyph-name="uni040C" unicode="&#x40c;" horiz-adv-x="644" 
d="M640 0h-155l-275 343h-2v-343h-120v712h120v-317h2l260 317h144l-291 -339zM251 760l81 142h144l-132 -142h-93z" />
    <glyph glyph-name="uni040D" unicode="&#x40d;" horiz-adv-x="766" 
d="M204 432q0 -162 -6 -324h2q70 148 151 306l154 298h172v-712h-115v280q0 144 5 324h-2q-70 -148 -151 -306l-153 -298h-173v712h116v-280zM452 760h-93l-132 142h143z" />
    <glyph glyph-name="uni040E" unicode="&#x40e;" horiz-adv-x="666" 
d="M294 25.5q-49 -33.5 -115 -33.5q-47 0 -74 8v101q20 -6 49 -6q41 0 67.5 19.5t45.5 65.5l-264 532h130l100 -217q46 -101 99 -221h2l11 25q47 108 88 195l99 218h130l-280 -574q-39 -79 -88 -112.5zM450.5 793.5q-43.5 -38.5 -117.5 -38.5q-73 0 -116.5 38.5t-48.5 108.5
h80q4 -34 26 -53t59 -19t59 19t26 53h81q-5 -70 -48.5 -108.5z" />
    <glyph glyph-name="uni040F" unicode="&#x40f;" horiz-adv-x="734" 
d="M420 0v-160h-114v160h-218v712h120v-608h318v608h119v-712h-225z" />
    <glyph glyph-name="uni0410" unicode="&#x410;" horiz-adv-x="687" 
d="M196 193l-66 -193h-126l259 712h161l259 -712h-126l-66 193h-295zM436 353q-60 178 -92 283h-2q-53 -173 -91 -283l-19 -56h223z" />
    <glyph glyph-name="uni0411" unicode="&#x411;" horiz-adv-x="648" 
d="M208 611v-180h158q115 0 179.5 -58t64.5 -158t-64.5 -157.5t-179.5 -57.5h-278v712h479v-101h-359zM208 101h135q70 0 107 29.5t37 84.5q0 56 -37 85.5t-107 29.5h-135v-229z" />
    <glyph glyph-name="uni0412" unicode="&#x412;" horiz-adv-x="638" 
d="M519.5 663q62.5 -49 62.5 -133q0 -121 -121 -166v-2q137 -32 137 -167q0 -90 -65 -142.5t-180 -52.5h-265v712h245q124 0 186.5 -49zM208 410h118q73 0 106.5 25.5t33.5 76.5t-32 76t-102 25h-124v-203zM208 100h127q73 0 107 26t34 80t-35.5 81t-113.5 27h-119v-214z
" />
    <glyph glyph-name="uni0413" unicode="&#x413;" horiz-adv-x="498" 
d="M88 712h400v-104h-280v-608h-120v712z" />
    <glyph glyph-name="uni0414" unicode="&#x414;" horiz-adv-x="762" 
d="M745 -160h-114v160h-499v-160h-114v264h79q34 64 52.5 198.5t23.5 409.5h486v-608h86v-264zM288 608q-9 -353 -64 -504h315v504h-251z" />
    <glyph glyph-name="uni0415" unicode="&#x415;" horiz-adv-x="625" 
d="M208 608v-193h334v-103h-334v-208h366v-104h-486v712h476v-104h-356z" />
    <glyph glyph-name="uni0416" unicode="&#x416;" horiz-adv-x="897" 
d="M893 0h-144l-239 359h-2v-359h-118v359h-2l-240 -359h-144l268 373l-241 339h139l218 -333h2v333h118v-333h2l217 333h140l-242 -339z" />
    <glyph glyph-name="uni0417" unicode="&#x417;" horiz-adv-x="625" 
d="M503 673.5q69 -52.5 69 -144.5q0 -62 -31.5 -100.5t-95.5 -61.5v-2q71 -22 105.5 -64.5t34.5 -111.5q0 -61 -33.5 -107.5t-95.5 -71.5t-143 -25q-136 0 -209.5 62t-73.5 176h128q0 -66 39.5 -100.5t115.5 -34.5q66 0 104.5 29t38.5 77q0 56 -43 84.5t-127 28.5h-50v101
h50q74 0 116.5 29.5t42.5 79.5q0 49 -37 77.5t-101 28.5q-68 0 -104 -32.5t-36 -97.5h-129q0 110 72.5 171.5t201.5 61.5q122 0 191 -52.5z" />
    <glyph glyph-name="uni0418" unicode="&#x418;" horiz-adv-x="766" 
d="M204 432q0 -162 -6 -324h2q70 148 151 306l154 298h172v-712h-115v280q0 144 5 324h-2q-70 -148 -151 -306l-153 -298h-173v712h116v-280z" />
    <glyph glyph-name="uni0419" unicode="&#x419;" horiz-adv-x="766" 
d="M204 432q0 -162 -6 -324h2q70 148 151 306l154 298h172v-712h-115v280q0 144 5 324h-2q-70 -148 -151 -306l-153 -298h-173v712h116v-280zM493.5 793.5q-43.5 -38.5 -117.5 -38.5q-73 0 -116.5 38.5t-48.5 108.5h80q4 -34 26 -53t59 -19t59 19t26 53h81
q-5 -70 -48.5 -108.5z" />
    <glyph glyph-name="uni041A" unicode="&#x41a;" horiz-adv-x="644" 
d="M640 0h-155l-275 343h-2v-343h-120v712h120v-317h2l260 317h144l-291 -339z" />
    <glyph glyph-name="uni041B" unicode="&#x41b;" horiz-adv-x="721" 
d="M513 0v608h-228q-8 -259 -32 -389.5t-70 -177t-129 -46.5q-28 0 -43 5v99q10 -2 18 -2q52 0 79 45.5t41 174t21 395.5h463v-712h-120z" />
    <glyph glyph-name="uni041C" unicode="&#x41c;" horiz-adv-x="959" 
d="M755 0v358q0 150 4 270h-2q-35 -117 -86 -268l-123 -360h-137l-123 360q-51 151 -86 268h-2q4 -120 4 -270v-358h-116v712h193l115 -339q47 -137 82 -268h2q39 139 83 268l115 339h193v-712h-116z" />
    <glyph glyph-name="uni041D" unicode="&#x41d;" horiz-adv-x="744" 
d="M536 0v318h-328v-318h-120v712h120v-290h328v290h119v-712h-119z" />
    <glyph glyph-name="uni041E" unicode="&#x41e;" horiz-adv-x="740" 
d="M545.5 682q74.5 -45 114.5 -128.5t40 -197.5t-40 -197.5t-114.5 -128.5t-175.5 -45t-175.5 45t-114.5 128.5t-40 197.5t40 197.5t114.5 128.5t175.5 45t175.5 -45zM219.5 549q-55.5 -71 -55.5 -193t55.5 -193t150.5 -71t150.5 71t55.5 193t-55.5 193t-150.5 71
t-150.5 -71z" />
    <glyph glyph-name="uni041F" unicode="&#x41f;" horiz-adv-x="733" 
d="M526 0v608h-318v-608h-120v712h557v-712h-119z" />
    <glyph glyph-name="uni0420" unicode="&#x420;" horiz-adv-x="626" 
d="M534 652q66 -60 66 -162q0 -103 -66 -163t-189 -60h-137v-267h-120v712h257q123 0 189 -60zM208 368h123q74 0 110 31.5t36 90.5q0 58 -36 89.5t-110 31.5h-123v-243z" />
    <glyph glyph-name="uni0421" unicode="&#x421;" horiz-adv-x="695" 
d="M508.5 694q64.5 -33 100 -91.5t39.5 -134.5h-121q-8 71 -52.5 111.5t-115.5 40.5q-91 0 -143 -70.5t-52 -193.5t51.5 -193.5t140.5 -70.5q71 0 116.5 41t55.5 114h123q-11 -123 -89 -192.5t-206 -69.5q-97 0 -168.5 45t-109.5 128.5t-38 197.5t38.5 197.5t110.5 128.5
t170 45q85 0 149.5 -33z" />
    <glyph glyph-name="uni0422" unicode="&#x422;" horiz-adv-x="607" 
d="M363 608v-608h-119v608h-234v104h587v-104h-234z" />
    <glyph glyph-name="uni0423" unicode="&#x423;" horiz-adv-x="666" 
d="M294 25.5q-49 -33.5 -115 -33.5q-47 0 -74 8v101q20 -6 49 -6q41 0 67.5 19.5t45.5 65.5l-264 532h130l100 -217q46 -101 99 -221h2l11 25q47 108 88 195l99 218h130l-280 -574q-39 -79 -88 -112.5z" />
    <glyph glyph-name="uni0424" unicode="&#x424;" horiz-adv-x="844" 
d="M720 139.5q-85 -78.5 -240 -86.5v-78h-117v78q-154 8 -238.5 87t-84.5 216t84.5 216t238.5 87v78h117v-78q155 -8 240 -86.5t85 -216.5t-85 -216.5zM628.5 215q52.5 53 52.5 141t-52.5 141t-148.5 61v-404q96 8 148.5 61zM216 215q52 -53 147 -61v404q-95 -8 -147 -61
t-52 -141t52 -141z" />
    <glyph glyph-name="uni0425" unicode="&#x425;" horiz-adv-x="626" 
d="M620 0h-140l-166 272h-2l-166 -272h-141l235 364l-223 348h139l156 -261h2l156 261h138l-222 -348z" />
    <glyph glyph-name="uni0426" unicode="&#x426;" horiz-adv-x="754" 
d="M731 104v-264h-114v160h-529v712h120v-608h318v608h119v-608h86z" />
    <glyph glyph-name="uni0427" unicode="&#x427;" horiz-adv-x="661" 
d="M453 0v282q-82 -23 -179 -23q-116 0 -177.5 56t-61.5 160v237h119v-215q0 -65 38 -99.5t111 -34.5q80 0 150 20v329h120v-712h-120z" />
    <glyph glyph-name="uni0428" unicode="&#x428;" horiz-adv-x="1024" 
d="M88 0v712h120v-608h245v608h119v-608h245v608h119v-712h-848z" />
    <glyph glyph-name="uni0429" unicode="&#x429;" horiz-adv-x="1039" 
d="M1022 104v-264h-114v160h-820v712h120v-608h245v608h119v-608h245v608h119v-608h86z" />
    <glyph glyph-name="uni042A" unicode="&#x42a;" horiz-adv-x="751" 
d="M470 445q124 0 190 -60t66 -163q0 -102 -66 -162t-190 -60h-256v608h-204v104h323v-267h137zM333 101h124q74 0 110 31.5t36 89.5q0 59 -36 90.5t-110 31.5h-124v-243z" />
    <glyph glyph-name="uni042B" unicode="&#x42b;" horiz-adv-x="922" 
d="M88 712h120v-267h137q123 0 189 -60t66 -163q0 -102 -66 -162t-189 -60h-257v712zM714 0v712h120v-712h-120zM441 132.5q36 31.5 36 89.5q0 59 -36 90.5t-110 31.5h-123v-243h123q74 0 110 31.5z" />
    <glyph glyph-name="uni042C" unicode="&#x42c;" horiz-adv-x="626" 
d="M88 712h120v-267h137q123 0 189 -60t66 -163q0 -102 -66 -162t-189 -60h-257v712zM441 132.5q36 31.5 36 89.5q0 59 -36 90.5t-110 31.5h-123v-243h123q74 0 110 31.5z" />
    <glyph glyph-name="uni042D" unicode="&#x42d;" horiz-adv-x="702" 
d="M511 682q73 -45 112 -128.5t39 -197.5t-38.5 -197.5t-111 -128.5t-170.5 -45q-129 0 -208 69.5t-90 192.5h123q10 -73 56 -114t119 -41q81 0 131.5 56t61.5 156h-282v104h282q-11 100 -62.5 156t-133.5 56q-72 0 -117.5 -40.5t-53.5 -111.5h-121q4 76 40 134.5t101 91.5
t151 33q99 0 172 -45z" />
    <glyph glyph-name="uni042E" unicode="&#x42e;" horiz-adv-x="1010" 
d="M821.5 682q71.5 -45 110 -128.5t38.5 -197.5t-38.5 -197.5t-110 -128.5t-168.5 -45q-89 0 -157 38.5t-109 110.5t-49 170h-130v-304h-120v712h120v-304h130q8 98 49 170t109 110.5t157 38.5q97 0 168.5 -45zM794 163q52 71 52 193t-52 193t-141 71t-141 -71t-52 -193
t52 -193t141 -71t141 71z" />
    <glyph glyph-name="uni042F" unicode="&#x42f;" horiz-adv-x="646" 
d="M557 0h-119v281h-142l-23 1l-138 -282h-131l158 303q-60 25 -90 74.5t-30 120.5q0 102 64 158t190 56h261v-712zM309 613q-72 0 -109 -28.5t-37 -89.5q0 -54 34 -85.5t105 -31.5h136v235h-129z" />
    <glyph glyph-name="uni0430" unicode="&#x430;" horiz-adv-x="539" 
d="M418.5 473q53.5 -50 53.5 -149v-190q0 -82 13 -134h-103q-7 31 -7 71h-2q-56 -82 -171 -82q-78 0 -125 42.5t-47 108.5q0 65 44.5 104t150.5 56q64 11 137 15v20q0 54 -26.5 79.5t-72.5 25.5t-72 -24t-28 -65h-112q4 76 58.5 124t153.5 48q102 0 155.5 -50zM245 228
q-55 -9 -77.5 -27t-22.5 -53q0 -34 23.5 -54.5t66.5 -20.5q27 0 51 8.5t41 25.5q20 21 27.5 44.5t7.5 64.5v25q-65 -4 -117 -13z" />
    <glyph glyph-name="uni0431" unicode="&#x431;" horiz-adv-x="587" 
d="M357 608q-83 -5 -128.5 -28t-67 -66.5t-31.5 -118.5h2q20 48 63.5 75.5t113.5 27.5q108 0 171.5 -66.5t63.5 -180.5q0 -81 -30.5 -141t-87.5 -92.5t-133 -32.5q-120 0 -185.5 76t-65.5 217q0 158 31 247.5t93.5 129.5t167.5 48q130 10 186 24v-98q-49 -13 -163 -21z
M191 369q-31 -44 -31 -119q0 -83 35 -129t98 -46q62 0 96.5 44t34.5 124t-35.5 125t-98.5 45q-68 0 -99 -44z" />
    <glyph glyph-name="uni0432" unicode="&#x432;" horiz-adv-x="538" 
d="M436.5 473.5q49.5 -34.5 49.5 -100.5q0 -45 -23 -72t-68 -39v-2q50 -10 76.5 -40t26.5 -78q0 -68 -51 -105t-143 -37h-231v508h216q98 0 147.5 -34.5zM184 294h90q99 0 99 68t-99 68h-90v-136zM184 78h92q54 0 80 17.5t26 54.5q0 36 -26 53.5t-80 17.5h-92v-143z" />
    <glyph glyph-name="uni0433" unicode="&#x433;" horiz-adv-x="429" 
d="M187 421v-421h-114v508h345v-87h-231z" />
    <glyph glyph-name="uni0434" unicode="&#x434;" horiz-adv-x="612" 
d="M601 -160h-114v160h-363v-160h-114v247h62q28 44 44.5 135.5t25.5 285.5h390v-421h69v-247zM251 421q-13 -231 -50 -334h217v334h-167z" />
    <glyph glyph-name="uni0435" unicode="&#x435;" horiz-adv-x="562" 
d="M362.5 92q30.5 23 38.5 61h117q-15 -72 -77 -120t-157 -48q-76 0 -131.5 34.5t-85 96.5t-29.5 144q0 75 29 135t84.5 94t130.5 34q86 0 146.5 -46.5t81.5 -126.5q14 -45 14 -119h-373q3 -82 39.5 -122t93.5 -40q48 0 78.5 23zM194.5 405q-34.5 -34 -41.5 -99h257
q-6 65 -40.5 99t-87.5 34t-87.5 -34z" />
    <glyph glyph-name="uni0436" unicode="&#x436;" horiz-adv-x="724" 
d="M594 0l-174 263h-2v-263h-112v263h-2l-174 -263h-140l203 276l-182 232h130l163 -225h2v225h112v-225h2l163 225h130l-182 -232l203 -276h-140z" />
    <glyph glyph-name="uni0437" unicode="&#x437;" horiz-adv-x="503" 
d="M397 484q53 -39 53 -106q0 -43 -22 -70.5t-68 -44.5v-2q52 -16 77 -46t25 -79q0 -71 -56.5 -111t-153.5 -40q-106 0 -163 45t-57 131h115q0 -89 105 -89q44 0 70.5 18.5t26.5 49.5q0 73 -112 73h-50v85h50q46 0 73 19t27 51t-23 50t-63 18q-46 0 -70.5 -22t-24.5 -64
h-114q0 82 56.5 127.5t155.5 45.5q90 0 143 -39z" />
    <glyph glyph-name="uni0438" unicode="&#x438;" horiz-adv-x="646" 
d="M458 0v192q0 96 5 214h-2q-43 -95 -102 -200l-117 -206h-169v508h115v-193q0 -106 -6 -213h2q47 100 103 200l117 206h169v-508h-115z" />
    <glyph glyph-name="uni0439" unicode="&#x439;" horiz-adv-x="646" 
d="M458 0v192q0 96 5 214h-2q-43 -95 -102 -200l-117 -206h-169v508h115v-193q0 -106 -6 -213h2q47 100 103 200l117 206h169v-508h-115zM440.5 603.5q-43.5 -38.5 -117.5 -38.5q-73 0 -116.5 38.5t-48.5 108.5h80q4 -34 26 -53t59 -19t59 19t26 53h81q-5 -70 -48.5 -108.5z
" />
    <glyph glyph-name="uni043A" unicode="&#x43a;" horiz-adv-x="539" 
d="M387 0l-198 246h-2v-246h-114v508h114v-208h2l185 208h133l-210 -232l234 -276h-144z" />
    <glyph glyph-name="uni043B" unicode="&#x43b;" horiz-adv-x="563" 
d="M376 0v421h-146q-4 -176 -24 -268t-57 -125t-99 -33q-22 0 -44 5v83q10 -2 19 -2q35 0 54.5 32t30 122.5t13.5 272.5h367v-508h-114z" />
    <glyph glyph-name="uni043C" unicode="&#x43c;" horiz-adv-x="801" 
d="M621 0v240q0 93 3 186h-1q-24 -75 -65 -185l-90 -241h-136l-89 241q-41 110 -65 185h-2q3 -93 3 -186v-240h-106v508h181l84 -225q30 -81 61 -191h2q28 97 62 191l83 225h182v-508h-107z" />
    <glyph glyph-name="uni043D" unicode="&#x43d;" horiz-adv-x="601" 
d="M414 0v213h-227v-213h-114v508h114v-208h227v208h114v-508h-114z" />
    <glyph glyph-name="uni043E" unicode="&#x43e;" horiz-adv-x="577" 
d="M421.5 490q56.5 -33 87 -93.5t30.5 -142.5t-30.5 -142.5t-87 -93.5t-132.5 -33t-133 33t-87.5 93.5t-30.5 142.5t30.5 142.5t87.5 93.5t133 33t132.5 -33zM193 385q-35 -48 -35 -131t35 -131t96 -48t96 48t35 131t-35 131t-96 48t-96 -48z" />
    <glyph glyph-name="uni043F" unicode="&#x43f;" horiz-adv-x="593" 
d="M406 0v421h-219v-421h-114v508h447v-508h-114z" />
    <glyph glyph-name="uni0440" unicode="&#x440;" horiz-adv-x="587" 
d="M449 488q48 -33 74 -93.5t26 -140.5t-26 -140.5t-73.5 -93t-111.5 -32.5q-48 0 -87.5 20.5t-61.5 57.5h-2v-251h-114v693h111v-70h2q22 39 62.5 61t88.5 22q64 0 112 -33zM214.5 384.5q-33.5 -47.5 -33.5 -130.5q0 -82 33.5 -130t89.5 -48q58 0 92 48.5t34 129.5
t-34 129.5t-92 48.5q-56 0 -89.5 -47.5z" />
    <glyph glyph-name="uni0441" unicode="&#x441;" horiz-adv-x="548" 
d="M399 497.5q50 -25.5 80 -70.5t35 -103h-119q-4 50 -34 79.5t-76 29.5q-60 0 -93.5 -47.5t-33.5 -131.5t33.5 -131.5t93.5 -47.5q46 0 75.5 33t33.5 85h120q-8 -93 -70 -150.5t-159 -57.5q-74 0 -130 33t-86.5 93.5t-30.5 142.5t30.5 142.5t86.5 93.5t130 33
q64 0 114 -25.5z" />
    <glyph glyph-name="uni0442" unicode="&#x442;" horiz-adv-x="462" 
d="M289 421v-421h-115v421h-168v87h450v-87h-167z" />
    <glyph glyph-name="uni0443" unicode="&#x443;" horiz-adv-x="488" 
d="M245 -123q-29 -36 -69 -51.5t-100 -15.5q-31 0 -57 7v93q23 -7 48 -7q46 0 70.5 20t42.5 73l-186 512h122l127 -378h2l131 378h118l-196 -530q-24 -65 -53 -101z" />
    <glyph glyph-name="uni0444" unicode="&#x444;" horiz-adv-x="803" 
d="M562 521q61 0 107 -33t71 -93.5t25 -140.5t-25 -140.5t-71 -93t-108 -32.5q-57 0 -102 36v-209h-114v209q-47 -36 -102 -36q-62 0 -108.5 32.5t-71.5 93t-25 140.5t25 140.5t71 93.5t107 33q58 0 104 -38v229h114v-229q44 38 103 38zM189 383.5q-32 -48.5 -32 -129.5
t32 -129.5t87 -48.5q39 0 69 30v295q-29 31 -69 31q-55 0 -87 -48.5zM459 401v-295q28 -30 68 -30q55 0 87.5 48.5t32.5 129.5t-32.5 129.5t-87.5 48.5q-40 0 -68 -31z" />
    <glyph glyph-name="uni0445" unicode="&#x445;" horiz-adv-x="494" 
d="M498 0h-134l-116 188h-2l-116 -188h-134l181 263l-168 245h133l104 -165h2l104 165h133l-168 -245z" />
    <glyph glyph-name="uni0446" unicode="&#x446;" horiz-adv-x="600" 
d="M589 87v-247h-114v160h-402v508h114v-421h219v421h114v-421h69z" />
    <glyph glyph-name="uni0447" unicode="&#x447;" horiz-adv-x="540" 
d="M353 0v193q-68 -19 -141 -19q-87 0 -134.5 41t-47.5 116v177h114v-155q0 -45 27 -68.5t78 -23.5q55 0 104 17v230h114v-508h-114z" />
    <glyph glyph-name="uni0448" unicode="&#x448;" horiz-adv-x="846" 
d="M73 0v508h114v-421h179v421h114v-421h179v421h114v-508h-700z" />
    <glyph glyph-name="uni0449" unicode="&#x449;" horiz-adv-x="852" 
d="M838 87v-247h-114v160h-651v508h114v-421h179v421h114v-421h179v421h114v-421h65z" />
    <glyph glyph-name="uni044A" unicode="&#x44a;" horiz-adv-x="609" 
d="M379 332q97 0 148.5 -43t51.5 -123t-51.5 -123t-148.5 -43h-232v421h-141v87h255v-176h118zM261 85h106q97 0 97 81t-97 81h-106v-162z" />
    <glyph glyph-name="uni044B" unicode="&#x44b;" horiz-adv-x="765" 
d="M305 332q97 0 148.5 -43t51.5 -123t-51.5 -123t-148.5 -43h-232v508h114v-176h118zM187 85h106q97 0 97 81t-97 81h-106v-162zM578 0v508h114v-508h-114z" />
    <glyph glyph-name="uni044C" unicode="&#x44c;" horiz-adv-x="538" 
d="M305 332q97 0 148.5 -43t51.5 -123t-51.5 -123t-148.5 -43h-232v508h114v-176h118zM187 85h106q97 0 97 81t-97 81h-106v-162z" />
    <glyph glyph-name="uni044D" unicode="&#x44d;" horiz-adv-x="548" 
d="M393 490q56 -33 86.5 -93.5t30.5 -142.5t-30.5 -142.5t-86.5 -93.5t-130 -33q-97 0 -159 56.5t-70 147.5h117q4 -52 35 -84.5t78 -32.5q53 0 86 38.5t41 106.5h-195v84h194q-9 64 -42 99.5t-84 35.5q-48 0 -79 -30.5t-35 -77.5h-116q5 55 34.5 99.5t80 70t114.5 25.5
q74 0 130 -33z" />
    <glyph glyph-name="uni044E" unicode="&#x44e;" horiz-adv-x="817" 
d="M661.5 490q56.5 -33 87 -93.5t30.5 -142.5t-30.5 -142.5t-87 -93.5t-132.5 -33q-105 0 -171 60t-78 165h-93v-210h-114v508h114v-211l93 1q12 105 78 165t171 60q76 0 132.5 -33zM625 123q35 48 35 131t-35 131t-96 48t-96 -48t-35 -131t35 -131t96 -48t96 48z" />
    <glyph glyph-name="uni044F" unicode="&#x44f;" horiz-adv-x="546" 
d="M473 0h-112v178h-111h-14l-101 -178h-123l121 198q-92 40 -92 148q0 78 53 120t158 42h221v-508zM263 422q-111 0 -111 -79q0 -38 25.5 -60t80.5 -22h103v161h-98z" />
    <glyph glyph-name="uni0450" unicode="&#x450;" horiz-adv-x="562" 
d="M362.5 92q30.5 23 38.5 61h117q-15 -72 -77 -120t-157 -48q-76 0 -131.5 34.5t-85 96.5t-29.5 144q0 75 29 135t84.5 94t130.5 34q86 0 146.5 -46.5t81.5 -126.5q14 -45 14 -119h-373q3 -82 39.5 -122t93.5 -40q48 0 78.5 23zM194.5 405q-34.5 -34 -41.5 -99h257
q-6 65 -40.5 99t-87.5 34t-87.5 -34zM357 568h-93l-132 144h143z" />
    <glyph glyph-name="uni0451" unicode="&#x451;" horiz-adv-x="562" 
d="M362.5 92q30.5 23 38.5 61h117q-15 -72 -77 -120t-157 -48q-76 0 -131.5 34.5t-85 96.5t-29.5 144q0 75 29 135t84.5 94t130.5 34q86 0 146.5 -46.5t81.5 -126.5q14 -45 14 -119h-373q3 -82 39.5 -122t93.5 -40q48 0 78.5 23zM194.5 405q-34.5 -34 -41.5 -99h257
q-6 65 -40.5 99t-87.5 34t-87.5 -34zM126 603v109h102v-109h-102zM332 603v109h102v-109h-102z" />
    <glyph glyph-name="uni0452" unicode="&#x452;" 
d="M471.5 413q48.5 -53 48.5 -156v-280q0 -86 -42.5 -126.5t-117.5 -40.5q-26 0 -58 7v85q14 -3 28 -3q39 0 57.5 21t18.5 72v255q0 127 -103 127q-51 0 -83.5 -38t-32.5 -108v-228h-114v552h-72v74h72v86h114v-86h219v-74h-219v-158h2q26 36 64 54t82 18q88 0 136.5 -53z
" />
    <glyph glyph-name="uni0453" unicode="&#x453;" horiz-adv-x="429" 
d="M187 421v-421h-114v508h345v-87h-231zM170 568l81 144h144l-132 -144h-93z" />
    <glyph glyph-name="uni0454" unicode="&#x454;" horiz-adv-x="548" 
d="M362.5 104.5q30.5 32.5 34.5 84.5h117q-5 -60 -34.5 -106t-80 -72t-114.5 -26q-74 0 -130 33t-86.5 93.5t-30.5 142.5t30.5 142.5t86.5 93.5t130 33q65 0 115 -25.5t79.5 -70t34.5 -99.5h-116q-4 47 -34.5 77.5t-78.5 30.5q-52 0 -85 -35.5t-42 -99.5h194v-84h-195
q8 -68 41 -106.5t87 -38.5q47 0 77.5 32.5z" />
    <glyph glyph-name="uni0455" unicode="&#x455;" horiz-adv-x="509" 
d="M399.5 478.5q53.5 -44.5 54.5 -128.5h-110q0 45 -25 67.5t-72 22.5q-40 0 -62 -16t-22 -44q0 -21 11.5 -33.5t33.5 -20t70 -19.5q66 -17 102.5 -31.5t63 -47t26.5 -88.5q0 -70 -58 -112.5t-155 -42.5q-104 0 -161.5 46.5t-58.5 135.5h116q0 -47 27.5 -72t78.5 -25
q43 0 67.5 17t24.5 46q0 25 -13 39.5t-37.5 23t-77.5 21.5q-59 15 -92.5 28t-57.5 43t-24 83q0 45 25 79.5t70 53.5t104 19q98 0 151.5 -44.5z" />
    <glyph glyph-name="uni0456" unicode="&#x456;" horiz-adv-x="260" 
d="M73 603v109h114v-109h-114zM73 0v508h114v-508h-114z" />
    <glyph glyph-name="uni0457" unicode="&#x457;" horiz-adv-x="260" 
d="M73 0v508h114v-508h-114zM-3 603v109h102v-109h-102zM160 603v109h103v-109h-103z" />
    <glyph glyph-name="uni0458" unicode="&#x458;" horiz-adv-x="264" 
d="M77 603v109h114v-109h-114zM148.5 -149q-42.5 -41 -117.5 -41q-26 0 -58 7v85q13 -3 28 -3q39 0 57.5 21.5t18.5 74.5v513h114v-528q0 -88 -42.5 -129z" />
    <glyph glyph-name="uni0459" unicode="&#x459;" horiz-adv-x="841" 
d="M608 332q97 0 148.5 -43t51.5 -123t-51.5 -123t-148.5 -43h-232v421h-146q-4 -176 -24 -268t-57 -125t-99 -33q-22 0 -44 5v83q10 -2 19 -2q35 0 54.5 32t30 122.5t13.5 272.5h367v-176h118zM490 85h106q97 0 97 81t-97 81h-106v-162z" />
    <glyph glyph-name="uni045A" unicode="&#x45a;" horiz-adv-x="879" 
d="M646 332q97 0 148.5 -43t51.5 -123t-51.5 -123t-148.5 -43h-232v222h-227v-222h-114v508h114v-199h227v199h114v-176h118zM528 85h106q97 0 97 81t-97 81h-106v-162z" />
    <glyph glyph-name="uni045B" unicode="&#x45b;" 
d="M471.5 413q48.5 -53 48.5 -156v-257h-114v247q0 127 -103 127q-51 0 -83.5 -38t-32.5 -108v-228h-114v552h-72v74h72v86h114v-86h219v-74h-219v-158h2q26 36 64 54t82 18q88 0 136.5 -53z" />
    <glyph glyph-name="uni045C" unicode="&#x45c;" horiz-adv-x="539" 
d="M387 0l-198 246h-2v-246h-114v508h114v-208h2l185 208h133l-210 -232l234 -276h-144zM204 568l81 144h144l-132 -144h-93z" />
    <glyph glyph-name="uni045D" unicode="&#x45d;" horiz-adv-x="646" 
d="M458 0v192q0 96 5 214h-2q-43 -95 -102 -200l-117 -206h-169v508h115v-193q0 -106 -6 -213h2q47 100 103 200l117 206h169v-508h-115zM400 568h-93l-132 144h143z" />
    <glyph glyph-name="uni045E" unicode="&#x45e;" horiz-adv-x="488" 
d="M245 -123q-29 -36 -69 -51.5t-100 -15.5q-31 0 -57 7v93q23 -7 48 -7q46 0 70.5 20t42.5 73l-186 512h122l127 -378h2l131 378h118l-196 -530q-24 -65 -53 -101zM361.5 603.5q-43.5 -38.5 -117.5 -38.5q-73 0 -116.5 38.5t-48.5 108.5h80q4 -34 26 -53t59 -19t59 19
t26 53h81q-5 -70 -48.5 -108.5z" />
    <glyph glyph-name="uni045F" unicode="&#x45f;" horiz-adv-x="593" 
d="M352 0v-160h-114v160h-165v508h114v-421h219v421h114v-508h-168z" />
    <glyph glyph-name="uni0490" unicode="&#x490;" horiz-adv-x="498" 
d="M208 608v-608h-120v712h286v143h114v-247h-280z" />
    <glyph glyph-name="uni0491" unicode="&#x491;" horiz-adv-x="429" 
d="M187 421v-421h-114v508h237v160h108v-247h-231z" />
    <glyph glyph-name="uni0492" unicode="&#x492;" horiz-adv-x="498" 
d="M208 377h145v-89h-145v-288h-120v288h-64v89h64v335h400v-104h-280v-231z" />
    <glyph glyph-name="uni0493" unicode="&#x493;" horiz-adv-x="433" 
d="M190 277h129v-80h-129v-197h-114v197h-59v80h59v231h345v-87h-231v-144z" />
    <glyph glyph-name="uni0496" unicode="&#x496;" horiz-adv-x="897" 
d="M893 -160h-114v160h-30l-239 359h-2v-359h-118v359h-2l-240 -359h-144l268 373l-241 339h139l218 -333h2v333h118v-333h2l217 333h140l-242 -339l193 -269h75v-264z" />
    <glyph glyph-name="uni0497" unicode="&#x497;" horiz-adv-x="724" 
d="M734 -160h-114v160h-26l-174 263h-2v-263h-112v263h-2l-174 -263h-140l203 276l-182 232h130l163 -225h2v225h112v-225h2l163 225h130l-182 -232l139 -189h64v-247z" />
    <glyph glyph-name="uni049A" unicode="&#x49a;" horiz-adv-x="644" 
d="M640 -160h-114v160h-41l-275 343h-2v-343h-120v712h120v-317h2l260 317h144l-291 -339l229 -269h88v-264z" />
    <glyph glyph-name="uni049B" unicode="&#x49b;" horiz-adv-x="539" 
d="M531 -160h-114v160h-30l-198 246h-2v-246h-114v508h114v-208h2l185 208h133l-210 -232l160 -189h74v-247z" />
    <glyph glyph-name="uni049C" unicode="&#x49c;" horiz-adv-x="715" 
d="M351 318v-163h-94v163h-51v-318h-118v712h118v-290h51v163h94v-163h5l189 290h140l-240 -339l266 -373h-144l-212 318h-4z" />
    <glyph glyph-name="uni049D" unicode="&#x49d;" horiz-adv-x="593" 
d="M306 230v-127h-77v127h-45v-230h-111v508h111v-191h45v124h77v-124h6l138 191h130l-181 -232l203 -276h-141l-151 230h-4z" />
    <glyph glyph-name="uni04A2" unicode="&#x4a2;" horiz-adv-x="764" 
d="M627 -160v160h-91v318h-328v-318h-120v712h120v-290h328v290h119v-608h86v-264h-114z" />
    <glyph glyph-name="uni04A3" unicode="&#x4a3;" horiz-adv-x="607" 
d="M483 -160v160h-69v213h-227v-213h-114v508h114v-208h227v208h114v-421h69v-247h-114z" />
    <glyph glyph-name="uni04AE" unicode="&#x4ae;" horiz-adv-x="626" 
d="M373 0h-120v286l-250 426h136l78 -141q50 -90 95 -184h2q48 100 96 184l77 141h135l-249 -426v-286z" />
    <glyph glyph-name="uni04AF" unicode="&#x4af;" horiz-adv-x="490" 
d="M302 -11v-174h-114v174l-194 519h119l66 -188q32 -90 65 -203h2q33 113 65 203l66 188h119z" />
    <glyph glyph-name="uni04B2" unicode="&#x4b2;" horiz-adv-x="626" 
d="M622 -160h-114v160h-28l-166 272h-2l-166 -272h-141l235 364l-223 348h139l156 -261h2l156 261h138l-222 -348l167 -260h69v-264z" />
    <glyph glyph-name="uni04B3" unicode="&#x4b3;" horiz-adv-x="494" 
d="M498 -160h-114v160h-20l-116 188h-2l-116 -188h-134l181 263l-168 245h133l104 -165h2l104 165h133l-168 -245l121 -176h60v-247z" />
    <glyph glyph-name="uni04B8" unicode="&#x4b8;" horiz-adv-x="661" 
d="M573 0h-120v282q-40 -12 -97 -18v-140h-102v135q-106 5 -162.5 60.5t-56.5 155.5v237h119v-215q0 -53 25.5 -85.5t74.5 -43.5v199h102v-201q54 5 97 17v329h120v-712z" />
    <glyph glyph-name="uni04B9" unicode="&#x4b9;" horiz-adv-x="540" 
d="M467 0h-114v193q-35 -10 -66 -14v-97h-78v92q-86 1 -132.5 42t-46.5 115v177h114v-155q0 -37 16 -59t49 -29v153h78v-155q38 5 66 15v230h114v-508z" />
    <glyph glyph-name="uni04BA" unicode="&#x4ba;" horiz-adv-x="661" 
d="M208 712v-282q84 23 179 23q116 0 178 -56t62 -160v-237h-120v215q0 65 -38 99.5t-111 34.5q-80 0 -150 -20v-329h-120v712h120z" />
    <glyph glyph-name="uni04BB" unicode="&#x4bb;" 
d="M189 448q26 36 64 54t82 18q88 0 136.5 -53t48.5 -156v-311h-114v301q0 127 -103 127q-51 0 -83.5 -38t-32.5 -108v-282h-114v712h114v-264h2z" />
    <glyph glyph-name="uni04C0" unicode="&#x4c0;" horiz-adv-x="296" 
d="M88 0v712h120v-712h-120z" />
    <glyph glyph-name="uni04CF" unicode="&#x4cf;" horiz-adv-x="260" 
d="M73 0v712h114v-712h-114z" />
    <glyph glyph-name="uni04D8" unicode="&#x4d8;" horiz-adv-x="752" 
d="M550.5 681.5q78.5 -45.5 120.5 -129t42 -195.5q0 -107 -41.5 -191.5t-118.5 -132.5t-181 -48q-101 0 -176 45t-115.5 128.5t-40.5 196.5q0 22 2 42h546q-6 112 -67.5 168.5t-156.5 56.5q-73 0 -119 -34.5t-59 -90.5h-128q13 64 52.5 116t104 83t150.5 31
q107 0 185.5 -45.5zM517 145.5q57 53.5 68 150.5h-420q10 -99 66.5 -151.5t140.5 -52.5q88 0 145 53.5z" />
    <glyph glyph-name="uni04D9" unicode="&#x4d9;" horiz-adv-x="562" 
d="M408.5 489.5q56.5 -33.5 86 -94t29.5 -141.5q0 -77 -29.5 -138t-85 -96t-130.5 -35q-73 0 -127.5 33t-84 93.5t-29.5 142.5q0 15 2 29h371q-3 79 -40.5 117.5t-96.5 38.5q-44 0 -72 -22.5t-35 -58.5h-117q15 71 73.5 118t150.5 47q78 0 134.5 -33.5zM367.5 105
q34.5 36 41.5 103h-257q6 -68 40.5 -103.5t86.5 -35.5q54 0 88.5 36z" />
    <glyph glyph-name="uni04E8" unicode="&#x4e8;" horiz-adv-x="740" 
d="M545.5 682q74.5 -45 114.5 -128.5t40 -197.5t-40 -197.5t-114.5 -128.5t-175.5 -45t-175.5 45t-114.5 128.5t-40 197.5t40 197.5t114.5 128.5t175.5 45t175.5 -45zM227.5 567.5q-55.5 -57.5 -67.5 -159.5h420q-11 102 -66.5 159.5t-143.5 57.5q-87 0 -142.5 -57.5z
M513.5 144.5q55.5 57.5 66.5 159.5h-420q12 -102 67.5 -159.5t142.5 -57.5q88 0 143.5 57.5z" />
    <glyph glyph-name="uni04E9" unicode="&#x4e9;" horiz-adv-x="578" 
d="M422 490q57 -33 87.5 -93.5t30.5 -142.5t-30.5 -142.5t-87.5 -93.5t-133 -33t-133 33t-87.5 93.5t-30.5 142.5t30.5 142.5t87.5 93.5t133 33t133 -33zM198 398.5q-36 -38.5 -44 -105.5h269q-8 67 -43.5 105.5t-90.5 38.5t-91 -38.5zM380 109.5q36 38.5 44 106.5h-270
q8 -68 44 -106.5t91 -38.5t91 38.5z" />
    <glyph glyph-name="Wgrave" unicode="&#x1e80;" horiz-adv-x="936" 
d="M608 0l-71 296q-40 168 -68 313h-2q-28 -145 -68 -313l-71 -296h-161l-157 712h118l58 -274q39 -180 63 -321h2q37 176 72 322l66 273h158l66 -273q35 -146 72 -322h2q21 122 62 321l59 274h118l-157 -712h-161zM543 760h-93l-132 142h143z" />
    <glyph glyph-name="wgrave" unicode="&#x1e81;" horiz-adv-x="790" 
d="M497 0l-52 210q-24 97 -49 219h-2q-25 -122 -49 -219l-52 -210h-163l-124 508h114l46 -204q28 -120 46 -225h2q19 93 50 221l51 208h160l51 -208q31 -128 50 -221h2q18 105 46 225l46 204h114l-124 -508h-163zM471 568h-93l-132 144h143z" />
    <glyph glyph-name="Wacute" unicode="&#x1e82;" horiz-adv-x="936" 
d="M608 0l-71 296q-40 168 -68 313h-2q-28 -145 -68 -313l-71 -296h-161l-157 712h118l58 -274q39 -180 63 -321h2q37 176 72 322l66 273h158l66 -273q35 -146 72 -322h2q21 122 62 321l59 274h118l-157 -712h-161zM391 760l81 142h144l-132 -142h-93z" />
    <glyph glyph-name="wacute" unicode="&#x1e83;" horiz-adv-x="790" 
d="M497 0l-52 210q-24 97 -49 219h-2q-25 -122 -49 -219l-52 -210h-163l-124 508h114l46 -204q28 -120 46 -225h2q19 93 50 221l51 208h160l51 -208q31 -128 50 -221h2q18 105 46 225l46 204h114l-124 -508h-163zM319 568l81 144h144l-132 -144h-93z" />
    <glyph glyph-name="Wdieresis" unicode="&#x1e84;" horiz-adv-x="936" 
d="M608 0l-71 296q-40 168 -68 313h-2q-28 -145 -68 -313l-71 -296h-161l-157 712h118l58 -274q39 -180 63 -321h2q37 176 72 322l66 273h158l66 -273q35 -146 72 -322h2q21 122 62 321l59 274h118l-157 -712h-161zM313 772v109h102v-109h-102zM519 772v109h102v-109h-102z
" />
    <glyph glyph-name="wdieresis" unicode="&#x1e85;" horiz-adv-x="790" 
d="M497 0l-52 210q-24 97 -49 219h-2q-25 -122 -49 -219l-52 -210h-163l-124 508h114l46 -204q28 -120 46 -225h2q19 93 50 221l51 208h160l51 -208q31 -128 50 -221h2q18 105 46 225l46 204h114l-124 -508h-163zM241 603v109h102v-109h-102zM447 603v109h102v-109h-102z
" />
    <glyph glyph-name="Germandbls" unicode="&#x1e9e;" horiz-adv-x="785" 
d="M743 193q0 -98 -65 -152t-174 -54q-111 0 -169.5 51t-58.5 149h117q0 -49 27.5 -74.5t81.5 -25.5t85 28t31 80q0 70 -54.5 105.5t-162.5 43.5v84l137 147q-27 24 -64 37.5t-80 13.5q-96 0 -146 -52.5t-50 -155.5v-418h-120v416q0 151 83.5 230.5t239.5 79.5
q89 0 163.5 -35.5t123.5 -96.5l-157 -170q212 -49 212 -231z" />
    <glyph glyph-name="Ygrave" unicode="&#x1ef2;" horiz-adv-x="626" 
d="M373 0h-120v286l-250 426h136l78 -141q50 -90 95 -184h2q48 100 96 184l77 141h135l-249 -426v-286zM389 760h-93l-132 142h143z" />
    <glyph glyph-name="ygrave" unicode="&#x1ef3;" horiz-adv-x="488" 
d="M245 -123q-29 -36 -69 -51.5t-100 -15.5q-31 0 -57 7v93q23 -7 48 -7q46 0 70.5 20t42.5 73l-186 512h122l127 -378h2l131 378h118l-196 -530q-24 -65 -53 -101zM320 568h-93l-132 144h143z" />
    <glyph glyph-name="uni2010" unicode="&#x2010;" horiz-adv-x="310" 
d="M30 245v94h250v-94h-250z" />
    <glyph glyph-name="endash" unicode="&#x2013;" horiz-adv-x="500" 
d="M20 245v94h460v-94h-460z" />
    <glyph glyph-name="emdash" unicode="&#x2014;" horiz-adv-x="1000" 
d="M20 245v94h960v-94h-960z" />
    <glyph glyph-name="uni2015" unicode="&#x2015;" horiz-adv-x="1000" 
d="M20 245v94h960v-94h-960z" />
    <glyph glyph-name="underscoredbl" unicode="&#x2017;" horiz-adv-x="500" 
d="M0 -110v60h500v-60h-500zM0 -247v60h500v-60h-500z" />
    <glyph glyph-name="quoteleft" unicode="&#x2018;" horiz-adv-x="246" 
d="M121 712h62l-41 -140h39v-125h-116v125z" />
    <glyph glyph-name="quoteright" unicode="&#x2019;" horiz-adv-x="246" 
d="M125 447h-62l41 140h-39v125h115v-125z" />
    <glyph glyph-name="quotesinglbase" unicode="&#x201a;" horiz-adv-x="246" 
d="M125 -140h-62l41 140h-39v125h115v-125z" />
    <glyph glyph-name="quotereversed" unicode="&#x201b;" horiz-adv-x="246" 
d="M181 587h-39l41 -140h-62l-56 140v125h116v-125z" />
    <glyph glyph-name="quotedblleft" unicode="&#x201c;" horiz-adv-x="417" 
d="M121 712h62l-41 -140h39v-125h-116v125zM292 712h62l-41 -140h39v-125h-115v125z" />
    <glyph glyph-name="quotedblright" unicode="&#x201d;" horiz-adv-x="417" 
d="M125 447h-62l41 140h-39v125h115v-125zM296 447h-62l41 140h-39v125h115v-125z" />
    <glyph glyph-name="quotedblbase" unicode="&#x201e;" horiz-adv-x="417" 
d="M125 -140h-62l41 140h-39v125h115v-125zM296 -140h-62l41 140h-39v125h115v-125z" />
    <glyph glyph-name="dagger" unicode="&#x2020;" horiz-adv-x="550" 
d="M496 529v-92h-163v-557h-115v557h-164v92h164v183h115v-183h163z" />
    <glyph glyph-name="daggerdbl" unicode="&#x2021;" horiz-adv-x="550" 
d="M496 529v-92h-163v-261h163v-93h-163v-203h-115v203h-164v93h164v261h-164v92h164v183h115v-183h163z" />
    <glyph glyph-name="bullet" unicode="&#x2022;" horiz-adv-x="347" 
d="M110.5 246q-29.5 17 -47 46.5t-17.5 63.5q0 35 17.5 64t46.5 46t64 17q53 0 90 -37t37 -90t-37 -90t-90 -37q-34 0 -63.5 17z" />
    <glyph glyph-name="ellipsis" unicode="&#x2026;" horiz-adv-x="826" 
d="M55 0v142h132v-142h-132zM347 0v142h132v-142h-132zM639 0v142h132v-142h-132z" />
    <glyph glyph-name="perthousand" unicode="&#x2030;" horiz-adv-x="1052" 
d="M108 -30l421 734h77l-421 -734h-77zM274 645q37 -44 37 -124q0 -81 -36.5 -124.5t-104.5 -43.5q-67 0 -103.5 43.5t-36.5 124.5q0 80 36.5 124t103.5 44t104 -44zM129 595.5q-15 -26.5 -15 -74.5t15 -74.5t41 -26.5q27 0 42 26t15 75q0 48 -15 74.5t-42 26.5
q-26 0 -41 -26.5zM647.5 278q36.5 -44 36.5 -125q0 -80 -37 -124t-104 -44t-103.5 44t-36.5 124q0 81 36.5 125t103.5 44q68 0 104.5 -44zM985.5 278q36.5 -44 36.5 -125q0 -80 -36.5 -124t-103.5 -44t-103.5 44t-36.5 124q0 81 36.5 125t103.5 44t103.5 -44zM502 227.5
q-15 -26.5 -15 -74.5t15 -74.5t41 -26.5q27 0 42 26.5t15 74.5q0 49 -15 75t-42 26q-26 0 -41 -26.5zM840.5 228q-14.5 -26 -14.5 -75q0 -48 14.5 -74.5t41.5 -26.5t41.5 26.5t14.5 74.5q0 49 -14.5 75t-41.5 26t-41.5 -26z" />
    <glyph glyph-name="minute" unicode="&#x2032;" horiz-adv-x="201" 
d="M30 444l36 230h105l-68 -230h-73z" />
    <glyph glyph-name="second" unicode="&#x2033;" horiz-adv-x="365" 
d="M197 444l36 230h105l-68 -230h-73zM30 444l36 230h105l-68 -230h-73z" />
    <glyph glyph-name="guilsinglleft" unicode="&#x2039;" horiz-adv-x="308" 
d="M262 54h-102l-114 200l114 200h102l-109 -200z" />
    <glyph glyph-name="guilsinglright" unicode="&#x203a;" horiz-adv-x="308" 
d="M262 254l-114 -200h-102l109 200l-109 200h102z" />
    <glyph glyph-name="exclamdbl" unicode="&#x203c;" horiz-adv-x="537" 
d="M342 187l-26 525h141l-26 -525h-89zM322 0v119h129v-119h-129zM105 187l-26 525h141l-26 -525h-89zM85 0v119h129v-119h-129z" />
    <glyph glyph-name="interrobang" unicode="&#x203d;" horiz-adv-x="532" 
d="M447.5 595.5q46.5 -44.5 46.5 -112.5q0 -37 -8 -63.5t-30 -52.5t-65 -59q-34 -26 -49.5 -43.5t-22 -37t-6.5 -51.5h-94l-14 365q-51 -24 -55 -94h-118q3 84 46.5 135t122.5 66l-2 64h124l-3 -61q81 -11 127.5 -55.5zM366 431q8 18 8 46q0 26 -15 44.5t-43 26.5l-8 -185h2
l25 26q23 24 31 42zM328 119v-119h-129v119h129z" />
    <glyph glyph-name="overline" unicode="&#x203e;" horiz-adv-x="500" 
d="M0 783v78h500v-78h-500z" />
    <glyph glyph-name="fraction" unicode="&#x2044;" horiz-adv-x="148" 
d="M-156 0l377 674h82l-376 -674h-83z" />
    <glyph glyph-name="zero.superior" unicode="&#x2070;" horiz-adv-x="451" 
d="M368 749q50 -64 50 -183t-50 -183t-142 -64q-93 0 -142.5 64t-49.5 183t49.5 183t142.5 64q92 0 142 -64zM160 689q-23 -43 -23 -123q0 -81 23 -124t66 -43t65.5 43.5t22.5 123.5t-22.5 123t-65.5 43t-66 -43z" />
    <glyph glyph-name="four.superior" unicode="&#x2074;" horiz-adv-x="427" 
d="M338 436v-106h-99v106h-228v83l195 283h132v-288h78v-78h-78zM242 514v56q0 52 4 154h-2q-24 -40 -78 -118l-15 -22l-49 -70h140z" />
    <glyph glyph-name="five.superior" unicode="&#x2075;" horiz-adv-x="433" 
d="M151 719l-11 -110h2q17 17 42 26t53 9q72 0 116.5 -43t44.5 -113q0 -77 -50.5 -123t-133.5 -46q-82 0 -130 38.5t-48 104.5h102q1 -30 21.5 -46.5t53.5 -16.5q38 0 59.5 22.5t21.5 62.5q0 39 -21.5 61t-57.5 22q-29 0 -48 -14t-26 -39l-100 6l27 282h304v-83h-221z" />
    <glyph glyph-name="six.superior" unicode="&#x2076;" horiz-adv-x="432" 
d="M347 776q44 -37 49 -104h-103q-9 62 -67 62q-90 0 -96 -146h2q41 49 113 49q70 0 113.5 -42t43.5 -110q0 -74 -50.5 -120t-130.5 -46q-90 0 -138.5 59t-48.5 174q0 125 51.5 193t144.5 68q73 0 117 -37zM165.5 540q-21.5 -23 -21.5 -60t21.5 -59t56.5 -22t56 22.5
t21 59.5t-21 59.5t-56 22.5t-56.5 -23z" />
    <glyph glyph-name="seven.superior" unicode="&#x2077;" horiz-adv-x="383" 
d="M275 542q-42 -101 -64 -212h-110q26 118 72 219t98 168h-260v85h361v-83q-55 -76 -97 -177z" />
    <glyph glyph-name="eight.superior" unicode="&#x2078;" horiz-adv-x="434" 
d="M342.5 776.5q48.5 -36.5 48.5 -95.5q0 -37 -23 -64.5t-63 -40.5v-2q45 -12 71 -42.5t26 -73.5q0 -64 -50.5 -101.5t-134.5 -37.5t-134.5 37.5t-50.5 101.5q0 43 25.5 73.5t70.5 42.5v2q-40 13 -63 40.5t-23 64.5q0 59 48.5 95.5t126.5 36.5q77 0 125.5 -36.5z
M160.5 717.5q-21.5 -16.5 -21.5 -43.5q0 -29 21 -46.5t57 -17.5q35 0 56 17.5t21 46.5q0 27 -21 43.5t-56 16.5t-56.5 -16.5zM156.5 515.5q-22.5 -18.5 -22.5 -49.5t22.5 -49t60.5 -18t60 18t22 49t-22.5 49.5t-59.5 18.5q-38 0 -60.5 -18.5z" />
    <glyph glyph-name="nine.superior" unicode="&#x2079;" horiz-adv-x="432" 
d="M86 356q-44 37 -49 104h102q5 -30 22 -46t45 -16q92 0 96 146h-2q-40 -49 -113 -49q-70 0 -113.5 42t-43.5 110q0 74 50.5 120t130.5 46q90 0 139 -59t49 -174q0 -125 -52 -193t-145 -68q-72 0 -116 37zM266.5 592q21.5 23 21.5 60t-21.5 59t-56.5 22t-56 -22.5
t-21 -59.5t21 -59.5t56 -22.5t56.5 23z" />
    <glyph glyph-name="plussuperior" unicode="&#x207a;" horiz-adv-x="410" 
d="M363 590v-77h-118v-115h-79v115h-119v77h119v116h79v-116h118z" />
    <glyph glyph-name="uni207B" unicode="&#x207b;" horiz-adv-x="410" 
d="M47 513v77h316v-77h-316z" />
    <glyph glyph-name="equalsuperior" unicode="&#x207c;" horiz-adv-x="410" 
d="M47 581v75h316v-75h-316zM47 447v75h316v-75h-316z" />
    <glyph glyph-name="parenleftsuperior" unicode="&#x207d;" horiz-adv-x="235" 
d="M155.5 694.5q-18.5 -73.5 -18.5 -156.5t18.5 -156.5t58.5 -154.5h-81q-52 74 -76.5 148.5t-24.5 162.5t24.5 163t76.5 148h81q-40 -81 -58.5 -154.5z" />
    <glyph glyph-name="parenrightsuperior" unicode="&#x207e;" horiz-adv-x="235" 
d="M79.5 381.5q18.5 73.5 18.5 156.5t-18.5 156.5t-58.5 154.5h81q52 -74 76.5 -148.5t24.5 -162.5t-24.5 -163t-76.5 -148h-81q40 81 58.5 154.5z" />
    <glyph glyph-name="zero.inferior" unicode="&#x2080;" horiz-adv-x="451" 
d="M368 247q50 -64 50 -183t-50 -183t-142 -64q-93 0 -142.5 64t-49.5 183t49.5 183t142.5 64q92 0 142 -64zM160 187q-23 -43 -23 -123q0 -81 23 -124t66 -43t65.5 43.5t22.5 123.5t-22.5 123t-65.5 43t-66 -43z" />
    <glyph glyph-name="one.inferior" unicode="&#x2081;" horiz-adv-x="300" 
d="M130 -172v317h-120v74q64 0 95 19t38 62h89v-472h-102z" />
    <glyph glyph-name="two.inferior" unicode="&#x2082;" horiz-adv-x="439" 
d="M346 272.5q47 -38.5 47 -99.5q0 -57 -33 -92.5t-98 -69.5q-65 -33 -86.5 -54t-22.5 -46h252v-83h-367q-2 6 -2 20q0 50 12 85.5t43 66t87 61.5q60 32 85 54.5t25 56.5q0 26 -18 42t-49 16q-73 0 -76 -77h-102q1 75 48.5 116.5t129.5 41.5q78 0 125 -38.5z" />
    <glyph glyph-name="three.inferior" unicode="&#x2083;" horiz-adv-x="433" 
d="M344 275q47 -36 47 -97q0 -39 -20 -64t-64 -42v-2q47 -16 69 -43t22 -71q0 -63 -49.5 -101t-131.5 -38q-90 0 -138.5 42.5t-48.5 119.5h103q0 -81 84 -81q35 0 56.5 17t21.5 45q0 67 -98 67h-15v78h17q42 0 66.5 17t24.5 47q0 28 -20.5 44.5t-55.5 16.5q-77 0 -77 -78
h-101q0 75 47.5 117t132.5 42q81 0 128 -36z" />
    <glyph glyph-name="four.inferior" unicode="&#x2084;" horiz-adv-x="427" 
d="M337 -66v-106h-99v106h-228v83l195 283h132v-288h78v-78h-78zM241 12v56q0 52 4 154h-2q-24 -40 -78 -118l-15 -22l-49 -70h140z" />
    <glyph glyph-name="five.inferior" unicode="&#x2085;" horiz-adv-x="433" 
d="M151 217l-11 -110h2q17 17 42 26t53 9q72 0 116.5 -43t44.5 -113q0 -77 -50.5 -123t-133.5 -46q-82 0 -130 38.5t-48 104.5h102q1 -30 21.5 -46.5t53.5 -16.5q38 0 59.5 22.5t21.5 62.5q0 39 -21.5 61t-57.5 22q-29 0 -48 -14t-26 -39l-100 6l27 282h304v-83h-221z" />
    <glyph glyph-name="six.inferior" unicode="&#x2086;" horiz-adv-x="432" 
d="M347 274q44 -37 49 -104h-103q-9 62 -67 62q-90 0 -96 -146h2q41 49 113 49q70 0 113.5 -42t43.5 -110q0 -74 -50.5 -120t-130.5 -46q-90 0 -138.5 59t-48.5 174q0 125 51.5 193t144.5 68q73 0 117 -37zM165.5 38q-21.5 -23 -21.5 -60t21.5 -59t56.5 -22t56 22.5t21 59.5
t-21 59.5t-56 22.5t-56.5 -23z" />
    <glyph glyph-name="seven.inferior" unicode="&#x2087;" horiz-adv-x="383" 
d="M274 40q-42 -101 -64 -212h-110q26 118 72 219t98 168h-260v85h361v-83q-55 -76 -97 -177z" />
    <glyph glyph-name="eight.inferior" unicode="&#x2088;" horiz-adv-x="434" 
d="M342.5 274.5q48.5 -36.5 48.5 -95.5q0 -37 -23 -64.5t-63 -40.5v-2q45 -12 71 -42.5t26 -73.5q0 -64 -50.5 -101.5t-134.5 -37.5t-134.5 37.5t-50.5 101.5q0 43 25.5 73.5t70.5 42.5v2q-40 13 -63 40.5t-23 64.5q0 59 48.5 95.5t126.5 36.5q77 0 125.5 -36.5z
M160.5 215.5q-21.5 -16.5 -21.5 -43.5q0 -29 21 -46.5t57 -17.5q35 0 56 17.5t21 46.5q0 27 -21 43.5t-56 16.5t-56.5 -16.5zM156.5 13.5q-22.5 -18.5 -22.5 -49.5t22.5 -49t60.5 -18t60 18t22 49t-22.5 49.5t-59.5 18.5q-38 0 -60.5 -18.5z" />
    <glyph glyph-name="nine.inferior" unicode="&#x2089;" horiz-adv-x="432" 
d="M86 -146q-44 37 -49 104h102q5 -30 22 -46t45 -16q92 0 96 146h-2q-40 -49 -113 -49q-70 0 -113.5 42t-43.5 110q0 74 50.5 120t130.5 46q90 0 139 -59t49 -174q0 -125 -52 -193t-145 -68q-72 0 -116 37zM266.5 90q21.5 23 21.5 60t-21.5 59t-56.5 22t-56 -22.5
t-21 -59.5t21 -59.5t56 -22.5t56.5 23z" />
    <glyph glyph-name="uni208A" unicode="&#x208a;" horiz-adv-x="411" 
d="M363 88v-77h-118v-115h-79v115h-119v77h119v116h79v-116h118z" />
    <glyph glyph-name="uni208B" unicode="&#x208b;" horiz-adv-x="411" 
d="M47 11v77h316v-77h-316z" />
    <glyph glyph-name="uni208C" unicode="&#x208c;" horiz-adv-x="411" 
d="M47 79v75h316v-75h-316zM47 -55v75h316v-75h-316z" />
    <glyph glyph-name="uni208D" unicode="&#x208d;" horiz-adv-x="235" 
d="M155.5 192.5q-18.5 -73.5 -18.5 -156.5t18.5 -156.5t58.5 -154.5h-81q-52 74 -76.5 148.5t-24.5 162.5t24.5 163t76.5 148h81q-40 -81 -58.5 -154.5z" />
    <glyph glyph-name="uni208E" unicode="&#x208e;" horiz-adv-x="235" 
d="M79.5 -120.5q18.5 73.5 18.5 156.5t-18.5 156.5t-58.5 154.5h81q52 -74 76.5 -148.5t24.5 -162.5t-24.5 -163t-76.5 -148h-81q40 81 58.5 154.5z" />
    <glyph glyph-name="uni2099" unicode="&#x2099;" horiz-adv-x="434" 
d="M351.5 155.5q34.5 -37.5 34.5 -109.5v-218h-97v208q0 79 -65 79q-34 0 -54.5 -24.5t-20.5 -71.5v-191h-98v356h93v-44h1q18 24 45.5 38.5t62.5 14.5q64 0 98.5 -37.5z" />
    <glyph glyph-name="franc" unicode="&#x20a3;" horiz-adv-x="581" 
d="M225 413h303v-104h-303v-105h168v-89h-168v-115h-120v115h-81v89h81v470h447v-104h-327v-157z" />
    <glyph glyph-name="lira" unicode="&#x20a4;" horiz-adv-x="581" 
d="M542 96v-96h-518v97q47 0 70 31t23 102v8h-93v64h93v48h-93v65h93v45q0 114 56.5 171.5t164.5 57.5q98 0 154 -56.5t56 -154.5h-115q0 54 -25 82.5t-70 28.5q-50 0 -76 -32.5t-26 -96.5v-45h124v-65h-124v-48h124v-64h-124v-7q0 -54 -13 -83.5t-44 -49.5v-2h363z" />
    <glyph glyph-name="peseta" unicode="&#x20a7;" horiz-adv-x="867" 
d="M841 92v-89q-31 -9 -65 -9q-81 0 -117 36.5t-36 119.5v271h-58q-9 -90 -74 -141t-179 -51h-104v-229h-120v674h224q105 0 168.5 -44t80.5 -122h62v127h114v-127h99v-87h-99v-254q0 -43 15.5 -61.5t52.5 -18.5q21 0 36 5zM408 361.5q36 31.5 36 90.5q0 58 -36 89.5
t-110 31.5h-90v-243h90q74 0 110 31.5z" />
    <glyph glyph-name="Euro" unicode="&#x20ac;" horiz-adv-x="581" 
d="M492 43.5q-65 -58.5 -169 -58.5q-110 0 -178 66.5t-86 193.5h-58l12 64h41l-1 28v20h-52l12 65h45q16 130 85 198.5t182 68.5q106 0 168.5 -57.5t69.5 -161.5h-114q-8 57 -39.5 88t-84.5 31q-61 0 -99 -42.5t-50 -124.5h237l-12 -65h-231v-20q0 -19 1 -28h221l-12 -64
h-203q13 -79 50 -119.5t96 -40.5q52 0 85.5 32t41.5 90h117q-10 -105 -75 -163.5z" />
    <glyph glyph-name="uni20B9" unicode="&#x20b9;" horiz-adv-x="581" 
d="M441 521h113l-21 -75h-91q-11 -53 -53 -88t-110 -48v-2q35 -14 61.5 -43t51.5 -81l90 -184h-136l-81 173q-27 59 -61.5 84t-84.5 25h-16v80h45q64 0 104.5 22t55.5 62h-280l21 75h262q-21 78 -154 78h-129l21 75h505l-21 -75h-156v-2q51 -22 64 -76z" />
    <glyph glyph-name="uni20BA" unicode="&#x20ba;" horiz-adv-x="581" 
d="M471.5 77q-88.5 -83 -251.5 -83q-60 0 -114 6v259l-90 -49v80l90 49v77l-90 -49v80l90 49v178h120v-121l166 90v-80l-166 -90v-76l166 90v-80l-166 -90v-218q102 0 156 56t54 165h124q0 -160 -88.5 -243z" />
    <glyph glyph-name="uni20BC" unicode="&#x20bc;" horiz-adv-x="686" 
d="M102.5 528.5q59.5 73.5 185.5 81.5v102h110v-102q126 -8 185.5 -81.5t59.5 -224.5v-304h-110v301q0 104 -30.5 151t-104.5 52v-504h-110v504q-73 -5 -104 -52t-31 -151v-301h-110v304q0 151 59.5 224.5z" />
    <glyph glyph-name="uni20BD" unicode="&#x20bd;" horiz-adv-x="581" 
d="M497 619q60 -55 60 -150q0 -96 -60 -151t-174 -55h-114v-61h189v-89h-189v-113h-118v113h-81v89h81v61h-81v93h81v318h232q114 0 174 -55zM209 356h100q63 0 94.5 29.5t31.5 83.5q0 53 -31.5 82.5t-94.5 29.5h-100v-225z" />
    <glyph glyph-name="uni2105" unicode="&#x2105;" horiz-adv-x="918" 
d="M330 648.5q47 -40.5 53 -102.5h-102q-2 28 -21 47.5t-49 19.5q-38 0 -59.5 -29.5t-21.5 -81.5q0 -53 21.5 -83t59.5 -30q29 0 48.5 20.5t21.5 52.5h102q-5 -67 -52 -108.5t-121 -41.5q-84 0 -133.5 51t-49.5 139q0 86 49.5 136.5t133.5 50.5q73 0 120 -40.5zM221 0
l377 674h82l-376 -674h-83zM841.5 311q50.5 -51 50.5 -137q0 -87 -50 -138t-136 -51t-136.5 51t-50.5 138q0 86 50.5 137t136.5 51q85 0 135.5 -51zM644.5 256q-22.5 -30 -22.5 -82t22.5 -82.5t61.5 -30.5t61 30t22 83t-22 82.5t-61 29.5t-61.5 -30z" />
    <glyph glyph-name="uni2113" unicode="&#x2113;" horiz-adv-x="445" 
d="M225 94.5q17 -20.5 54 -20.5q26 0 48 8v-81q-35 -11 -76 -11q-80 0 -118 40.5t-38 126.5v32q-22 1 -53 7v66q31 -6 53 -7v219q0 82 15.5 129t46.5 66.5t81 19.5q65 0 105 -46.5t40 -148.5q0 -121 -46.5 -193.5t-128.5 -97.5v-44q0 -44 17 -64.5zM219 588.5
q-11 -24.5 -11 -91.5v-221q104 50 104 218q0 119 -56 119q-26 0 -37 -24.5z" />
    <glyph glyph-name="uni2116" unicode="&#x2116;" horiz-adv-x="1162" 
d="M505 0l-154 298q-81 158 -151 306h-2q6 -162 6 -324v-280h-116v712h173l153 -298q81 -158 151 -306h2q-5 180 -5 324v280h115v-712h-172zM1085.5 567q50.5 -51 50.5 -137q0 -88 -50.5 -138.5t-136.5 -50.5q-85 0 -135.5 51t-50.5 138q0 86 50.5 137t135.5 51
q86 0 136.5 -51zM888.5 512q-22.5 -30 -22.5 -82t22.5 -82.5t60.5 -30.5q39 0 61.5 30.5t22.5 82.5t-22.5 82t-61.5 30q-38 0 -60.5 -30zM780 98v88h336v-88h-336z" />
    <glyph glyph-name="uni2117" unicode="&#x2117;" horiz-adv-x="806" 
d="M591.5 679q81.5 -46 126 -130t44.5 -193t-44.5 -193t-126 -130t-188.5 -46q-106 0 -187.5 46t-126.5 130t-45 193t45 193t126.5 130t187.5 46q107 0 188.5 -46zM241 634.5q-70 -39.5 -108.5 -111.5t-38.5 -167t38.5 -167t108.5 -111.5t162 -39.5t162.5 39.5t109 111.5
t38.5 167t-38.5 167t-109 111.5t-162.5 39.5t-162 -39.5zM564.5 542q44.5 -39 44.5 -109q0 -69 -44.5 -108.5t-129.5 -39.5h-89v-164h-83v460h172q85 0 129.5 -39zM346 357h80q96 0 96 76q0 37 -24 57t-72 20h-80v-153z" />
    <glyph glyph-name="trademark" unicode="&#x2122;" horiz-adv-x="815" 
d="M199 641v-285h-83v285h-111v71h305v-71h-111zM694 356v166q0 44 2 128h-2l-35 -126l-49 -168h-95l-49 168q-24 84 -35 126h-2q2 -84 2 -128v-166h-77v356h129l43 -149q20 -67 35 -132h2q15 65 35 132l44 149h129v-356h-77z" />
    <glyph glyph-name="Omega" unicode="&#x2126;" horiz-adv-x="731" 
d="M599 647q87 -80 87 -235q0 -91 -39 -164t-110 -144v-2h160v-102h-275v107q68 69 104 136t36 153q0 110 -53.5 167t-142.5 57t-142.5 -57t-53.5 -167q0 -86 36 -153t103 -136v-107h-275v102h160v2q-71 72 -110 144.5t-39 163.5q0 104 40.5 174.5t113 105.5t167.5 35
q146 0 233 -80z" />
    <glyph glyph-name="estimated" unicode="&#x212e;" horiz-adv-x="862" 
d="M635.5 640q86.5 -49 132.5 -132t46 -181h-611q-6 0 -10 -3.5t-4 -8.5v-167q0 -16 3.5 -25.5t12.5 -18.5q93 -91 226 -91q72 0 135.5 30.5t103.5 79.5h69q-40 -56 -118 -95.5t-190 -39.5q-114 0 -201 45t-135 124.5t-48 179.5q0 99 46.5 179.5t133.5 126.5t204 46
q118 0 204.5 -49zM205 569q-9 -8 -12.5 -17t-3.5 -24v-166q0 -6 4 -9.5t10 -3.5h455q13 0 13 13v166q0 15 -3 24t-12 17q-95 94 -225 94q-132 0 -226 -94z" />
    <glyph glyph-name="oneeighth" unicode="&#x215b;" horiz-adv-x="787" 
d="M108 270v265h-99v69q49 0 75.5 17t34.5 53h85v-404h-96zM102 0l377 674h82l-376 -674h-83zM708 382q43 -32 43 -83q0 -31 -19 -54t-54 -34v-2q39 -10 60.5 -35.5t21.5 -61.5q0 -56 -44.5 -89t-119.5 -33t-119 33t-44 89q0 36 22 61.5t61 35.5v2q-35 11 -54.5 34t-19.5 54
q0 51 43 83t111 32q69 0 112 -32zM550 328.5q-17 -13.5 -17 -35.5q0 -23 17 -37t46 -14q30 0 47.5 14t17.5 37t-17.5 36t-47.5 13q-29 0 -46 -13.5zM547 157q-19 -15 -19 -40t18.5 -39t49.5 -14q32 0 50.5 14t18.5 39t-19 40t-50 15q-30 0 -49 -15z" />
    <glyph glyph-name="threeeighths" unicode="&#x215c;" horiz-adv-x="911" 
d="M304 652.5q42 -31.5 42 -83.5q0 -33 -17 -54.5t-55 -35.5v-1q41 -13 59 -36.5t18 -62.5q0 -55 -43 -87t-116 -32q-79 0 -122.5 36.5t-43.5 103.5h95q0 -65 71 -65q29 0 47 13.5t18 35.5q0 26 -20.5 40t-60.5 14h-14v71h13q35 0 56 14.5t21 39.5q0 21 -16.5 34t-45.5 13
q-66 0 -66 -62h-93q0 64 42.5 100t116.5 36q72 0 114 -31.5zM226 0l377 674h82l-376 -674h-83zM832 382q43 -32 43 -83q0 -31 -19 -54t-54 -34v-2q39 -10 60.5 -35.5t21.5 -61.5q0 -56 -44.5 -89t-119.5 -33t-119 33t-44 89q0 36 22 61.5t61 35.5v2q-35 11 -54.5 34
t-19.5 54q0 51 43 83t111 32q69 0 112 -32zM674 328.5q-17 -13.5 -17 -35.5q0 -23 17 -37t46 -14q30 0 47.5 14t17.5 37t-17.5 36t-47.5 13q-29 0 -46 -13.5zM671 157q-19 -15 -19 -40t18.5 -39t49.5 -14q32 0 50.5 14t18.5 39t-19 40t-50 15q-30 0 -49 -15z" />
    <glyph glyph-name="fiveeighths" unicode="&#x215d;" horiz-adv-x="911" 
d="M137 597l-9 -85h2q31 28 82 28q63 0 101.5 -37.5t38.5 -99.5q0 -65 -44 -104t-118 -39q-72 0 -115.5 33.5t-43.5 90.5h96q1 -24 18 -37.5t44 -13.5q32 0 50 19t18 51q0 31 -17.5 48.5t-47.5 17.5q-26 0 -42 -11.5t-21 -31.5l-93 5l23 243h270v-77h-192zM226 0l377 674h82
l-376 -674h-83zM831 382q43 -32 43 -83q0 -31 -19 -54t-54 -34v-2q39 -10 60.5 -35.5t21.5 -61.5q0 -56 -44.5 -89t-119.5 -33t-119 33t-44 89q0 36 22 61.5t61 35.5v2q-35 11 -54.5 34t-19.5 54q0 51 43 83t111 32q69 0 112 -32zM673 328.5q-17 -13.5 -17 -35.5
q0 -23 17 -37t46 -14q30 0 47.5 14t17.5 37t-17.5 36t-47.5 13q-29 0 -46 -13.5zM670 157q-19 -15 -19 -40t18.5 -39t49.5 -14q32 0 50.5 14t18.5 39t-19 40t-50 15q-30 0 -49 -15z" />
    <glyph glyph-name="seveneighths" unicode="&#x215e;" horiz-adv-x="815" 
d="M243 449q-36 -86 -55 -179h-101q23 99 62 184.5t83 141.5h-223v78h317v-76q-47 -63 -83 -149zM130 0l377 674h82l-376 -674h-83zM736 382q43 -32 43 -83q0 -31 -19 -54t-54 -34v-2q39 -10 60.5 -35.5t21.5 -61.5q0 -56 -44.5 -89t-119.5 -33t-119 33t-44 89q0 36 22 61.5
t61 35.5v2q-35 11 -54.5 34t-19.5 54q0 51 43 83t111 32q69 0 112 -32zM578 328.5q-17 -13.5 -17 -35.5q0 -23 17 -37t46 -14q30 0 47.5 14t17.5 37t-17.5 36t-47.5 13q-29 0 -46 -13.5zM575 157q-19 -15 -19 -40t18.5 -39t49.5 -14q32 0 50.5 14t18.5 39t-19 40t-50 15
q-30 0 -49 -15z" />
    <glyph glyph-name="Sevenroman" unicode="&#x2166;" horiz-adv-x="1204" 
d="M240 0l-234 712h123l97 -297q43 -128 89 -298h2q36 137 88 298l97 297h123l-233 -712h-152zM699 0v712h120v-712h-120zM995 0v712h120v-712h-120z" />
    <glyph glyph-name="partialdiff" unicode="&#x2202;" horiz-adv-x="613" 
d="M478 638q68 -89 68 -260q0 -134 -35 -222t-95 -129.5t-136 -41.5q-114 0 -176 65t-62 173q0 73 29 131t83 91.5t127 33.5q52 0 89 -19t59 -50h2q1 9 1 27q0 57 -19 100.5t-52.5 67.5t-75.5 24q-87 0 -100 -88h-120q9 86 63 136t152 50q130 0 198 -89zM197 342
q-36 -47 -36 -120q0 -66 31.5 -102.5t91.5 -36.5q62 0 97.5 45t35.5 117q0 66 -33 105t-91 39q-60 0 -96 -47z" />
    <glyph glyph-name="Delta" unicode="&#x2206;" horiz-adv-x="687" 
d="M4 0l260 712h162l257 -712h-679zM435 353q-49 146 -91 283h-2q-32 -105 -92 -283l-85 -249h355z" />
    <glyph glyph-name="product" unicode="&#x220f;" horiz-adv-x="670" 
d="M463 -120v728h-255v-728h-120v832h494v-832h-119z" />
    <glyph glyph-name="summation" unicode="&#x2211;" horiz-adv-x="500" 
d="M167 607l187 -313l-187 -309h298v-105h-430v105l189 309l-189 313v105h430v-105h-298z" />
    <glyph glyph-name="minus" unicode="&#x2212;" horiz-adv-x="566" 
d="M67 271v91h432v-91h-432z" />
    <glyph glyph-name="uni2215" unicode="&#x2215;" horiz-adv-x="473" 
d="M30 -89l298 834h94l-298 -834h-94z" />
    <glyph glyph-name="uni2219" unicode="&#x2219;" horiz-adv-x="353" 
d="M110 235v141h132v-141h-132z" />
    <glyph glyph-name="radical" unicode="&#x221a;" horiz-adv-x="608" 
d="M201 -120l-94 397h-82v92h159l93 -389h2l209 732h100l-238 -832h-149z" />
    <glyph glyph-name="infinity" unicode="&#x221e;" horiz-adv-x="651" 
d="M595 425q41 -44 41 -117t-41 -117t-107 -44q-53 0 -90.5 24.5t-72.5 68.5q-34 -44 -71 -68.5t-90 -24.5q-67 0 -108 44t-41 117t41 117t108 44q53 0 90 -24.5t71 -68.5q35 44 72.5 68.5t90.5 24.5q66 0 107 -44zM227 253q24 19 50 55q-26 36 -50 55t-54 19q-33 0 -51 -20
t-18 -54t18 -54t51 -20q30 0 54 19zM529 254q18 20 18 54t-18 54t-51 20q-30 0 -54 -19t-50 -55q26 -36 50 -55t54 -19q33 0 51 20z" />
    <glyph glyph-name="integral" unicode="&#x222b;" horiz-adv-x="333" 
d="M324 712v-84q-12 4 -28 4q-37 0 -55 -19.5t-18 -63.5v-584q0 -78 -39 -117.5t-115 -39.5q-25 0 -60 7v84q12 -4 27 -4q38 0 56 19.5t18 63.5v584q0 78 39 117.5t115 39.5q25 0 60 -7z" />
    <glyph glyph-name="approxequal" unicode="&#x2248;" horiz-adv-x="566" 
d="M244 490q23 -12 55 -35q25 -19 40.5 -27.5t32.5 -8.5q27 0 41.5 19t14.5 51h75q0 -70 -35 -113.5t-93 -43.5q-30 0 -54 12.5t-53 35.5q-24 18 -40.5 27t-33.5 9q-27 0 -41.5 -19t-14.5 -52h-75q0 71 35 114t93 43q30 0 53 -12zM245 289.5q24 -12.5 54 -35.5
q25 -19 40.5 -27.5t32.5 -8.5q27 0 41.5 19t14.5 52h75q0 -71 -35 -114t-93 -43q-30 0 -53.5 12t-53.5 35q-24 18 -40.5 27t-33.5 9q-27 0 -41.5 -19t-14.5 -51h-75q0 70 35 113.5t93 43.5q30 0 54 -12.5z" />
    <glyph glyph-name="notequal" unicode="&#x2260;" horiz-adv-x="566" 
d="M300 273h199v-91h-253l-73 -122h-87l73 122h-92v91h146l53 87h-199v91h253l73 122h87l-73 -122h92v-91h-146z" />
    <glyph glyph-name="lessequal" unicode="&#x2264;" horiz-adv-x="566" 
d="M173 337v-2l326 -120v-94l-432 157v115l432 157v-94zM499 0h-432v89h432v-89z" />
    <glyph glyph-name="greaterequal" unicode="&#x2265;" horiz-adv-x="566" 
d="M499 278l-432 -157v94l326 120v2l-326 119v94l432 -157v-115zM67 0v89h432v-89h-432z" />
    <glyph glyph-name="lozenge" unicode="&#x25ca;" horiz-adv-x="621" 
d="M386 0h-151l-195 356l195 356h151l195 -356zM310 82l153 274l-153 274l-152 -274z" />
    <glyph glyph-name="uniF8FF" unicode="&#xf8ff;" horiz-adv-x="633" 
d="M578.5 741q35.5 -36 35.5 -97v-576q0 -61 -35.5 -97t-96.5 -36h-331q-61 0 -97 36t-36 97v576q0 62 36 97.5t97 35.5h331q61 0 96.5 -36zM95.5 700q-20.5 -21 -20.5 -56v-576q0 -35 20.5 -56t55.5 -21h331q35 0 55.5 21t20.5 56v576q0 35 -20.5 56t-55.5 21h-331
q-35 0 -55.5 -21zM444 606.5q47 -40.5 47 -108.5q0 -42 -15 -71t-61 -70q-28 -26 -41.5 -44.5t-19 -41t-5.5 -60.5h-87q-1 10 -1 29q0 57 14 88t58 74q33 32 42.5 50t9.5 44q0 30 -18 47t-51 17q-76 0 -79 -89h-104q2 86 49.5 131t133.5 45q81 0 128 -40.5zM250 65v102h111
v-102h-111z" />
    <glyph glyph-name="ff" unicode="&#xfb00;" horiz-adv-x="615" 
d="M521 612.5q-18 -19.5 -18 -63.5v-41h98v-87h-98v-421h-113v421h-179v-421h-113v421h-86v87h86v54q0 78 39 117.5t115 39.5q25 0 60 -7v-84q-14 4 -28 4q-37 0 -55 -19.5t-18 -63.5v-41h179v54q0 78 39 117.5t115 39.5q26 0 59 -7v-84q-12 4 -27 4q-37 0 -55 -19.5z" />
    <glyph glyph-name="fi" unicode="&#xfb01;" horiz-adv-x="583" 
d="M137 679.5q39 39.5 115 39.5q25 0 60 -7v-84q-14 4 -28 4q-37 0 -55 -19.5t-18 -63.5v-41h98v-87h-98v-421h-113v421h-86v87h86v54q0 78 39 117.5zM510 603h-114v109h114v-109zM510 508v-508h-114v508h114z" />
    <glyph glyph-name="fl" unicode="&#xfb02;" horiz-adv-x="583" 
d="M229 612.5q-18 -19.5 -18 -63.5v-41h98v-87h-98v-421h-113v421h-86v87h86v54q0 78 39 117.5t115 39.5q25 0 60 -7v-84q-14 4 -28 4q-37 0 -55 -19.5zM396 0v712h114v-712h-114z" />
    <glyph glyph-name="ffi" unicode="&#xfb03;" horiz-adv-x="875" 
d="M429 679.5q39 39.5 115 39.5q26 0 59 -7v-84q-12 4 -27 4q-37 0 -55 -19.5t-18 -63.5v-41h98v-87h-98v-421h-113v421h-179v-421h-113v421h-86v87h86v54q0 78 39 117.5t115 39.5q25 0 60 -7v-84q-14 4 -28 4q-37 0 -55 -19.5t-18 -63.5v-41h179v54q0 78 39 117.5zM802 603
h-114v109h114v-109zM802 508v-508h-114v508h114z" />
    <glyph glyph-name="ffl" unicode="&#xfb04;" horiz-adv-x="875" 
d="M429 679.5q39 39.5 115 39.5q26 0 59 -7v-84q-12 4 -27 4q-37 0 -55 -19.5t-18 -63.5v-41h98v-87h-98v-421h-113v421h-179v-421h-113v421h-86v87h86v54q0 78 39 117.5t115 39.5q25 0 60 -7v-84q-14 4 -28 4q-37 0 -55 -19.5t-18 -63.5v-41h179v54q0 78 39 117.5zM802 0
h-114v712h114v-712z" />
    <glyph glyph-name="uniFEFF" unicode="&#xfeff;" horiz-adv-x="0" 
 />
    <glyph glyph-name="J.acute.loclNLD" horiz-adv-x="374" 
d="M237.5 48.5q-53.5 -54.5 -165.5 -54.5q-31 0 -57 7v103q21 -4 45 -4q58 0 84.5 30t26.5 107v475h120v-496q0 -113 -53.5 -167.5zM155 772l81 144h144l-132 -144h-93z" />
    <glyph glyph-name="Ccedilla.ss01" horiz-adv-x="695" 
d="M508.5 694q64.5 -33 100 -91.5t39.5 -134.5h-121q-8 71 -52.5 111.5t-115.5 40.5q-91 0 -143 -70.5t-52 -193.5t51.5 -193.5t140.5 -70.5q71 0 116.5 41t55.5 114h123q-11 -123 -89 -192.5t-206 -69.5q-97 0 -168.5 45t-109.5 128.5t-38 197.5t38.5 197.5t110.5 128.5
t170 45q85 0 149.5 -33zM185 -214l135 165h100l-99 -165h-136z" />
    <glyph glyph-name="Scedilla.ss01" horiz-adv-x="620" 
d="M490.5 667.5q66.5 -59.5 66.5 -174.5h-121q0 67 -37 101.5t-106 34.5q-58 0 -91.5 -25.5t-33.5 -69.5q0 -32 16.5 -51.5t50 -33t96.5 -28.5q82 -20 132.5 -41.5t82 -63.5t31.5 -113q0 -65 -33 -114.5t-93.5 -76.5t-139.5 -27q-131 0 -204 64.5t-73 185.5h123
q0 -75 40 -113t115 -38q66 0 103.5 29t37.5 79q0 35 -17 55t-48.5 32t-95.5 28q-84 21 -134 42t-81.5 62.5t-31.5 111.5q0 60 31 106.5t87.5 72t131.5 25.5q129 0 195.5 -59.5zM134 -214l135 165h100l-99 -165h-136z" />
    <glyph glyph-name="uni0162.ss01" horiz-adv-x="607" 
d="M363 608v-608h-119v608h-234v104h587v-104h-234zM132 -214l135 165h100l-99 -165h-136z" />
    <glyph glyph-name="i.loclTRK" horiz-adv-x="260" 
d="M73 0v508h114v-508h-114zM73 603v109h114v-109h-114z" />
    <glyph glyph-name="j.acute.loclNLD" horiz-adv-x="264" 
d="M148.5 -149q-42.5 -41 -117.5 -41q-26 0 -58 7v85q13 -3 28 -3q39 0 57.5 21.5t18.5 74.5v513h114v-528q0 -88 -42.5 -129zM58 568l81 144h144l-132 -144h-93z" />
    <glyph glyph-name="ccedilla.ss01" horiz-adv-x="548" 
d="M399 497.5q50 -25.5 80 -70.5t35 -103h-119q-4 50 -34 79.5t-76 29.5q-60 0 -93.5 -47.5t-33.5 -131.5t33.5 -131.5t93.5 -47.5q46 0 75.5 33t33.5 85h120q-8 -93 -70 -150.5t-159 -57.5q-74 0 -130 33t-86.5 93.5t-30.5 142.5t30.5 142.5t86.5 93.5t130 33
q64 0 114 -25.5zM114 -214l135 165h100l-99 -165h-136z" />
    <glyph glyph-name="scedilla.ss01" horiz-adv-x="509" 
d="M399.5 478.5q53.5 -44.5 54.5 -128.5h-110q0 45 -25 67.5t-72 22.5q-40 0 -62 -16t-22 -44q0 -21 11.5 -33.5t33.5 -20t70 -19.5q66 -17 102.5 -31.5t63 -47t26.5 -88.5q0 -70 -58 -112.5t-155 -42.5q-104 0 -161.5 46.5t-58.5 135.5h116q0 -47 27.5 -72t78.5 -25
q43 0 67.5 17t24.5 46q0 25 -13 39.5t-37.5 23t-77.5 21.5q-59 15 -92.5 28t-57.5 43t-24 83q0 45 25 79.5t70 53.5t104 19q98 0 151.5 -44.5zM84 -214l135 165h100l-99 -165h-136z" />
    <glyph glyph-name="uni0163.ss01" horiz-adv-x="339" 
d="M312 92v-89q-31 -9 -64 -9q-81 0 -117.5 36.5t-36.5 119.5v271h-85v87h85v127h114v-127h99v-87h-99v-254q0 -43 16 -61.5t53 -18.5q22 0 35 5zM17 -214l135 165h100l-99 -165h-136z" />
    <glyph glyph-name="a.sups" horiz-adv-x="402" 
d="M314 660q40 -36 40 -106v-126q0 -58 10 -98h-88q-6 23 -6 48h-1q-41 -56 -122 -56q-58 0 -92 30t-34 78q0 47 33 74t112 39q64 9 93 10v14q0 65 -63 65q-30 0 -46.5 -15t-17.5 -42h-96q3 53 43.5 87t116.5 34q78 0 118 -36zM183 487q-35 -6 -49.5 -18t-14.5 -33
q0 -22 15 -35t42 -13q39 0 60 22q14 13 18.5 28t4.5 42v16q-33 -2 -76 -9z" />
    <glyph glyph-name="b.sups" horiz-adv-x="435" 
d="M151 644q16 24 43.5 38t59.5 14q70 0 112 -51t42 -137q0 -85 -42.5 -136t-112.5 -51q-33 0 -61 14.5t-44 40.5h-2v-46h-95v498h98v-184h2zM166 589.5q-22 -30.5 -22 -81.5t22 -81.5t58 -30.5q37 0 59.5 31t22.5 81q0 51 -22.5 81.5t-59.5 30.5q-36 0 -58 -30.5z" />
    <glyph glyph-name="c.sups" horiz-adv-x="407" 
d="M330 655.5q47 -40.5 53 -102.5h-102q-2 28 -21 47.5t-49 19.5q-38 0 -59.5 -29.5t-21.5 -81.5q0 -53 21.5 -83t59.5 -30q29 0 48.5 20.5t21.5 52.5h102q-5 -67 -52 -108.5t-121 -41.5q-84 0 -133.5 51t-49.5 139q0 86 49.5 136.5t133.5 50.5q73 0 120 -40.5z" />
    <glyph glyph-name="d.sups" horiz-adv-x="435" 
d="M384 330h-95v46h-2q-15 -26 -43 -40.5t-62 -14.5q-70 0 -112.5 51t-42.5 136q0 86 42 137t112 51q32 0 59.5 -14t43.5 -38h2v184h98v-498zM151.5 589.5q-22.5 -30.5 -22.5 -81.5q0 -50 22.5 -81t59.5 -31q36 0 58 30.5t22 81.5t-22 81.5t-58 30.5q-37 0 -59.5 -30.5z" />
    <glyph glyph-name="e.sups" horiz-adv-x="415" 
d="M259.5 402q19.5 14 24.5 36h100q-11 -51 -57.5 -85t-116.5 -34q-86 0 -134.5 53t-48.5 139q0 81 48.5 133t132.5 52q64 0 108 -31t61 -86q11 -34 11 -92h-265q2 -51 25.5 -75t60.5 -24q31 0 50.5 14zM152 608.5q-22 -20.5 -27 -62.5h166q-4 41 -26.5 62t-56.5 21
t-56 -20.5z" />
    <glyph glyph-name="egrave.sups" horiz-adv-x="415" 
d="M74 828h127l70 -101h-89zM259.5 402q19.5 14 24.5 36h100q-11 -51 -57.5 -85t-116.5 -34q-86 0 -134.5 53t-48.5 139q0 81 48.5 133t132.5 52q64 0 108 -31t61 -86q11 -34 11 -92h-265q2 -51 25.5 -75t60.5 -24q31 0 50.5 14zM152 608.5q-22 -20.5 -27 -62.5h166
q-4 41 -26.5 62t-56.5 21t-56 -20.5z" />
    <glyph glyph-name="f.sups" horiz-adv-x="246" 
d="M178.5 748.5q-12.5 -12.5 -12.5 -41.5v-21h69v-73h-69v-283h-98v283h-60v73h60v32q0 58 31 87t90 29q23 0 49 -6v-69q-10 2 -20 2q-27 0 -39.5 -12.5z" />
    <glyph glyph-name="g.sups" horiz-adv-x="430" 
d="M285 639h2v47h92v-333q0 -80 -45.5 -119.5t-130.5 -39.5q-73 0 -115 30t-45 84h95q1 -23 18.5 -35.5t47.5 -12.5q40 0 60 21.5t20 71.5v39h-2q-18 -26 -45 -39.5t-59 -13.5q-69 0 -110 48.5t-41 129.5q0 82 41.5 130.5t111.5 48.5q66 0 105 -57zM149 592q-21 -28 -21 -75
t21 -74.5t57 -27.5q37 0 59 27.5t22 74.5t-22 75t-59 28q-36 0 -57 -28z" />
    <glyph glyph-name="h.sups" horiz-adv-x="434" 
d="M151 648q18 23 44.5 35t57.5 12q64 0 98.5 -37.5t34.5 -109.5v-218h-97v208q0 79 -65 79q-34 0 -54.5 -24t-20.5 -72v-191h-98v498h98v-180h2z" />
    <glyph glyph-name="i.sups" horiz-adv-x="200" 
d="M51 745v83h98v-83h-98zM51 330v356h98v-356h-98z" />
    <glyph glyph-name="j.sups" horiz-adv-x="204" 
d="M55 745v83h98v-83h-98zM120 227q-33 -30 -90 -30q-24 0 -49 5v72q7 -2 21 -2q27 0 40 14t13 49v351h98v-365q0 -64 -33 -94z" />
    <glyph glyph-name="k.sups" horiz-adv-x="392" 
d="M276 330l-125 167h-2v-167h-98v499h98v-285h2l115 142h117l-143 -164l159 -192h-123z" />
    <glyph glyph-name="l.sups" horiz-adv-x="200" 
d="M51 330v498h98v-498h-98z" />
    <glyph glyph-name="m.sups" horiz-adv-x="646" 
d="M565.5 657.5q33.5 -37.5 33.5 -108.5v-219h-98v209q0 78 -58 78q-33 0 -51 -25.5t-18 -73.5v-188h-98v215q0 35 -15 53.5t-43 18.5q-33 0 -51 -26t-18 -74v-187h-98v356h93v-42h2q39 51 101 51q37 0 65 -16.5t44 -47.5q40 64 116 64q60 0 93.5 -37.5z" />
    <glyph glyph-name="n.sups" horiz-adv-x="434" 
d="M351.5 657.5q34.5 -37.5 34.5 -109.5v-218h-97v208q0 79 -65 79q-34 0 -54.5 -24.5t-20.5 -71.5v-191h-98v356h93v-44h1q18 24 45.5 38.5t62.5 14.5q64 0 98.5 -37.5z" />
    <glyph glyph-name="o.sups" horiz-adv-x="427" 
d="M349.5 645q50.5 -51 50.5 -137q0 -87 -50 -138t-136 -51t-136.5 51t-50.5 138q0 86 50.5 137t136.5 51q85 0 135.5 -51zM152.5 590q-22.5 -30 -22.5 -82t22.5 -82.5t61.5 -30.5t61 30t22 83t-22 82.5t-61 29.5t-61.5 -30z" />
    <glyph glyph-name="p.sups" horiz-adv-x="435" 
d="M365.5 645q42.5 -51 42.5 -137q0 -85 -42 -136t-112 -51q-32 0 -59.5 13.5t-43.5 37.5h-2v-171h-98v485h95v-46h2q16 26 44 41t61 15q70 0 112.5 -51zM166 589.5q-22 -30.5 -22 -81.5t22 -81.5t58 -30.5q37 0 59.5 31t22.5 81q0 51 -22.5 81.5t-59.5 30.5
q-36 0 -58 -30.5z" />
    <glyph glyph-name="q.sups" horiz-adv-x="435" 
d="M243.5 681q28.5 -15 43.5 -41h2v46h95v-485h-98v171h-2q-16 -24 -43.5 -37.5t-59.5 -13.5q-70 0 -112 51t-42 136q0 86 42.5 137t112.5 51q33 0 61.5 -15zM151.5 589.5q-22.5 -30.5 -22.5 -81.5q0 -50 22.5 -81t59.5 -31q36 0 58 30.5t22 81.5t-22 81.5t-58 30.5
q-37 0 -59.5 -30.5z" />
    <glyph glyph-name="r.sups" horiz-adv-x="288" 
d="M282 687v-86q-13 4 -33 4q-48 0 -74 -29t-26 -83v-163h-98v356h92v-51h2q36 55 105 55q17 0 32 -3z" />
    <glyph glyph-name="s.sups" horiz-adv-x="381" 
d="M301 665.5q41 -30.5 41 -88.5h-95q0 54 -61 54q-25 0 -39.5 -9t-14.5 -26q0 -19 15.5 -27t64.5 -20q46 -12 74 -23t48 -33.5t20 -61.5q0 -51 -43 -81.5t-117 -30.5q-80 0 -123.5 32.5t-44.5 95.5h99q0 -60 70 -60q28 0 44 10t16 27q0 22 -18 31.5t-73 22.5
q-46 12 -69.5 21t-41.5 30t-18 59q0 48 40.5 78t111.5 30q73 0 114 -30.5z" />
    <glyph glyph-name="t.sups" horiz-adv-x="257" 
d="M238 407v-75q-24 -7 -52 -7q-63 0 -91 26.5t-28 86.5v175h-60v73h60v92h97v-92h70v-73h-70v-155q0 -29 11 -41.5t37 -12.5q17 0 26 3z" />
    <glyph glyph-name="u.sups" horiz-adv-x="433" 
d="M82 358.5q-35 37.5 -35 109.5v218h98v-208q0 -79 65 -79q34 0 54.5 24.5t20.5 71.5v191h97v-356h-92v44h-1q-18 -24 -46 -38.5t-62 -14.5q-64 0 -99 37.5z" />
    <glyph glyph-name="v.sups" horiz-adv-x="368" 
d="M119 330l-124 356h105l42 -135q23 -78 41 -152h2q11 49 41 152l42 135h104l-123 -356h-130z" />
    <glyph glyph-name="w.sups" horiz-adv-x="590" 
d="M363 330l-34 139q-14 53 -33 151h-2q-19 -97 -32 -151l-35 -139h-134l-88 356h96l30 -136l7 -36q15 -75 22 -117h2q16 81 33 151l35 138h131l34 -138q16 -63 34 -151h1q15 84 30 153l29 136h97l-88 -356h-135z" />
    <glyph glyph-name="x.sups" horiz-adv-x="371" 
d="M374 330h-113l-74 124h-2l-75 -124h-113l128 184l-118 172h112l66 -111h2l65 111h112l-118 -172z" />
    <glyph glyph-name="y.sups" horiz-adv-x="369" 
d="M202 249q-21 -28 -50.5 -40t-74.5 -12q-33 0 -49 5v75q14 -5 33 -5q30 0 45.5 13t26.5 46l-137 355h106l85 -259h2l83 259h101l-132 -358q-18 -51 -39 -79z" />
    <glyph glyph-name="z.sups" horiz-adv-x="351" 
d="M140 409v-2h192v-77h-313v79l186 198v2h-179v77h300v-79z" />
    <glyph glyph-name="a.smcp" horiz-adv-x="575" 
d="M173 127l-44 -127h-125l205 548h157l205 -548h-125l-43 127h-230zM356 265q-35 97 -67 203h-2q-32 -106 -67 -203l-13 -39h163z" />
    <glyph glyph-name="aacute.smcp" horiz-adv-x="575" 
d="M173 127l-44 -127h-125l205 548h157l205 -548h-125l-43 127h-230zM356 265q-35 97 -67 203h-2q-32 -106 -67 -203l-13 -39h163zM212 608l81 144h144l-132 -144h-93z" />
    <glyph glyph-name="abreve.smcp" horiz-adv-x="575" 
d="M173 127l-44 -127h-125l205 548h157l205 -548h-125l-43 127h-230zM356 265q-35 97 -67 203h-2q-32 -106 -67 -203l-13 -39h163zM404.5 643.5q-43.5 -38.5 -117.5 -38.5q-73 0 -116.5 38.5t-48.5 108.5h80q4 -34 26 -53t59 -19t59 19t26 53h81q-5 -70 -48.5 -108.5z" />
    <glyph glyph-name="acircumflex.smcp" horiz-adv-x="575" 
d="M173 127l-44 -127h-125l205 548h157l205 -548h-125l-43 127h-230zM356 265q-35 97 -67 203h-2q-32 -106 -67 -203l-13 -39h163zM288 692l-68 -84h-108l114 144h123l114 -144h-108z" />
    <glyph glyph-name="adieresis.smcp" horiz-adv-x="575" 
d="M173 127l-44 -127h-125l205 548h157l205 -548h-125l-43 127h-230zM356 265q-35 97 -67 203h-2q-32 -106 -67 -203l-13 -39h163zM133 643v109h102v-109h-102zM339 643v109h102v-109h-102z" />
    <glyph glyph-name="agrave.smcp" horiz-adv-x="575" 
d="M173 127l-44 -127h-125l205 548h157l205 -548h-125l-43 127h-230zM356 265q-35 97 -67 203h-2q-32 -106 -67 -203l-13 -39h163zM364 608h-93l-132 144h143z" />
    <glyph glyph-name="amacron.smcp" horiz-adv-x="575" 
d="M173 127l-44 -127h-125l205 548h157l205 -548h-125l-43 127h-230zM356 265q-35 97 -67 203h-2q-32 -106 -67 -203l-13 -39h163zM135 647v78h305v-78h-305z" />
    <glyph glyph-name="aogonek.smcp" horiz-adv-x="575" 
d="M574 -122v-62q-27 -11 -68 -11q-53 0 -79.5 21.5t-26.5 61.5q0 32 18.5 57t59.5 55h-32l-43 127h-230l-44 -127h-125l205 548h157l205 -548q-40 -28 -56 -50t-16 -45q0 -33 38 -33q21 0 37 6zM356 265q-35 97 -67 203h-2q-32 -106 -67 -203l-13 -39h163z" />
    <glyph glyph-name="aring.smcp" horiz-adv-x="575" 
d="M173 127l-44 -127h-125l205 548h157l205 -548h-125l-43 127h-230zM356 265q-35 97 -67 203h-2q-32 -106 -67 -203l-13 -39h163zM361 779q30 -30 30 -74q0 -43 -30 -73.5t-74 -30.5q-43 0 -73.5 30.5t-30.5 73.5q0 44 30.5 74t73.5 30q44 0 74 -30zM247.5 744.5
q-16.5 -16.5 -16.5 -39.5t16.5 -39.5t39.5 -16.5t39.5 16.5t16.5 39.5t-16.5 39.5t-39.5 16.5t-39.5 -16.5z" />
    <glyph glyph-name="atilde.smcp" horiz-adv-x="575" 
d="M173 127l-44 -127h-125l205 548h157l205 -548h-125l-43 127h-230zM356 265q-35 97 -67 203h-2q-32 -106 -67 -203l-13 -39h163zM436.5 657q-28.5 -33 -77.5 -33q-23 0 -41 7t-41 20q-19 11 -30.5 16t-24.5 5q-40 0 -46 -48h-68q3 59 32 92t78 33q23 0 41 -7.5t41 -20.5
q19 -11 30.5 -16t23.5 -5q41 0 46 49h68q-3 -59 -31.5 -92z" />
    <glyph glyph-name="ae.smcp" horiz-adv-x="793" 
d="M745 0h-326l-21 136h-209l-64 -136h-130l268 548h476v-100h-274l19 -120h236v-99h-220l21 -129h224v-100zM348 451h-12l-102 -217h148z" />
    <glyph glyph-name="b.smcp" horiz-adv-x="556" 
d="M445 510q52 -38 52 -103q0 -97 -100 -125v-2q56 -11 84.5 -44t28.5 -84q0 -70 -54.5 -111t-150.5 -41h-226v548h212q102 0 154 -38zM196 322h80q55 0 80 16.5t25 50.5t-23.5 50t-76.5 16h-85v-133zM196 94h86q57 0 81.5 15.5t24.5 52.5t-26 54t-85 17h-81v-139z" />
    <glyph glyph-name="c.smcp" horiz-adv-x="598" 
d="M475 507q66 -56 71 -151h-123q-5 49 -38 76t-85 27q-65 0 -102.5 -49.5t-37.5 -135.5q0 -87 37.5 -136t102.5 -49q51 0 84 27.5t40 78.5h125q-9 -99 -75 -154.5t-174 -55.5q-123 0 -193.5 77t-70.5 212q0 89 32 154.5t91.5 100t140.5 34.5q109 0 175 -56z" />
    <glyph glyph-name="cacute.smcp" horiz-adv-x="598" 
d="M475 507q66 -56 71 -151h-123q-5 49 -38 76t-85 27q-65 0 -102.5 -49.5t-37.5 -135.5q0 -87 37.5 -136t102.5 -49q51 0 84 27.5t40 78.5h125q-9 -99 -75 -154.5t-174 -55.5q-123 0 -193.5 77t-70.5 212q0 89 32 154.5t91.5 100t140.5 34.5q109 0 175 -56zM224 608l81 144
h144l-132 -144h-93z" />
    <glyph glyph-name="ccaron.smcp" horiz-adv-x="598" 
d="M475 507q66 -56 71 -151h-123q-5 49 -38 76t-85 27q-65 0 -102.5 -49.5t-37.5 -135.5q0 -87 37.5 -136t102.5 -49q51 0 84 27.5t40 78.5h125q-9 -99 -75 -154.5t-174 -55.5q-123 0 -193.5 77t-70.5 212q0 89 32 154.5t91.5 100t140.5 34.5q109 0 175 -56zM238 608
l-114 144h108l68 -84l67 84h108l-114 -144h-123z" />
    <glyph glyph-name="ccedilla.smcp" horiz-adv-x="598" 
d="M483.5 48.5q-57.5 -54.5 -152.5 -62.5l-30 -48q9 4 29 4q35 0 59 -20t24 -54q0 -39 -30.5 -65t-86.5 -26q-57 0 -109 29l20 40q39 -21 79 -21q25 0 39 10t14 28t-13.5 29t-37.5 11q-17 0 -32 -6l-19 21l43 68q-114 6 -179 82.5t-65 205.5q0 89 32 154.5t91.5 100
t140.5 34.5q109 0 175 -56t71 -151h-123q-5 49 -38 76t-85 27q-65 0 -102.5 -49.5t-37.5 -135.5q0 -87 37.5 -136t102.5 -49q51 0 84 27.5t40 78.5h125q-8 -92 -65.5 -146.5z" />
    <glyph glyph-name="ccircumflex.smcp" horiz-adv-x="598" 
d="M475 507q66 -56 71 -151h-123q-5 49 -38 76t-85 27q-65 0 -102.5 -49.5t-37.5 -135.5q0 -87 37.5 -136t102.5 -49q51 0 84 27.5t40 78.5h125q-9 -99 -75 -154.5t-174 -55.5q-123 0 -193.5 77t-70.5 212q0 89 32 154.5t91.5 100t140.5 34.5q109 0 175 -56zM300 692
l-68 -84h-108l114 144h123l114 -144h-108z" />
    <glyph glyph-name="cdotaccent.smcp" horiz-adv-x="598" 
d="M475 507q66 -56 71 -151h-123q-5 49 -38 76t-85 27q-65 0 -102.5 -49.5t-37.5 -135.5q0 -87 37.5 -136t102.5 -49q51 0 84 27.5t40 78.5h125q-9 -99 -75 -154.5t-174 -55.5q-123 0 -193.5 77t-70.5 212q0 89 32 154.5t91.5 100t140.5 34.5q109 0 175 -56zM242 643v109
h114v-109h-114z" />
    <glyph glyph-name="d.smcp" horiz-adv-x="615" 
d="M500.5 477q79.5 -71 79.5 -203q0 -131 -79.5 -202.5t-226.5 -71.5h-195v548h195q147 0 226.5 -71zM197 102h75q90 0 137 43.5t47 128.5t-47 128.5t-137 43.5h-75v-344z" />
    <glyph glyph-name="eth.smcp" horiz-adv-x="618" 
d="M503.5 477q79.5 -71 79.5 -203q0 -131 -79.5 -202.5t-226.5 -71.5h-195v238h-62v79h62v231h195q147 0 226.5 -71zM412 145.5q47 43.5 47 128.5t-47 128.5t-137 43.5h-75v-129h128v-79h-128v-136h75q90 0 137 43.5z" />
    <glyph glyph-name="dcaron.smcp" horiz-adv-x="615" 
d="M500.5 477q79.5 -71 79.5 -203q0 -131 -79.5 -202.5t-226.5 -71.5h-195v548h195q147 0 226.5 -71zM197 102h75q90 0 137 43.5t47 128.5t-47 128.5t-137 43.5h-75v-344zM221 608l-114 144h108l68 -84l67 84h108l-114 -144h-123z" />
    <glyph glyph-name="dcroat.smcp" horiz-adv-x="618" 
d="M503.5 477q79.5 -71 79.5 -203q0 -131 -79.5 -202.5t-226.5 -71.5h-195v238h-62v79h62v231h195q147 0 226.5 -71zM412 145.5q47 43.5 47 128.5t-47 128.5t-137 43.5h-75v-129h128v-79h-128v-136h75q90 0 137 43.5z" />
    <glyph glyph-name="e.smcp" horiz-adv-x="531" 
d="M197 448v-120h262v-99h-262v-129h287v-100h-404v548h398v-100h-281z" />
    <glyph glyph-name="eacute.smcp" horiz-adv-x="531" 
d="M197 448v-120h262v-99h-262v-129h287v-100h-404v548h398v-100h-281zM203 608l81 144h144l-132 -144h-93z" />
    <glyph glyph-name="ebreve.smcp" horiz-adv-x="531" 
d="M197 448v-120h262v-99h-262v-129h287v-100h-404v548h398v-100h-281zM396.5 643.5q-43.5 -38.5 -117.5 -38.5q-73 0 -116.5 38.5t-48.5 108.5h80q4 -34 26 -53t59 -19t59 19t26 53h81q-5 -70 -48.5 -108.5z" />
    <glyph glyph-name="ecaron.smcp" horiz-adv-x="531" 
d="M197 448v-120h262v-99h-262v-129h287v-100h-404v548h398v-100h-281zM217 608l-114 144h108l68 -84l67 84h108l-114 -144h-123z" />
    <glyph glyph-name="ecircumflex.smcp" horiz-adv-x="531" 
d="M197 448v-120h262v-99h-262v-129h287v-100h-404v548h398v-100h-281zM279 692l-68 -84h-108l114 144h123l114 -144h-108z" />
    <glyph glyph-name="edieresis.smcp" horiz-adv-x="531" 
d="M197 448v-120h262v-99h-262v-129h287v-100h-404v548h398v-100h-281zM125 643v109h102v-109h-102zM331 643v109h102v-109h-102z" />
    <glyph glyph-name="edotaccent.smcp" horiz-adv-x="531" 
d="M197 448v-120h262v-99h-262v-129h287v-100h-404v548h398v-100h-281zM222 643v109h114v-109h-114z" />
    <glyph glyph-name="egrave.smcp" horiz-adv-x="531" 
d="M197 448v-120h262v-99h-262v-129h287v-100h-404v548h398v-100h-281zM355 608h-93l-132 144h143z" />
    <glyph glyph-name="emacron.smcp" horiz-adv-x="531" 
d="M197 448v-120h262v-99h-262v-129h287v-100h-404v548h398v-100h-281zM126 647v78h305v-78h-305z" />
    <glyph glyph-name="eogonek.smcp" horiz-adv-x="531" 
d="M487 -122v-62q-27 -11 -68 -11q-53 0 -79.5 21.5t-26.5 61.5q0 32 18.5 57t59.5 55h-311v548h398v-100h-281v-120h262v-99h-262v-129h287v-100q-40 -28 -56 -50t-16 -45q0 -33 38 -33q21 0 37 6z" />
    <glyph glyph-name="f.smcp" horiz-adv-x="489" 
d="M197 447v-141h250v-101h-250v-205h-118v548h387v-101h-269z" />
    <glyph glyph-name="fi.smcp" horiz-adv-x="765" 
d="M197 447v-141h250v-101h-250v-205h-118v548h387v-101h-269zM569 0v548h117v-548h-117z" />
    <glyph glyph-name="fl.smcp" horiz-adv-x="970" 
d="M197 447v-141h250v-101h-250v-205h-118v548h387v-101h-269zM960 101v-101h-391v548h117v-447h274z" />
    <glyph glyph-name="g.smcp" horiz-adv-x="623" 
d="M477.5 514q64.5 -49 75.5 -135h-125q-18 83 -117 83q-69 0 -110 -50.5t-41 -139.5t39.5 -140t107.5 -51q62 0 97 33.5t36 97.5h-136v93h248v-305h-102v56h-2q-25 -32 -69.5 -50t-97.5 -18q-75 0 -130 34.5t-85 98.5t-30 151q0 90 33.5 155.5t95.5 100.5t146 35
q102 0 166.5 -49z" />
    <glyph glyph-name="gbreve.smcp" horiz-adv-x="623" 
d="M477.5 514q64.5 -49 75.5 -135h-125q-18 83 -117 83q-69 0 -110 -50.5t-41 -139.5t39.5 -140t107.5 -51q62 0 97 33.5t36 97.5h-136v93h248v-305h-102v56h-2q-25 -32 -69.5 -50t-97.5 -18q-75 0 -130 34.5t-85 98.5t-30 151q0 90 33.5 155.5t95.5 100.5t146 35
q102 0 166.5 -49zM421.5 643.5q-43.5 -38.5 -117.5 -38.5q-73 0 -116.5 38.5t-48.5 108.5h80q4 -34 26 -53t59 -19t59 19t26 53h81q-5 -70 -48.5 -108.5z" />
    <glyph glyph-name="gcircumflex.smcp" horiz-adv-x="623" 
d="M477.5 514q64.5 -49 75.5 -135h-125q-18 83 -117 83q-69 0 -110 -50.5t-41 -139.5t39.5 -140t107.5 -51q62 0 97 33.5t36 97.5h-136v93h248v-305h-102v56h-2q-25 -32 -69.5 -50t-97.5 -18q-75 0 -130 34.5t-85 98.5t-30 151q0 90 33.5 155.5t95.5 100.5t146 35
q102 0 166.5 -49zM304 692l-68 -84h-108l114 144h123l114 -144h-108z" />
    <glyph glyph-name="gcommaaccent.smcp" horiz-adv-x="623" 
d="M477.5 514q64.5 -49 75.5 -135h-125q-18 83 -117 83q-69 0 -110 -50.5t-41 -139.5t39.5 -140t107.5 -51q62 0 97 33.5t36 97.5h-136v93h248v-305h-102v56h-2q-25 -32 -69.5 -50t-97.5 -18q-75 0 -130 34.5t-85 98.5t-30 151q0 90 33.5 155.5t95.5 100.5t146 35
q102 0 166.5 -49zM298 -264h-47l42 106h-40v96h107v-96z" />
    <glyph glyph-name="gdotaccent.smcp" horiz-adv-x="623" 
d="M477.5 514q64.5 -49 75.5 -135h-125q-18 83 -117 83q-69 0 -110 -50.5t-41 -139.5t39.5 -140t107.5 -51q62 0 97 33.5t36 97.5h-136v93h248v-305h-102v56h-2q-25 -32 -69.5 -50t-97.5 -18q-75 0 -130 34.5t-85 98.5t-30 151q0 90 33.5 155.5t95.5 100.5t146 35
q102 0 166.5 -49zM247 643v109h114v-109h-114z" />
    <glyph glyph-name="h.smcp" horiz-adv-x="636" 
d="M439 0v233h-242v-233h-117v548h117v-214h242v214h117v-548h-117z" />
    <glyph glyph-name="hbar.smcp" horiz-adv-x="636" 
d="M556 435v-435h-117v233h-242v-233h-117v435h-43v59h43v54h117v-54h242v54h117v-54h43v-59h-43zM197 435v-101h242v101h-242z" />
    <glyph glyph-name="uni0125.smcp" horiz-adv-x="636" 
d="M439 0v233h-242v-233h-117v548h117v-214h242v214h117v-548h-117zM318 692l-68 -84h-108l114 144h123l114 -144h-108z" />
    <glyph glyph-name="i.smcp" horiz-adv-x="277" 
d="M80 0v548h117v-548h-117z" />
    <glyph glyph-name="iacute.smcp" horiz-adv-x="277" 
d="M80 0v548h117v-548h-117zM63 608l81 144h144l-132 -144h-93z" />
    <glyph glyph-name="ibreve.smcp" horiz-adv-x="277" 
d="M80 0v548h117v-548h-117zM246 644q-39 -39 -107 -39t-107 38.5t-42 108.5h75q3 -36 22 -55.5t52 -19.5t52 19.5t21 55.5h76q-3 -69 -42 -108z" />
    <glyph glyph-name="icircumflex.smcp" horiz-adv-x="277" 
d="M80 0v548h117v-548h-117zM196 609l-58 85l-58 -85h-103l101 143h119l101 -143h-102z" />
    <glyph glyph-name="idieresis.smcp" horiz-adv-x="277" 
d="M80 0v548h117v-548h-117zM6 643v109h102v-109h-102zM169 643v109h103v-109h-103z" />
    <glyph glyph-name="i.loclTRK.smcp" horiz-adv-x="277" 
d="M80 0v548h117v-548h-117zM81 643v109h114v-109h-114z" />
    <glyph glyph-name="igrave.smcp" horiz-adv-x="277" 
d="M80 0v548h117v-548h-117zM215 608h-93l-132 144h143z" />
    <glyph glyph-name="ij.smcp" horiz-adv-x="603" 
d="M80 0v548h117v-548h-117zM483 39.5q-45 -44.5 -139 -44.5q-32 0 -53 6l-1 98q18 -3 36 -3q46 0 65.5 22.5t19.5 81.5v348h117v-370q0 -94 -45 -138.5z" />
    <glyph glyph-name="imacron.smcp" horiz-adv-x="277" 
d="M80 0v548h117v-548h-117zM3 650v78h271v-78h-271z" />
    <glyph glyph-name="iogonek.smcp" horiz-adv-x="277" 
d="M200 -122v-62q-27 -11 -68 -11q-53 0 -79.5 21.5t-26.5 61.5q0 32 18.5 57t59.5 55h-24v548h117v-548q-40 -28 -56 -50t-16 -45q0 -33 38 -33q21 0 37 6z" />
    <glyph glyph-name="itilde.smcp" horiz-adv-x="277" 
d="M80 0v548h117v-548h-117zM267.5 657q-26.5 -33 -71.5 -33q-21 0 -36.5 7.5t-33.5 21.5q-17 12 -26 16.5t-20 4.5q-36 0 -41 -50h-59q3 59 28.5 92t71.5 33q21 0 36.5 -7.5t33.5 -21.5q17 -12 26 -16.5t20 -4.5q19 0 29 12.5t12 37.5h60q-3 -59 -29.5 -92z" />
    <glyph glyph-name="j.smcp" horiz-adv-x="326" 
d="M206 39.5q-45 -44.5 -139 -44.5q-32 0 -53 6l-1 98q18 -3 36 -3q46 0 65.5 22.5t19.5 81.5v348h117v-370q0 -94 -45 -138.5z" />
    <glyph glyph-name="jcircumflex.smcp" horiz-adv-x="326" 
d="M206 39.5q-45 -44.5 -139 -44.5q-32 0 -53 6l-1 98q18 -3 36 -3q46 0 65.5 22.5t19.5 81.5v348h117v-370q0 -94 -45 -138.5zM251 609l-58 85l-58 -85h-103l101 143h119l101 -143h-102z" />
    <glyph glyph-name="k.smcp" horiz-adv-x="556" 
d="M551 0h-151l-200 257h-3v-257h-117v548h117v-239h3l189 239h143l-221 -260z" />
    </font>
</defs>
</svg>
